<?xml version="1.0" encoding="UTF-8" standalone="no"?>
<!DOCTYPE svg PUBLIC "-//W3C//DTD SVG 1.1//EN" "http://www.w3.org/Graphics/SVG/1.1/DTD/svg11.dtd">
<svg xmlns="http://www.w3.org/2000/svg" version="1.1" viewBox="0 0 230 230">
<g stroke-width="2.00" fill="none" stroke-linecap="butt">
<path stroke="#e9bb94" vector-effect="non-scaling-stroke" d="
  M 198.47 109.50
  L 200.01 100.76
  A 1.00 1.00 0.0 0 0 198.95 99.59
  Q 198.01 99.66 197.25 99.16"
/>
<path stroke="#e9bb94" vector-effect="non-scaling-stroke" d="
  M 184.25 99.21
  L 178.75 99.46"
/>
<path stroke="#e9bb94" vector-effect="non-scaling-stroke" d="
  M 53.25 88.96
  Q 50.18 87.17 47.94 89.49"
/>
<path stroke="#e9bb94" vector-effect="non-scaling-stroke" d="
  M 39.29 114.00
  Q 39.02 116.26 40.00 118.29"
/>
<path stroke="#e9bb94" vector-effect="non-scaling-stroke" d="
  M 43.75 122.46
  Q 46.00 123.15 48.25 122.46"
/>
<path stroke="#e9bb94" vector-effect="non-scaling-stroke" d="
  M 78.61 107.20
  Q 80.82 108.35 83.28 106.96
  A 1.02 1.01 -9.4 0 0 83.77 106.28
  C 84.06 104.75 84.43 98.71 86.71 99.25"
/>
<path stroke="#e9bb94" vector-effect="non-scaling-stroke" d="
  M 138.75 113.54
  Q 135.61 115.45 131.99 116.10
  A 0.98 0.98 0.0 0 0 131.22 116.77
  Q 130.23 119.82 132.67 122.50"
/>
<path stroke="#e9bb94" vector-effect="non-scaling-stroke" d="
  M 143.96 118.25
  Q 144.87 116.22 144.71 114.00"
/>
<path stroke="#e9bb94" vector-effect="non-scaling-stroke" d="
  M 185.21 106.00
  L 182.61 117.47"
/>
<path stroke="#e9bb94" vector-effect="non-scaling-stroke" d="
  M 181.12 140.99
  Q 176.05 139.50 176.71 133.25"
/>
<path stroke="#e9bb94" vector-effect="non-scaling-stroke" d="
  M 167.21 127.50
  L 162.79 127.00"
/>
<path stroke="#e9bb94" vector-effect="non-scaling-stroke" d="
  M 149.33 127.33
  Q 147.32 126.52 145.54 124.50"
/>
<path stroke="#e9bb94" vector-effect="non-scaling-stroke" d="
  M 129.79 127.64
  L 125.04 125.75"
/>
<path stroke="#e9bb94" vector-effect="non-scaling-stroke" d="
  M 102.04 123.50
  C 101.66 124.50 101.78 127.45 100.00 127.54"
/>
<path stroke="#e9bb94" vector-effect="non-scaling-stroke" d="
  M 94.96 118.50
  L 97.21 107.00"
/>
<path stroke="#e9bb94" vector-effect="non-scaling-stroke" d="
  M 90.29 114.00
  L 89.50 118.21"
/>
<path stroke="#e9bb94" vector-effect="non-scaling-stroke" d="
  M 80.96 118.50
  L 82.50 111.21
  A 1.00 1.00 0.0 0 0 81.25 110.04
  L 79.01 110.69
  A 1.00 0.99 88.5 0 0 78.31 111.43
  L 76.79 118.25"
/>
<path stroke="#e9bb94" vector-effect="non-scaling-stroke" d="
  M 66.46 127.75
  L 62.04 127.50"
/>
<path stroke="#e9bb94" vector-effect="non-scaling-stroke" d="
  M 48.71 127.25
  L 44.50 128.04"
/>
<path stroke="#e9bb94" vector-effect="non-scaling-stroke" d="
  M 116.34 159.73
  Q 116.32 162.33 115.83 160.39
  A 1.03 1.02 -0.9 0 0 115.08 159.67
  L 112.00 158.96"
/>
<path stroke="#e9bb94" vector-effect="non-scaling-stroke" d="
  M 100.00 148.71
  C 100.65 146.34 97.39 147.01 96.11 146.90"
/>
<path stroke="#e9bb94" vector-effect="non-scaling-stroke" d="
  M 83.25 153.54
  L 80.75 156.79"
/>
<path stroke="#e9bb94" vector-effect="non-scaling-stroke" d="
  M 164.71 94.50
  L 163.79 99.49
  A 1.00 0.99 24.7 0 1 162.18 100.08
  L 161.46 99.50"
/>
<path stroke="#e9bb94" vector-effect="non-scaling-stroke" d="
  M 149.75 103.54
  L 146.25 108.29"
/>
<path stroke="#e9bb94" vector-effect="non-scaling-stroke" d="
  M 129.50 102.04
  L 126.29 106.00"
/>
<path stroke="#e9bb94" vector-effect="non-scaling-stroke" d="
  M 117.25 100.29
  Q 110.62 97.50 106.43 102.37
  A 1.00 1.00 0.0 0 1 104.80 102.20
  Q 104.03 100.81 102.75 99.79"
/>
<path stroke="#e9bb94" vector-effect="non-scaling-stroke" d="
  M 67.74 99.19
  L 62.29 102.25"
/>
<path stroke="#e9bb94" vector-effect="non-scaling-stroke" d="
  M 54.46 86.00
  L 50.00 85.21"
/>
<path stroke="#e9bb94" vector-effect="non-scaling-stroke" d="
  M 144.50 179.46
  L 146.96 173.25"
/>
<path stroke="#e9bb94" vector-effect="non-scaling-stroke" d="
  M 31.65 102.53
  C 29.95 108.65 28.96 116.92 31.50 122.96"
/>
<path stroke="#e9bb94" vector-effect="non-scaling-stroke" d="
  M 86.50 175.54
  L 85.71 180.25"
/>
<path stroke="#e9bb94" vector-effect="non-scaling-stroke" d="
  M 111.50 196.71
  Q 113.19 194.28 113.79 191.40
  A 0.99 0.99 0.0 0 0 112.98 190.22
  Q 112.51 190.14 112.00 190.21"
/>
<path stroke="#e9bb94" vector-effect="non-scaling-stroke" d="
  M 105.75 185.54
  Q 109.37 184.81 111.95 182.19
  A 1.01 1.00 -34.8 0 1 113.58 182.48
  Q 114.66 184.88 116.99 185.23
  Q 121.93 185.97 125.42 181.92
  A 1.00 0.99 45.7 0 1 126.94 181.94
  L 129.25 184.71"
/>
<path stroke="#e9bb94" vector-effect="non-scaling-stroke" d="
  M 166.38 187.47
  L 164.25 188.71"
/>
<path stroke="#e9bb94" vector-effect="non-scaling-stroke" d="
  M 151.29 195.75
  L 149.25 196.79"
/>
<path stroke="#e9bb94" vector-effect="non-scaling-stroke" d="
  M 139.71 200.33
  L 136.96 201.25"
/>
<path stroke="#e9bb94" vector-effect="non-scaling-stroke" d="
  M 133.00 201.96
  L 130.22 202.54"
/>
<path stroke="#e9bb94" vector-effect="non-scaling-stroke" d="
  M 110.21 203.75
  L 107.50 203.57"
/>
<path stroke="#e9bb94" vector-effect="non-scaling-stroke" d="
  M 95.50 201.54
  L 92.00 200.71"
/>
<path stroke="#e9bb94" vector-effect="non-scaling-stroke" d="
  M 79.75 196.54
  L 76.25 194.96"
/>
<path stroke="#e9bb94" vector-effect="non-scaling-stroke" d="
  M 116.88 43.71
  L 115.75 48.21"
/>
<path stroke="#e9bb94" vector-effect="non-scaling-stroke" d="
  M 124.75 62.21
  L 123.50 66.46"
/>
<path stroke="#e9bb94" vector-effect="non-scaling-stroke" d="
  M 128.21 67.50
  L 128.75 63.04"
/>
<path stroke="#e9bb94" vector-effect="non-scaling-stroke" d="
  M 136.54 52.06
  L 140.50 51.21"
/>
<path stroke="#e9bb94" vector-effect="non-scaling-stroke" d="
  M 136.96 65.75
  Q 135.30 65.43 135.28 66.99
  C 135.22 73.65 140.16 70.59 143.25 69.21"
/>
<path stroke="#e9bb94" vector-effect="non-scaling-stroke" d="
  M 143.79 69.75
  L 141.71 73.50"
/>
<path stroke="#e9bb94" vector-effect="non-scaling-stroke" d="
  M 116.42 72.20
  L 116.71 69.00"
/>
<path stroke="#e9bb94" vector-effect="non-scaling-stroke" d="
  M 117.21 64.75
  L 118.21 61.00"
/>
<path stroke="#e9bb94" vector-effect="non-scaling-stroke" d="
  M 113.29 61.00
  Q 111.95 65.44 111.65 69.97"
/>
<path stroke="#e9bb94" vector-effect="non-scaling-stroke" d="
  M 105.46 66.75
  L 106.46 61.75"
/>
<path stroke="#e9bb94" vector-effect="non-scaling-stroke" d="
  M 109.25 48.54
  Q 109.83 47.39 109.89 46.07
  A 1.00 0.99 5.4 0 0 109.03 45.04
  L 104.90 44.43
  A 1.00 1.00 0.0 0 0 103.78 45.23
  L 103.00 49.21"
/>
<path stroke="#e9bb94" vector-effect="non-scaling-stroke" d="
  M 99.79 62.75
  L 99.04 67.75"
/>
<path stroke="#e9bb94" vector-effect="non-scaling-stroke" d="
  M 91.21 71.50
  Q 92.21 68.95 91.96 66.25"
/>
<path stroke="#e9bb94" vector-effect="non-scaling-stroke" d="
  M 95.46 51.25
  L 96.46 46.25"
/>
<path stroke="#e9bb94" vector-effect="non-scaling-stroke" d="
  M 88.75 48.71
  Q 87.44 51.06 87.79 53.75"
/>
<path stroke="#e9bb94" vector-effect="non-scaling-stroke" d="
  M 84.25 55.71
  Q 83.11 53.63 83.21 51.25"
/>
<path stroke="#e9bb94" vector-effect="non-scaling-stroke" d="
  M 97.25 161.71
  Q 96.40 163.62 96.50 165.71"
/>
<path stroke="#e9bb94" vector-effect="non-scaling-stroke" d="
  M 93.79 178.50
  L 92.48 183.26"
/>
<path stroke="#e9bb94" vector-effect="non-scaling-stroke" d="
  M 89.21 162.50
  Q 90.48 160.59 90.25 158.29"
/>
<path stroke="#e9bb94" vector-effect="non-scaling-stroke" d="
  M 86.04 156.08
  L 85.04 160.00"
/>
<path stroke="#e9bb94" vector-effect="non-scaling-stroke" d="
  M 102.25 184.96
  Q 99.42 182.46 98.81 179.15"
/>
<path stroke="#e9bb94" vector-effect="non-scaling-stroke" d="
  M 123.25 163.71
  L 122.29 168.25"
/>
<path stroke="#e9bb94" vector-effect="non-scaling-stroke" d="
  M 128.21 167.50
  L 129.21 162.50"
/>
<path stroke="#e9bb94" vector-effect="non-scaling-stroke" d="
  M 144.96 160.00
  Q 141.54 158.48 138.22 160.02
  Q 136.93 160.62 137.54 159.33
  Q 137.62 159.16 137.79 159.00"
/>
<path stroke="#e9bb94" vector-effect="non-scaling-stroke" d="
  M 133.21 110.00
  Q 132.26 110.73 132.01 111.76
  Q 131.49 113.83 133.41 112.91
  Q 133.58 112.82 133.75 112.71"
/>
<path stroke="#e9bb94" vector-effect="non-scaling-stroke" d="
  M 65.04 114.00
  Q 63.73 117.30 65.05 121.38"
/>
<path stroke="#e9bb94" vector-effect="non-scaling-stroke" d="
  M 71.29 118.75
  Q 72.65 116.56 72.96 114.00"
/>
<path stroke="#e9bb94" vector-effect="non-scaling-stroke" d="
  M 181.96 130.75
  C 179.54 132.12 178.14 137.22 182.81 136.13"
/>
<path stroke="#e9bb94" vector-effect="non-scaling-stroke" d="
  M 114.46 169.25
  L 115.46 164.42
  A 1.08 1.07 35.9 0 0 115.34 163.70
  Q 113.86 161.22 111.25 163.21"
/>
<path stroke="#e9bb94" vector-effect="non-scaling-stroke" d="
  M 133.70 178.79
  C 135.25 182.19 139.27 179.46 139.75 176.79"
/>
</g>
<path fill="#ffffff" d="
  M 114.27 7.30
  L 114.63 22.98
  A 1.00 1.00 0.0 0 1 113.61 24.00
  L 112.29 23.98
  A 0.99 0.99 0.0 0 1 111.31 23.00
  L 111.11 7.24
  A 1.00 1.00 0.0 0 0 110.08 6.25
  L 108.68 6.29
  A 0.99 0.98 -4.8 0 1 107.67 5.44
  L 107.54 4.59
  A 1.01 1.01 0.0 0 1 108.50 3.44
  L 116.43 3.19
  A 1.00 1.00 0.0 0 1 117.43 3.91
  Q 118.28 6.90 115.48 6.30
  A 1.00 1.00 0.0 0 0 114.27 7.30
  Z"
/>
<path fill="#ffffff" d="
  M 128.04 7.12
  Q 125.45 7.29 126.23 4.60
  A 1.01 1.00 -77.4 0 1 127.34 3.89
  L 135.14 5.06
  A 1.00 1.00 0.0 0 1 135.99 6.16
  L 135.88 7.15
  A 1.01 1.00 -81.2 0 1 134.70 8.02
  L 133.45 7.79
  A 1.01 1.00 9.7 0 0 132.27 8.62
  L 129.97 24.11
  A 1.01 1.00 10.6 0 1 128.75 24.94
  L 127.53 24.65
  A 1.01 1.00 -79.1 0 1 126.77 23.52
  L 129.09 8.27
  A 1.00 1.00 0.0 0 0 128.04 7.12
  Z"
/>
<path fill="#ffffff" d="
  M 95.06 13.94
  L 98.34 13.22
  A 0.50 0.50 0.0 0 1 98.93 13.57
  L 99.48 15.54
  A 0.50 0.50 0.0 0 1 99.09 16.17
  L 95.61 16.82
  A 0.50 0.50 0.0 0 0 95.22 17.40
  L 96.17 22.38
  A 0.50 0.50 0.0 0 0 96.76 22.77
  L 101.14 21.90
  A 0.50 0.50 0.0 0 1 101.73 22.28
  L 102.14 24.21
  A 0.50 0.50 0.0 0 1 101.74 24.81
  L 94.21 26.28
  A 0.50 0.50 0.0 0 1 93.62 25.89
  L 89.87 6.58
  A 0.50 0.50 0.0 0 1 90.26 5.99
  L 97.99 4.47
  A 0.50 0.50 0.0 0 1 98.58 4.91
  L 98.80 6.88
  A 0.50 0.50 0.0 0 1 98.39 7.43
  L 94.03 8.25
  A 0.50 0.50 0.0 0 0 93.64 8.83
  L 94.46 13.54
  A 0.50 0.50 0.0 0 0 95.06 13.94
  Z"
/>
<path fill="#ffffff" d="
  M 146.57 17.07
  L 149.69 17.94
  A 0.50 0.50 0.0 0 1 150.04 18.54
  L 149.51 20.66
  A 0.50 0.50 0.0 0 1 148.84 21.00
  L 145.68 19.75
  A 0.50 0.50 0.0 0 0 145.02 20.06
  L 143.43 24.90
  A 0.50 0.50 0.0 0 0 143.75 25.53
  L 148.01 26.98
  A 0.50 0.50 0.0 0 1 148.33 27.59
  L 147.78 29.50
  A 0.50 0.50 0.0 0 1 147.14 29.84
  L 139.71 27.32
  A 0.50 0.50 0.0 0 1 139.40 26.69
  L 145.60 8.08
  A 0.50 0.50 0.0 0 1 146.23 7.76
  L 153.57 10.12
  A 0.50 0.50 0.0 0 1 153.91 10.71
  L 153.44 12.74
  A 0.50 0.50 0.0 0 1 152.78 13.10
  L 148.39 11.58
  A 0.50 0.50 0.0 0 0 147.75 11.89
  L 146.23 16.43
  A 0.50 0.50 0.0 0 0 146.57 17.07
  Z"
/>
<path fill="#ffffff" d="
  M 80.16 11.94
  Q 82.28 14.27 81.56 17.78
  A 1.02 1.01 23.1 0 0 81.98 18.81
  Q 86.41 21.78 85.60 28.07
  A 0.99 0.99 0.0 0 1 84.99 28.87
  L 78.78 31.39
  A 1.00 1.00 0.0 0 1 77.47 30.83
  L 70.76 13.51
  A 1.01 1.01 0.0 0 1 71.17 12.29
  C 73.91 10.62 77.57 9.09 80.16 11.94
  Z
  M 78.56 17.81
  Q 79.23 13.18 75.57 13.73
  A 1.00 0.99 74.7 0 0 74.80 15.09
  L 76.07 18.29
  A 1.00 0.99 -8.7 0 0 76.94 18.92
  Q 78.39 19.00 78.56 17.81
  Z
  M 77.85 22.87
  L 79.39 26.98
  A 1.01 1.01 0.0 0 0 80.54 27.60
  Q 84.09 26.84 81.14 21.75
  A 1.00 1.00 0.0 0 0 80.10 21.26
  L 78.61 21.53
  A 1.00 1.00 0.0 0 0 77.85 22.87
  Z"
/>
<path fill="#ffffff" d="
  M 165.78 28.68
  L 166.09 29.52
  A 1.04 1.01 49.4 0 1 166.04 30.31
  L 162.95 36.45
  A 1.00 1.00 0.0 0 1 161.53 36.85
  L 160.42 36.18
  A 1.00 1.00 0.0 0 1 160.06 34.86
  C 160.98 33.09 164.51 28.44 161.47 27.21
  A 1.01 0.99 -64.7 0 0 160.22 27.67
  L 157.18 33.32
  A 1.01 1.00 -61.5 0 1 155.82 33.73
  L 154.70 33.11
  A 1.00 0.99 28.7 0 1 154.30 31.76
  L 163.32 15.35
  A 1.00 1.00 0.0 0 1 164.72 14.98
  L 170.10 18.26
  A 1.00 1.00 0.0 0 1 170.57 19.01
  Q 171.18 24.70 166.23 27.46
  A 1.01 1.01 0.0 0 0 165.78 28.68
  Z
  M 163.07 24.73
  Q 165.21 25.66 167.84 21.35
  A 1.01 1.00 -60.1 0 0 167.47 19.95
  L 166.09 19.19
  A 1.00 0.99 -60.6 0 0 164.74 19.57
  L 162.60 23.32
  A 1.00 1.00 0.0 0 0 163.07 24.73
  Z"
/>
<path fill="#ffffff" d="
  M 58.30 40.42
  C 59.92 36.38 53.01 36.14 50.95 35.90
  Q 48.22 35.58 46.54 33.41
  C 44.02 30.18 44.76 26.78 48.58 25.46
  Q 51.49 24.45 53.64 27.24
  A 1.00 1.00 0.0 0 1 53.49 28.62
  L 52.70 29.27
  A 0.99 0.99 0.0 0 1 51.31 29.16
  Q 49.66 27.27 48.31 29.38
  A 1.00 0.98 46.1 0 0 48.30 30.44
  C 50.33 33.79 54.62 32.66 57.26 33.67
  C 67.03 37.41 58.85 49.31 52.81 41.65
  A 1.01 1.00 -37.9 0 1 52.99 40.24
  L 53.80 39.62
  A 1.00 1.00 0.0 0 1 55.26 39.90
  Q 56.07 41.22 57.50 41.04
  A 0.98 0.97 6.9 0 0 58.30 40.42
  Z"
/>
<path fill="#d27728" d="
  M 198.47 109.50
  L 200.01 100.76
  A 1.00 1.00 0.0 0 0 198.95 99.59
  Q 198.01 99.66 197.25 99.16
  Q 190.19 65.80 162.26 45.76
  A 0.99 0.99 0.0 0 0 160.85 46.01
  L 154.86 55.00
  A 1.01 1.00 34.9 0 0 155.11 56.37
  Q 177.52 72.28 184.25 99.21
  L 178.75 99.46
  Q 179.06 99.27 179.26 98.99
  A 1.00 0.98 -36.0 0 0 179.40 98.15
  Q 172.25 72.58 149.94 58.29
  Q 148.15 57.14 149.36 55.34
  L 157.10 43.72
  A 1.00 0.99 -58.2 0 0 156.77 42.30
  C 126.93 25.20 90.34 27.58 62.84 48.80
  A 0.99 0.98 -58.8 0 1 62.08 48.99
  C 58.06 48.40 59.63 45.67 61.66 44.19
  C 110.05 8.72 178.25 29.43 198.24 86.26
  C 208.18 114.51 202.47 145.91 184.38 169.55
  C 182.84 171.57 180.20 172.19 179.72 168.92
  A 1.01 1.01 0.0 0 1 179.93 168.15
  Q 200.39 142.61 198.47 109.50
  Z"
/>
<path fill="#ffffff" d="
  M 188.51 41.89
  L 193.88 37.77
  A 1.00 1.00 0.0 0 1 195.18 37.84
  L 196.17 38.79
  A 1.01 1.00 42.7 0 1 196.23 40.18
  L 191.08 46.01
  Q 185.65 52.15 192.16 47.18
  L 198.24 42.53
  A 1.01 1.00 50.7 0 1 199.60 42.67
  L 200.17 43.31
  A 1.00 1.00 0.0 0 1 200.01 44.77
  L 185.02 55.92
  A 1.02 1.00 -40.0 0 1 183.69 55.81
  L 181.96 53.97
  A 1.00 1.00 0.0 0 1 181.93 52.63
  L 187.38 46.39
  A 0.30 0.18 -44.6 0 0 187.46 46.09
  Q 187.42 46.03 187.36 46.01
  A 0.34 0.25 -50.1 0 0 187.07 46.08
  L 180.44 51.10
  A 1.00 1.00 0.0 0 1 179.08 50.95
  L 177.32 48.91
  A 1.01 1.00 -45.3 0 1 177.32 47.60
  L 189.50 33.39
  A 1.01 1.00 42.8 0 1 190.97 33.34
  L 191.81 34.19
  A 1.00 0.99 -47.2 0 1 191.86 35.54
  L 187.42 40.74
  Q 182.43 46.56 188.51 41.89
  Z"
/>
<rect fill="#ffffff" x="-10.32" y="-1.59" transform="translate(42.33,44.71) rotate(43.7)" width="20.64" height="3.18" rx="0.56"/>
<path fill="#ffffff" d="
  M 116.88 43.71
  L 115.75 48.21
  L 115.02 51.81
  Q 114.66 53.59 116.22 52.66
  Q 117.91 51.64 119.88 51.56
  C 127.01 51.26 124.93 58.26 124.75 62.21
  L 123.50 66.46
  Q 122.77 68.34 123.36 70.14
  A 1.00 0.99 86.4 0 0 124.12 70.82
  Q 127.77 71.50 128.21 67.50
  L 128.75 63.04
  Q 130.48 56.08 136.54 52.06
  L 140.50 51.21
  Q 144.42 50.95 145.68 53.59
  C 148.36 59.23 141.84 64.64 136.96 65.75
  Q 135.30 65.43 135.28 66.99
  C 135.22 73.65 140.16 70.59 143.25 69.21
  L 143.79 69.75
  L 141.71 73.50
  Q 134.77 78.36 129.25 72.67
  A 0.99 0.99 0.0 0 0 127.78 72.71
  Q 122.40 78.99 116.42 72.20
  L 116.71 69.00
  L 117.21 64.75
  L 118.21 61.00
  Q 119.24 57.49 117.76 55.81
  A 1.00 0.99 50.6 0 0 116.40 55.67
  Q 113.30 58.03 113.29 61.00
  Q 111.95 65.44 111.65 69.97
  L 110.43 74.61
  A 1.01 1.00 8.0 0 1 109.43 75.36
  L 104.90 75.23
  A 1.00 1.00 0.0 0 1 103.95 74.02
  L 105.46 66.75
  L 106.46 61.75
  L 109.25 48.54
  Q 109.83 47.39 109.89 46.07
  A 1.00 0.99 5.4 0 0 109.03 45.04
  L 104.90 44.43
  A 1.00 1.00 0.0 0 0 103.78 45.23
  L 103.00 49.21
  L 99.79 62.75
  L 99.04 67.75
  L 97.39 74.49
  A 1.00 1.00 0.0 0 1 96.42 75.25
  L 91.70 75.25
  A 1.00 1.00 0.0 0 1 90.72 74.06
  L 91.21 71.50
  Q 92.21 68.95 91.96 66.25
  Q 94.23 58.88 95.46 51.25
  L 96.46 46.25
  L 96.70 45.45
  A 1.00 0.99 -81.0 0 0 95.77 44.16
  Q 90.86 44.05 88.75 48.71
  Q 87.44 51.06 87.79 53.75
  Q 88.99 58.76 84.25 55.71
  Q 83.11 53.63 83.21 51.25
  C 85.37 35.76 105.24 41.00 115.04 41.07
  Q 115.31 41.07 115.54 40.94
  Q 119.49 38.70 116.88 43.71
  Z
  M 141.85 53.96
  Q 140.40 53.50 139.36 54.90
  Q 137.01 58.06 136.13 61.96
  Q 135.70 63.86 137.49 63.11
  Q 142.60 60.95 142.55 54.91
  A 1.00 0.99 8.8 0 0 141.85 53.96
  Z"
/>
<path fill="#d27728" d="
  M 116.88 43.71
  Q 128.16 44.34 138.66 48.06
  C 140.21 48.61 140.78 49.63 140.50 51.21
  L 136.54 52.06
  Q 126.59 48.29 115.75 48.21
  L 116.88 43.71
  Z"
/>
<path fill="#d27728" d="
  M 109.25 48.54
  L 103.00 49.21
  L 103.78 45.23
  A 1.00 1.00 0.0 0 1 104.90 44.43
  L 109.03 45.04
  A 1.00 0.99 5.4 0 1 109.89 46.07
  Q 109.83 47.39 109.25 48.54
  Z"
/>
<path fill="#d27728" d="
  M 96.46 46.25
  L 95.46 51.25
  L 87.79 53.75
  Q 87.44 51.06 88.75 48.71
  L 96.46 46.25
  Z"
/>
<path fill="#d27728" d="
  M 83.21 51.25
  Q 83.11 53.63 84.25 55.71
  Q 64.35 65.90 54.46 86.00
  L 50.00 85.21
  Q 60.84 62.58 83.21 51.25
  Z"
/>
<path fill="#ffffff" d="
  M 198.11 61.38
  L 191.31 65.49
  A 0.47 0.47 0.0 0 1 190.67 65.33
  L 189.47 63.36
  A 0.47 0.47 0.0 0 1 189.62 62.72
  L 206.43 52.55
  A 0.47 0.47 0.0 0 1 207.07 52.69
  L 208.31 54.59
  A 0.47 0.47 0.0 0 1 208.16 55.25
  L 201.31 59.41
  A 0.47 0.47 0.0 0 0 201.17 60.08
  L 202.70 62.35
  A 0.47 0.47 0.0 0 0 203.33 62.49
  L 210.03 58.47
  A 0.47 0.47 0.0 0 1 210.67 58.62
  L 211.91 60.59
  A 0.47 0.47 0.0 0 1 211.75 61.24
  L 194.93 71.42
  A 0.47 0.47 0.0 0 1 194.29 71.28
  L 193.00 69.30
  A 0.47 0.47 0.0 0 1 193.15 68.64
  L 199.90 64.60
  A 0.47 0.47 0.0 0 0 200.08 63.97
  L 198.76 61.55
  A 0.47 0.47 0.0 0 0 198.11 61.38
  Z"
/>
<path fill="#ffffff" d="
  M 25.39 65.14
  L 27.22 61.91
  A 0.40 0.40 0.0 0 1 27.78 61.76
  L 29.66 62.95
  A 0.40 0.40 0.0 0 1 29.79 63.50
  L 27.93 66.56
  A 0.40 0.40 0.0 0 0 28.08 67.12
  L 32.81 69.70
  A 0.40 0.40 0.0 0 0 33.36 69.53
  L 35.45 65.36
  A 0.40 0.40 0.0 0 1 35.99 65.19
  L 37.98 66.23
  A 0.40 0.40 0.0 0 1 38.15 66.78
  L 34.33 73.78
  A 0.40 0.40 0.0 0 1 33.79 73.93
  L 16.43 64.29
  A 0.40 0.40 0.0 0 1 16.27 63.75
  L 20.09 56.76
  A 0.40 0.40 0.0 0 1 20.63 56.61
  L 22.58 57.69
  A 0.40 0.40 0.0 0 1 22.73 58.24
  L 20.33 62.32
  A 0.40 0.40 0.0 0 0 20.48 62.87
  L 24.84 65.30
  A 0.40 0.40 0.0 0 0 25.39 65.14
  Z"
/>
<path fill="#d27728" d="
  M 31.65 102.53
  C 29.95 108.65 28.96 116.92 31.50 122.96
  L 31.17 122.99
  A 0.33 0.32 84.0 0 0 30.88 123.36
  Q 35.45 160.41 64.89 182.82
  A 1.00 1.00 0.0 0 0 66.32 182.60
  L 75.01 170.11
  A 1.01 0.99 -53.9 0 1 76.43 169.88
  Q 80.99 173.30 86.50 175.54
  L 85.71 180.25
  L 77.44 175.84
  A 1.01 1.01 0.0 0 0 76.15 176.15
  L 69.93 185.02
  A 1.01 1.00 -56.5 0 0 70.22 186.45
  Q 88.89 197.96 110.92 199.12
  A 0.99 0.99 0.0 0 0 111.83 198.62
  Q 112.48 197.50 111.50 196.71
  Q 113.19 194.28 113.79 191.40
  A 0.99 0.99 0.0 0 0 112.98 190.22
  Q 112.51 190.14 112.00 190.21
  L 111.65 186.99
  A 1.01 1.00 90.0 0 0 110.77 186.10
  L 105.75 185.54
  Q 109.37 184.81 111.95 182.19
  A 1.01 1.00 -34.8 0 1 113.58 182.48
  Q 114.66 184.88 116.99 185.23
  Q 121.93 185.97 125.42 181.92
  A 1.00 0.99 45.7 0 1 126.94 181.94
  L 129.25 184.71
  L 117.09 186.22
  A 1.00 0.98 -3.9 0 0 116.21 187.21
  L 116.27 198.18
  A 0.99 0.99 0.0 0 0 117.31 199.17
  Q 144.96 198.01 166.78 181.15
  A 1.03 0.97 25.4 0 1 167.43 180.94
  Q 169.95 181.02 169.98 183.42
  A 1.04 1.03 67.2 0 1 169.69 184.14
  L 166.38 187.47
  L 164.25 188.71
  L 151.29 195.75
  L 149.25 196.79
  Q 144.01 198.19 139.71 200.33
  L 136.96 201.25
  Q 134.81 200.52 133.00 201.96
  L 130.22 202.54
  L 110.21 203.75
  L 107.50 203.57
  L 95.50 201.54
  L 92.00 200.71
  L 79.75 196.54
  L 76.25 194.96
  C 25.55 168.57 9.84 106.07 45.44 60.18
  Q 47.16 57.95 49.49 60.49
  A 1.01 0.99 -46.9 0 1 49.52 61.80
  Q 34.93 79.66 31.65 102.53
  Z"
/>
<path fill="#d27728" d="
  M 113.29 61.00
  L 118.21 61.00
  L 117.21 64.75
  Q 115.32 66.65 116.71 69.00
  L 116.42 72.20
  L 116.37 77.39
  A 1.00 0.99 3.2 0 0 117.27 78.39
  Q 135.55 80.20 145.53 95.37
  A 1.01 1.00 -32.3 0 0 146.89 95.67
  L 156.09 90.05
  A 1.00 0.99 -32.0 0 0 156.41 88.67
  Q 150.70 79.49 141.71 73.50
  L 143.79 69.75
  Q 157.89 79.02 164.71 94.50
  L 163.79 99.49
  A 1.00 0.99 24.7 0 1 162.18 100.08
  L 161.46 99.50
  Q 160.96 96.75 159.55 94.31
  A 1.00 1.00 0.0 0 0 158.17 93.96
  L 148.92 99.58
  A 1.00 1.00 0.0 0 0 148.53 100.84
  L 149.75 103.54
  L 146.25 108.29
  Q 140.23 86.06 117.39 82.85
  A 1.00 1.00 0.0 0 0 116.25 83.84
  L 116.25 94.79
  A 1.01 1.01 0.0 0 0 117.07 95.78
  Q 124.13 97.10 129.50 102.04
  L 126.29 106.00
  Q 123.10 101.12 117.25 100.29
  Q 110.62 97.50 106.43 102.37
  A 1.00 1.00 0.0 0 1 104.80 102.20
  Q 104.03 100.81 102.75 99.79
  C 105.86 97.38 108.11 97.19 111.17 95.84
  A 1.00 0.99 -12.7 0 0 111.76 94.92
  L 111.74 84.08
  A 1.00 0.99 -2.6 0 0 110.65 83.09
  Q 105.99 83.52 101.70 85.45
  C 99.49 86.44 97.64 85.86 97.73 83.04
  A 1.03 1.03 0.0 0 1 98.30 82.17
  Q 104.30 79.27 110.90 78.49
  A 1.01 1.01 0.0 0 0 111.78 77.60
  Q 112.19 73.78 111.65 69.97
  Q 111.95 65.44 113.29 61.00
  Z"
/>
<path fill="#d27728" d="
  M 106.46 61.75
  L 105.46 66.75
  Q 102.17 66.64 99.04 67.75
  L 99.79 62.75
  L 106.46 61.75
  Z"
/>
<path fill="#d27728" d="
  M 128.75 63.04
  L 128.21 67.50
  Q 125.97 66.46 123.50 66.46
  L 124.75 62.21
  Q 126.82 62.19 128.75 63.04
  Z"
/>
<path fill="#d27728" d="
  M 136.96 65.75
  L 143.25 69.21
  C 140.16 70.59 135.22 73.65 135.28 66.99
  Q 135.30 65.43 136.96 65.75
  Z"
/>
<path fill="#d27728" d="
  M 91.96 66.25
  Q 92.21 68.95 91.21 71.50
  Q 73.90 80.56 67.74 99.19
  L 62.29 102.25
  Q 68.81 77.34 91.96 66.25
  Z"
/>
<path fill="#ffffff" d="
  M 201.53 80.36
  L 203.24 84.77
  A 0.40 0.40 0.0 0 1 203.01 85.29
  L 200.94 86.08
  A 0.40 0.40 0.0 0 1 200.43 85.85
  L 197.61 78.43
  A 0.40 0.40 0.0 0 1 197.84 77.92
  L 216.41 70.85
  A 0.40 0.40 0.0 0 1 216.92 71.08
  L 219.81 78.61
  A 0.40 0.40 0.0 0 1 219.55 79.14
  L 217.44 79.79
  A 0.40 0.40 0.0 0 1 216.95 79.55
  L 215.31 75.14
  A 0.40 0.40 0.0 0 0 214.79 74.90
  L 210.16 76.67
  A 0.40 0.40 0.0 0 0 209.93 77.18
  L 211.26 80.63
  A 0.40 0.40 0.0 0 1 211.00 81.16
  L 208.88 81.81
  A 0.40 0.40 0.0 0 1 208.39 81.55
  L 207.27 78.20
  A 0.40 0.40 0.0 0 0 206.75 77.96
  L 201.76 79.84
  A 0.40 0.40 0.0 0 0 201.53 80.36
  Z"
/>
<path fill="#ffffff" d="
  M 22.17 82.28
  L 29.11 84.71
  A 0.59 0.59 0.0 0 1 29.47 85.45
  L 28.82 87.40
  A 0.59 0.59 0.0 0 1 28.07 87.76
  L 9.70 81.39
  A 0.59 0.59 0.0 0 1 9.33 80.64
  L 11.78 73.63
  A 0.59 0.59 0.0 0 1 12.55 73.27
  L 14.22 73.91
  A 0.59 0.59 0.0 0 1 14.56 74.66
  L 13.20 78.53
  A 0.59 0.59 0.0 0 0 13.56 79.29
  L 18.35 80.97
  A 0.59 0.59 0.0 0 0 19.11 80.58
  L 19.94 77.83
  A 0.59 0.59 0.0 0 1 20.69 77.44
  L 22.52 78.03
  A 0.59 0.59 0.0 0 1 22.89 78.81
  L 21.82 81.51
  A 0.59 0.59 0.0 0 0 22.17 82.28
  Z"
/>
<path fill="#ffffff" d="
  M 50.00 85.21
  L 54.46 86.00
  C 58.25 88.02 60.53 93.14 57.74 96.76
  Q 56.14 98.84 52.89 97.51
  A 1.00 1.00 0.0 0 1 52.57 95.87
  Q 55.68 92.81 53.25 88.96
  Q 50.18 87.17 47.94 89.49
  C 41.51 95.13 39.41 106.29 39.29 114.00
  Q 39.02 116.26 40.00 118.29
  Q 40.29 121.84 43.75 122.46
  Q 46.00 123.15 48.25 122.46
  Q 52.89 122.11 55.80 118.51
  A 1.01 1.01 0.0 0 0 56.02 117.94
  Q 56.62 109.08 62.29 102.25
  L 67.74 99.19
  Q 78.05 97.14 78.61 107.20
  Q 80.82 108.35 83.28 106.96
  A 1.02 1.01 -9.4 0 0 83.77 106.28
  C 84.06 104.75 84.43 98.71 86.71 99.25
  L 92.05 99.54
  A 1.01 1.00 3.2 0 1 93.00 100.59
  L 92.98 100.96
  Q 92.93 101.88 93.64 101.30
  Q 97.62 98.08 102.75 99.79
  Q 104.03 100.81 104.80 102.20
  A 1.00 1.00 0.0 0 0 106.43 102.37
  Q 110.62 97.50 117.25 100.29
  C 121.10 104.88 117.93 113.16 116.90 118.52
  Q 115.95 123.45 120.34 121.94
  Q 122.61 121.16 122.73 118.76
  Q 123.09 111.96 126.29 106.00
  L 129.50 102.04
  Q 133.25 98.87 138.27 99.05
  C 148.19 99.39 143.71 110.17 138.75 113.54
  Q 135.61 115.45 131.99 116.10
  A 0.98 0.98 0.0 0 0 131.22 116.77
  Q 130.23 119.82 132.67 122.50
  Q 139.81 124.12 143.96 118.25
  Q 144.87 116.22 144.71 114.00
  L 146.25 108.29
  L 149.75 103.54
  Q 154.37 98.16 161.46 99.50
  L 162.18 100.08
  A 1.00 0.99 24.7 0 0 163.79 99.49
  L 164.71 94.50
  L 166.03 89.92
  A 1.01 0.99 3.9 0 1 166.86 89.21
  L 172.87 88.37
  A 1.00 1.00 0.0 0 1 173.99 89.56
  Q 171.56 101.21 169.07 112.81
  Q 168.18 116.97 168.25 121.21
  A 1.00 1.00 0.0 0 0 169.36 122.19
  L 171.79 121.91
  Q 173.44 121.72 174.14 118.58
  C 174.62 116.40 177.99 99.42 178.75 99.46
  L 184.25 99.21
  L 185.35 99.51
  A 1.00 1.00 0.0 0 1 186.07 100.63
  L 185.21 106.00
  L 182.61 117.47
  Q 180.76 121.61 184.34 122.18
  A 1.04 1.01 -55.5 0 0 185.00 122.05
  C 189.06 119.65 190.55 107.19 191.91 100.40
  A 1.01 1.00 -86.9 0 1 192.80 99.60
  L 197.25 99.16
  Q 198.01 99.66 198.95 99.59
  A 1.00 1.00 0.0 0 1 200.01 100.76
  L 198.47 109.50
  Q 196.11 118.28 193.19 132.94
  Q 191.35 142.17 181.12 140.99
  Q 176.05 139.50 176.71 133.25
  C 178.62 129.35 181.39 128.62 185.83 127.10
  Q 186.59 126.84 186.60 126.02
  Q 186.61 124.95 185.77 125.61
  Q 183.46 127.41 180.99 127.71
  Q 176.57 128.24 174.59 124.47
  A 1.00 1.00 0.0 0 0 173.02 124.21
  Q 170.50 126.58 167.21 127.50
  L 162.79 127.00
  Q 161.41 125.89 160.63 124.38
  A 1.00 1.00 0.0 0 0 158.97 124.20
  Q 155.44 128.45 149.33 127.33
  Q 147.32 126.52 145.54 124.50
  L 144.93 122.80
  A 1.01 1.00 -32.6 0 0 143.27 122.44
  Q 137.78 128.00 129.79 127.64
  L 125.04 125.75
  L 124.03 124.26
  A 1.00 1.00 0.0 0 0 122.42 124.19
  Q 120.04 127.18 116.43 127.63
  C 105.51 128.99 109.62 116.06 110.83 110.82
  C 111.60 107.51 111.72 100.57 105.79 106.64
  A 1.03 1.01 -17.7 0 0 105.53 107.13
  L 102.04 123.50
  C 101.66 124.50 101.78 127.45 100.00 127.54
  L 94.44 127.29
  A 1.01 1.00 -83.5 0 1 93.50 126.10
  L 94.96 118.50
  L 97.21 107.00
  Q 96.75 102.86 94.07 104.72
  C 91.52 106.50 90.46 111.09 90.29 114.00
  L 89.50 118.21
  L 87.50 126.73
  A 1.00 1.00 0.0 0 1 86.53 127.50
  L 80.35 127.50
  A 1.00 1.00 0.0 0 1 79.37 126.30
  L 80.96 118.50
  L 82.50 111.21
  A 1.00 1.00 0.0 0 0 81.25 110.04
  L 79.01 110.69
  A 1.00 0.99 88.5 0 0 78.31 111.43
  L 76.79 118.25
  Q 73.81 125.40 66.46 127.75
  L 62.04 127.50
  Q 58.31 126.25 56.72 122.93
  A 1.00 1.00 0.0 0 0 55.12 122.64
  Q 52.27 125.39 48.71 127.25
  L 44.50 128.04
  Q 36.09 129.74 31.50 122.96
  C 28.96 116.92 29.95 108.65 31.65 102.53
  C 34.25 93.39 40.07 85.76 50.00 85.21
  Z
  M 133.21 110.00
  Q 132.26 110.73 132.01 111.76
  Q 131.49 113.83 133.41 112.91
  Q 133.58 112.82 133.75 112.71
  Q 140.29 110.04 139.72 102.36
  A 1.01 1.00 71.9 0 0 138.19 101.58
  Q 133.41 104.56 133.21 110.00
  Z
  M 65.04 114.00
  Q 63.73 117.30 65.05 121.38
  Q 69.54 124.03 71.29 118.75
  Q 72.65 116.56 72.96 114.00
  C 74.99 110.66 69.85 109.02 73.45 105.82
  A 0.99 0.98 68.2 0 0 73.78 105.04
  C 73.65 100.75 70.43 102.13 68.87 104.19
  Q 65.59 108.51 65.04 114.00
  Z
  M 162.41 103.67
  C 156.08 98.21 150.42 117.55 153.93 122.15
  A 1.01 1.00 -23.5 0 0 154.91 122.53
  Q 158.65 121.83 159.53 118.43
  Q 161.33 111.43 162.73 104.63
  A 1.01 0.99 -64.0 0 0 162.41 103.67
  Z
  M 181.96 130.75
  C 179.54 132.12 178.14 137.22 182.81 136.13
  Q 185.35 133.74 185.68 130.35
  A 1.00 1.00 0.0 0 0 184.38 129.30
  Q 183.01 129.74 181.96 130.75
  Z"
/>
<path fill="#d27728" d="
  M 53.25 88.96
  Q 46.18 104.98 48.25 122.46
  Q 46.00 123.15 43.75 122.46
  L 43.44 119.24
  A 0.99 0.98 87.7 0 0 42.47 118.34
  L 40.00 118.29
  Q 39.02 116.26 39.29 114.00
  L 42.59 113.76
  A 1.01 1.01 0.0 0 0 43.52 112.81
  Q 44.13 100.88 47.94 89.49
  Q 50.18 87.17 53.25 88.96
  Z"
/>
<path fill="#ffffff" d="
  M 218.25 97.23
  L 223.01 96.33
  A 1.00 1.00 0.0 0 1 224.17 97.08
  L 224.38 98.00
  A 1.01 1.00 -11.8 0 1 223.58 99.21
  Q 215.26 100.69 206.99 102.24
  Q 203.46 102.90 203.83 99.87
  A 1.02 1.00 -9.5 0 1 204.40 99.09
  L 212.28 95.36
  Q 217.77 92.77 211.80 93.85
  L 203.98 95.27
  A 1.00 1.00 0.0 0 1 202.83 94.53
  L 202.61 93.63
  A 1.00 1.00 0.0 0 1 203.40 92.41
  L 221.83 89.03
  A 1.00 1.00 0.0 0 1 223.00 89.91
  L 223.25 92.29
  A 1.00 1.00 0.0 0 1 222.70 93.29
  L 217.75 95.72
  Q 212.46 98.32 218.25 97.23
  Z"
/>
<rect fill="#ffffff" x="-10.33" y="-1.60" transform="translate(16.45,94.68) rotate(11.0)" width="20.66" height="3.20" rx="0.70"/>
<path fill="#d27728" d="
  M 86.71 99.25
  C 84.43 98.71 84.06 104.75 83.77 106.28
  A 1.02 1.01 -9.4 0 1 83.28 106.96
  Q 80.82 108.35 78.61 107.20
  Q 80.85 99.27 85.61 92.69
  A 1.05 1.01 10.5 0 1 86.20 92.30
  Q 89.02 91.66 89.28 94.38
  A 1.00 0.96 58.6 0 1 89.15 94.97
  L 86.71 99.25
  Z"
/>
<path fill="#ffffff" d="
  M 22.75 104.75
  L 24.83 104.75
  A 0.50 0.50 0.0 0 1 25.33 105.28
  L 24.87 112.81
  A 0.50 0.50 0.0 0 1 24.35 113.28
  L 4.73 112.30
  A 0.50 0.50 0.0 0 1 4.25 111.80
  L 4.25 109.57
  A 0.50 0.50 0.0 0 1 4.77 109.07
  L 21.74 109.84
  A 0.50 0.50 0.0 0 0 22.26 109.34
  L 22.25 105.25
  A 0.50 0.50 0.0 0 1 22.75 104.75
  Z"
/>
<path fill="#d27728" d="
  M 185.21 106.00
  Q 186.22 110.92 185.55 115.90
  A 1.02 0.98 -17.3 0 1 185.21 116.52
  Q 184.11 117.48 182.61 117.47
  L 185.21 106.00
  Z"
/>
<path fill="#d27728" d="
  M 97.21 107.00
  L 94.96 118.50
  L 89.50 118.21
  L 90.29 114.00
  L 94.29 113.70
  A 1.00 1.00 0.0 0 0 95.16 113.02
  L 97.21 107.00
  Z"
/>
<path fill="#d27728" d="
  M 80.96 118.50
  L 76.79 118.25
  L 78.31 111.43
  A 1.00 0.99 88.5 0 1 79.01 110.69
  L 81.25 110.04
  A 1.00 1.00 0.0 0 1 82.50 111.21
  L 80.96 118.50
  Z"
/>
<path fill="#d27728" d="
  M 133.21 110.00
  L 133.75 112.71
  Q 133.58 112.82 133.41 112.91
  Q 131.49 113.83 132.01 111.76
  Q 132.26 110.73 133.21 110.00
  Z"
/>
<path fill="#d27728" d="
  M 138.75 113.54
  Q 141.67 114.30 144.71 114.00
  Q 144.87 116.22 143.96 118.25
  L 134.64 118.40
  A 1.01 0.99 -81.5 0 0 133.70 119.11
  L 132.67 122.50
  Q 130.23 119.82 131.22 116.77
  A 0.98 0.98 0.0 0 1 131.99 116.10
  Q 135.61 115.45 138.75 113.54
  Z"
/>
<path fill="#d27728" d="
  M 65.04 114.00
  L 72.96 114.00
  Q 72.65 116.56 71.29 118.75
  Q 68.63 117.79 65.91 118.35
  A 1.01 1.00 85.3 0 0 65.11 119.30
  L 65.05 121.38
  Q 63.73 117.30 65.04 114.00
  Z"
/>
<path fill="#ffffff" d="
  M 207.82 126.21
  L 205.03 125.53
  A 1.01 1.01 0.0 0 1 204.27 124.45
  L 204.56 121.77
  A 1.00 1.00 0.0 0 1 205.59 120.88
  L 224.42 121.48
  A 1.01 1.00 5.5 0 1 225.38 122.64
  L 225.18 123.83
  A 1.00 1.00 0.0 0 1 224.15 124.67
  L 210.00 124.08
  A 0.25 0.15 2.8 0 0 209.75 124.22
  Q 209.75 124.27 209.76 124.32
  A 0.14 0.11 3.5 0 0 209.83 124.38
  L 223.70 127.70
  A 1.00 0.99 11.4 0 1 224.45 128.82
  L 224.26 130.12
  A 1.01 1.00 4.8 0 1 223.24 130.97
  C 217.97 130.81 212.88 130.01 209.40 130.22
  Q 207.67 130.32 209.35 130.74
  L 222.89 134.06
  A 1.00 0.99 1.0 0 1 223.62 134.81
  C 224.14 137.13 222.34 136.88 220.89 136.50
  Q 212.46 134.28 204.03 132.15
  A 1.00 0.99 -78.4 0 1 203.29 131.02
  L 203.70 128.58
  A 0.99 0.99 0.0 0 1 204.70 127.75
  L 207.62 127.79
  Q 214.69 127.89 207.82 126.21
  Z"
/>
<path fill="#d27728" d="
  M 102.04 123.50
  C 107.49 130.90 118.40 132.71 125.04 125.75
  L 129.79 127.64
  Q 114.64 141.65 100.00 127.54
  C 101.78 127.45 101.66 124.50 102.04 123.50
  Z"
/>
<path fill="#d27728" d="
  M 145.54 124.50
  Q 147.32 126.52 149.33 127.33
  Q 140.25 148.89 117.01 151.69
  A 1.00 0.99 -4.4 0 0 116.13 152.71
  L 116.34 159.73
  Q 116.32 162.33 115.83 160.39
  A 1.03 1.02 -0.9 0 0 115.08 159.67
  L 112.00 158.96
  L 111.60 152.50
  A 1.01 0.99 -87.5 0 0 110.76 151.57
  Q 105.23 150.72 100.00 148.71
  C 100.65 146.34 97.39 147.01 96.11 146.90
  Q 88.29 141.83 83.37 134.11
  A 1.04 0.99 35.4 0 1 83.23 133.39
  C 83.91 129.73 86.44 130.99 87.86 133.04
  C 103.62 155.78 137.20 150.19 145.54 124.50
  Z"
/>
<path fill="#d27728" d="
  M 162.79 127.00
  L 167.21 127.50
  Q 166.74 128.32 166.89 129.14
  A 1.03 1.02 -85.4 0 0 167.53 129.90
  L 176.71 133.25
  Q 176.05 139.50 181.12 140.99
  Q 170.02 167.11 144.50 179.46
  L 146.96 173.25
  Q 167.76 161.52 176.79 139.29
  A 1.00 0.99 -68.6 0 0 176.22 137.98
  L 166.24 134.16
  A 1.01 1.00 20.6 0 0 164.94 134.74
  Q 164.52 135.88 164.01 136.90
  C 162.88 139.19 160.45 139.66 159.54 136.85
  A 1.03 1.02 -44.6 0 1 159.55 136.21
  L 162.79 127.00
  Z"
/>
<path fill="#d27728" d="
  M 48.71 127.25
  Q 49.82 131.64 51.10 136.01
  C 51.78 138.35 50.39 140.01 47.83 139.01
  A 1.01 1.01 0.0 0 1 47.23 138.33
  L 44.50 128.04
  L 48.71 127.25
  Z"
/>
<path fill="#d27728" d="
  M 66.46 127.75
  Q 70.79 143.34 83.25 153.54
  L 80.75 156.79
  L 75.51 152.17
  A 1.00 0.99 -46.9 0 0 74.13 152.22
  L 66.58 160.01
  A 1.01 1.00 -45.0 0 0 66.57 161.40
  L 68.47 163.38
  Q 68.65 163.57 68.72 163.82
  Q 69.49 166.69 66.45 167.04
  A 0.99 0.98 -25.9 0 1 65.63 166.76
  Q 58.99 160.19 53.90 152.36
  A 1.03 0.99 -58.2 0 1 53.75 151.65
  C 54.39 147.75 57.14 149.11 58.54 151.37
  Q 60.25 154.13 62.33 156.54
  A 1.01 1.00 47.1 0 0 63.80 156.60
  L 71.44 148.92
  A 0.99 0.99 0.0 0 0 71.54 147.63
  Q 64.83 138.49 62.04 127.50
  L 66.46 127.75
  Z"
/>
<path fill="#d27728" d="
  M 181.96 130.75
  Q 183.96 132.85 182.81 136.13
  C 178.14 137.22 179.54 132.12 181.96 130.75
  Z"
/>
<path fill="#ffffff" d="
  M 21.29 140.57
  L 27.34 138.98
  A 1.01 1.00 -18.4 0 1 28.53 139.57
  L 28.99 140.73
  A 1.01 1.00 -18.7 0 1 28.32 142.07
  L 10.35 146.89
  A 1.00 0.99 71.5 0 1 9.17 146.30
  Q 7.80 142.95 7.80 139.36
  A 1.03 1.02 68.9 0 1 8.11 138.65
  Q 11.85 134.98 16.89 136.42
  A 1.01 1.01 0.0 0 0 18.05 135.94
  Q 18.80 134.57 19.66 134.35
  Q 22.72 133.61 25.66 132.55
  A 1.00 1.00 0.0 0 1 26.99 133.32
  L 27.21 134.66
  A 1.00 1.00 0.0 0 1 26.50 135.79
  L 20.80 137.39
  A 1.00 0.99 -7.2 0 0 20.07 138.32
  L 20.04 139.58
  A 1.00 0.99 -6.5 0 0 21.29 140.57
  Z
  M 17.25 140.70
  C 16.70 137.86 13.20 139.29 11.58 140.01
  A 1.00 1.00 0.0 0 0 10.99 141.01
  L 11.08 142.13
  A 1.00 1.00 0.0 0 0 12.34 143.02
  L 16.54 141.86
  A 1.00 1.00 0.0 0 0 17.25 140.70
  Z"
/>
<path fill="#ffffff" d="
  M 202.69 144.30
  L 201.08 148.67
  A 0.49 0.49 0.0 0 1 200.43 148.95
  L 198.62 148.19
  A 0.49 0.49 0.0 0 1 198.35 147.57
  L 200.95 140.27
  A 0.49 0.49 0.0 0 1 201.57 139.97
  L 220.11 146.55
  A 0.49 0.49 0.0 0 1 220.41 147.17
  L 217.85 154.58
  A 0.49 0.49 0.0 0 1 217.18 154.86
  L 215.30 153.98
  A 0.49 0.49 0.0 0 1 215.04 153.37
  L 216.57 149.19
  A 0.49 0.49 0.0 0 0 216.27 148.56
  L 211.70 147.01
  A 0.49 0.49 0.0 0 0 211.08 147.33
  L 210.05 150.55
  A 0.49 0.49 0.0 0 1 209.40 150.86
  L 207.37 150.07
  A 0.49 0.49 0.0 0 1 207.10 149.42
  L 208.39 146.45
  A 0.49 0.49 0.0 0 0 208.11 145.80
  L 203.32 144.01
  A 0.49 0.49 0.0 0 0 202.69 144.30
  Z"
/>
<path fill="#ffffff" d="
  M 96.11 146.90
  C 97.39 147.01 100.65 146.34 100.00 148.71
  L 97.25 161.71
  Q 96.40 163.62 96.50 165.71
  Q 94.45 171.96 93.79 178.50
  L 92.48 183.26
  Q 97.17 186.32 103.17 189.07
  Q 107.56 191.08 112.00 190.21
  Q 112.51 190.14 112.98 190.22
  A 0.99 0.99 0.0 0 1 113.79 191.40
  Q 113.19 194.28 111.50 196.71
  Q 107.43 199.06 103.47 196.24
  Q 98.16 192.46 92.95 188.54
  Q 90.21 186.47 85.66 186.21
  A 1.00 0.99 -82.8 0 1 84.74 185.01
  L 85.71 180.25
  L 86.50 175.54
  Q 88.53 169.16 89.21 162.50
  Q 90.48 160.59 90.25 158.29
  Q 94.67 144.81 86.04 156.08
  L 85.04 160.00
  L 85.18 164.15
  A 1.01 1.00 88.6 0 1 84.20 165.19
  Q 81.34 165.24 80.47 162.76
  Q 79.67 160.53 80.75 156.79
  L 83.25 153.54
  Q 88.45 148.28 96.11 146.90
  Z"
/>
<path fill="#d27728" d="
  M 144.96 160.00
  Q 141.54 158.48 138.22 160.02
  Q 136.93 160.62 137.54 159.33
  Q 137.62 159.16 137.79 159.00
  Q 144.81 155.04 150.48 149.34
  C 152.24 147.57 154.07 146.88 155.10 150.15
  A 1.00 0.99 60.3 0 1 154.82 151.20
  L 144.96 160.00
  Z"
/>
<path fill="#ffffff" d="
  M 18.46 160.73
  L 22.89 158.68
  A 0.49 0.49 0.0 0 0 23.13 158.02
  L 21.62 154.96
  A 0.49 0.49 0.0 0 1 21.85 154.29
  L 23.72 153.45
  A 0.49 0.49 0.0 0 1 24.37 153.71
  L 25.67 156.79
  A 0.49 0.49 0.0 0 0 26.33 157.05
  L 31.01 154.89
  A 0.49 0.49 0.0 0 0 31.24 154.23
  L 29.24 150.05
  A 0.49 0.49 0.0 0 1 29.46 149.40
  L 31.17 148.54
  A 0.49 0.49 0.0 0 1 31.83 148.76
  L 35.26 155.83
  A 0.49 0.49 0.0 0 1 35.03 156.48
  L 17.22 164.96
  A 0.49 0.49 0.0 0 1 16.56 164.72
  L 13.31 157.76
  A 0.49 0.49 0.0 0 1 13.50 157.13
  L 15.16 156.14
  A 0.49 0.49 0.0 0 1 15.85 156.35
  L 17.81 160.49
  A 0.49 0.49 0.0 0 0 18.46 160.73
  Z"
/>
<path fill="#ffffff" d="
  M 137.79 159.00
  Q 137.62 159.16 137.54 159.33
  Q 136.93 160.62 138.22 160.02
  Q 141.54 158.48 144.96 160.00
  C 148.07 163.88 147.89 168.26 146.96 173.25
  L 144.50 179.46
  Q 138.73 187.06 129.25 184.71
  L 126.94 181.94
  A 1.00 0.99 45.7 0 0 125.42 181.92
  Q 121.93 185.97 116.99 185.23
  Q 114.66 184.88 113.58 182.48
  A 1.01 1.00 -34.8 0 0 111.95 182.19
  Q 109.37 184.81 105.75 185.54
  L 102.25 184.96
  Q 99.42 182.46 98.81 179.15
  C 98.24 170.57 102.17 159.80 112.00 158.96
  L 115.08 159.67
  A 1.03 1.02 -0.9 0 1 115.83 160.39
  Q 116.32 162.33 116.34 159.73
  Q 119.76 158.80 122.97 159.36
  A 1.00 1.00 0.0 0 1 123.79 160.51
  L 123.25 163.71
  L 122.29 168.25
  Q 121.11 172.96 120.22 177.75
  Q 119.64 180.90 123.56 180.74
  A 1.00 0.99 -76.9 0 0 124.40 180.21
  Q 127.50 174.37 128.21 167.50
  L 129.21 162.50
  L 131.90 150.63
  A 1.00 0.99 -86.3 0 1 132.77 149.86
  L 138.39 149.25
  A 1.00 1.00 0.0 0 1 139.48 150.44
  L 137.79 159.00
  Z
  M 111.25 163.21
  Q 105.33 169.93 106.58 179.21
  A 0.99 0.99 0.0 0 0 107.24 180.02
  C 112.66 181.93 113.81 173.83 114.46 169.25
  L 115.46 164.42
  A 1.08 1.07 35.9 0 0 115.34 163.70
  Q 113.86 161.22 111.25 163.21
  Z
  M 133.70 178.79
  C 135.25 182.19 139.27 179.46 139.75 176.79
  Q 143.06 171.85 142.15 166.26
  Q 141.24 160.72 136.75 164.05
  A 1.03 0.99 -11.7 0 0 136.38 164.59
  Q 134.50 171.56 133.70 178.79
  Z"
/>
<path fill="#d27728" d="
  M 86.04 156.08
  L 90.25 158.29
  Q 90.48 160.59 89.21 162.50
  L 85.04 160.00
  L 86.04 156.08
  Z"
/>
<path fill="#d27728" d="
  M 97.25 161.71
  C 99.11 162.25 103.31 163.22 100.47 166.20
  A 1.01 0.97 18.5 0 1 99.82 166.51
  Q 98.03 166.64 96.50 165.71
  Q 96.40 163.62 97.25 161.71
  Z"
/>
<path fill="#ffffff" d="
  M 33.84 170.30
  L 35.40 172.55
  A 0.47 0.47 0.0 0 0 36.06 172.66
  L 42.51 168.07
  A 0.47 0.47 0.0 0 1 43.17 168.19
  L 44.45 170.09
  A 0.47 0.47 0.0 0 1 44.34 170.74
  L 28.34 182.17
  A 0.47 0.47 0.0 0 1 27.67 182.05
  L 26.39 180.05
  A 0.47 0.47 0.0 0 1 26.52 179.41
  L 32.94 175.00
  A 0.47 0.47 0.0 0 0 33.05 174.34
  L 31.41 172.02
  A 0.47 0.47 0.0 0 0 30.75 171.91
  L 24.49 176.49
  A 0.47 0.47 0.0 0 1 23.86 176.42
  L 22.28 174.64
  A 0.47 0.47 0.0 0 1 22.35 173.95
  L 38.28 162.49
  A 0.47 0.47 0.0 0 1 38.88 162.54
  L 40.59 164.25
  A 0.47 0.47 0.0 0 1 40.53 164.96
  L 33.96 169.65
  A 0.47 0.47 0.0 0 0 33.84 170.30
  Z"
/>
<path fill="#d27728" d="
  M 114.46 169.25
  C 109.60 168.20 113.12 163.70 111.25 163.21
  Q 113.86 161.22 115.34 163.70
  A 1.08 1.07 35.9 0 1 115.46 164.42
  L 114.46 169.25
  Z"
/>
<path fill="#d27728" d="
  M 129.21 162.50
  L 128.21 167.50
  L 122.29 168.25
  L 123.25 163.71
  L 129.21 162.50
  Z"
/>
<path fill="#ffffff" d="
  M 206.62 175.61
  L 205.44 177.30
  A 0.59 0.59 0.0 0 1 204.61 177.44
  L 191.25 167.81
  A 0.59 0.59 0.0 0 0 190.43 167.94
  L 187.94 171.32
  A 0.59 0.59 0.0 0 1 187.11 171.44
  L 185.70 170.38
  A 0.59 0.59 0.0 0 1 185.58 169.56
  L 189.90 163.61
  A 0.59 0.59 0.0 0 1 190.72 163.47
  L 206.48 174.79
  A 0.59 0.59 0.0 0 1 206.62 175.61
  Z"
/>
<path fill="#ffffff" d="
  M 181.13 178.41
  Q 179.08 176.75 180.87 174.97
  A 1.00 0.99 -40.0 0 1 182.39 175.10
  L 193.33 190.62
  A 1.00 1.00 0.0 0 1 193.22 191.90
  L 191.09 194.04
  A 1.00 1.00 0.0 0 1 189.79 194.14
  L 174.58 182.88
  A 1.00 1.00 0.0 0 1 174.36 181.51
  Q 176.07 179.03 178.15 181.55
  A 1.01 1.01 0.0 0 0 179.67 181.59
  L 181.24 179.86
  A 1.00 1.00 0.0 0 0 181.13 178.41
  Z
  M 182.67 182.45
  L 182.05 183.07
  A 1.01 1.00 40.3 0 0 182.18 184.59
  C 182.87 185.09 188.73 189.75 188.95 189.36
  A 0.24 0.23 -48.4 0 0 188.94 189.13
  L 184.19 182.57
  A 1.00 1.00 0.0 0 0 182.67 182.45
  Z"
/>
<path fill="#d27728" d="
  M 139.75 176.79
  C 139.27 179.46 135.25 182.19 133.70 178.79
  L 139.75 176.79
  Z"
/>
<path fill="#ffffff" d="
  M 39.58 189.36
  L 50.45 178.13
  A 1.01 1.00 -47.4 0 1 51.82 178.07
  L 52.75 178.87
  A 1.01 1.00 -47.8 0 1 52.82 180.33
  L 41.86 191.59
  A 1.00 1.00 0.0 0 0 41.87 193.00
  L 42.89 194.02
  A 1.00 0.99 48.6 0 1 42.80 195.51
  L 42.00 196.14
  A 1.00 1.00 0.0 0 1 40.68 196.05
  L 35.06 190.43
  A 1.00 1.00 0.0 0 1 34.99 189.10
  Q 36.69 186.99 38.00 189.17
  A 1.01 1.00 51.8 0 0 39.58 189.36
  Z"
/>
<path fill="#d27728" d="
  M 93.79 178.50
  Q 96.26 179.90 98.81 179.15
  Q 99.42 182.46 102.25 184.96
  L 92.48 183.26
  L 93.79 178.50
  Z"
/>
<path fill="#ffffff" d="
  M 57.84 198.22
  L 55.23 196.53
  A 0.58 0.58 0.0 0 1 55.05 195.74
  L 56.07 194.09
  A 0.58 0.58 0.0 0 1 56.92 193.94
  L 59.47 195.91
  A 0.58 0.58 0.0 0 0 60.30 195.78
  L 63.12 191.69
  A 0.58 0.58 0.0 0 0 62.97 190.88
  L 59.38 188.39
  A 0.58 0.58 0.0 0 1 59.21 187.61
  L 60.10 186.13
  A 0.58 0.58 0.0 0 1 60.92 185.94
  L 67.27 190.20
  A 0.58 0.58 0.0 0 1 67.43 191.01
  L 56.40 207.13
  A 0.58 0.58 0.0 0 1 55.59 207.28
  L 49.34 202.98
  A 0.58 0.58 0.0 0 1 49.18 202.19
  L 50.19 200.65
  A 0.58 0.58 0.0 0 1 51.02 200.50
  L 54.55 203.10
  A 0.58 0.58 0.0 0 0 55.38 202.96
  L 58.01 199.03
  A 0.58 0.58 0.0 0 0 57.84 198.22
  Z"
/>
<path fill="#ffffff" d="
  M 166.38 187.47
  Q 169.58 187.07 171.36 189.66
  Q 175.64 195.91 179.84 202.25
  A 1.00 1.00 0.0 0 1 179.55 203.64
  L 178.55 204.29
  A 1.00 0.99 -33.1 0 1 177.18 204.01
  L 168.39 191.04
  A 0.98 0.98 0.0 0 0 167.63 190.60
  Q 166.03 190.51 165.51 192.06
  A 1.02 1.00 37.7 0 0 165.63 192.93
  L 174.34 205.91
  A 1.00 1.00 0.0 0 1 174.07 207.30
  L 173.18 207.90
  A 1.00 1.00 0.0 0 1 171.79 207.61
  Q 167.52 201.13 163.24 194.77
  Q 160.99 191.42 164.25 188.71
  L 166.38 187.47
  Z"
/>
<path fill="#ffffff" d="
  M 76.25 194.96
  L 79.75 196.54
  C 82.87 200.07 78.75 206.28 76.44 211.28
  C 72.50 219.84 63.50 213.71 67.72 207.26
  A 1.00 0.99 27.8 0 1 68.94 206.89
  L 69.84 207.26
  A 1.00 1.00 0.0 0 1 70.42 208.46
  L 69.73 210.86
  A 1.01 1.01 0.0 0 0 70.02 211.88
  C 71.44 213.16 72.37 212.34 73.03 210.93
  C 73.60 209.69 80.87 197.02 75.57 198.37
  A 1.05 1.03 5.8 0 0 74.91 198.90
  L 73.48 201.84
  A 1.00 0.98 -39.8 0 0 73.41 202.52
  Q 74.77 207.82 69.80 204.84
  A 1.01 1.00 27.0 0 1 69.39 203.59
  C 70.83 200.21 71.92 195.49 76.25 194.96
  Z"
/>
<path fill="#ffffff" d="
  M 151.29 195.75
  C 156.86 194.71 159.14 203.48 161.28 208.95
  C 163.65 215.02 156.97 218.54 153.18 213.85
  Q 150.77 210.87 153.72 210.00
  A 1.00 0.99 -24.3 0 1 154.85 210.42
  Q 155.27 211.09 155.43 211.89
  A 1.01 0.98 -76.4 0 0 155.76 212.45
  Q 157.41 213.86 158.67 212.01
  A 1.01 0.99 50.9 0 0 158.76 211.05
  L 153.63 199.34
  A 1.00 0.99 -9.7 0 0 152.78 198.74
  C 149.09 198.50 151.45 202.70 152.04 204.10
  A 0.99 0.99 0.0 0 0 152.91 204.71
  Q 154.38 204.78 154.66 206.35
  A 1.01 1.00 -17.1 0 1 154.08 207.43
  L 151.77 208.49
  A 1.01 1.00 -24.7 0 1 150.45 208.01
  C 148.86 204.68 145.90 199.94 149.25 196.79
  L 151.29 195.75
  Z"
/>
<path fill="#ffffff" d="
  M 139.71 200.33
  L 144.40 219.55
  A 1.00 1.00 0.0 0 1 143.59 220.78
  L 142.38 220.97
  A 1.00 0.99 78.9 0 1 141.25 220.20
  L 139.76 213.61
  A 1.00 0.98 -12.4 0 0 138.57 212.86
  L 136.89 213.23
  A 1.00 0.99 -12.9 0 0 136.13 214.43
  L 137.66 220.98
  A 1.00 1.00 0.0 0 1 136.94 222.18
  L 135.74 222.49
  A 1.00 1.00 0.0 0 1 134.51 221.74
  L 130.22 202.54
  L 133.00 201.96
  L 134.99 209.60
  A 1.01 1.01 0.0 0 0 136.16 210.33
  L 137.84 209.99
  A 1.01 1.00 -12.2 0 0 138.62 208.79
  L 136.96 201.25
  L 139.71 200.33
  Z"
/>
<path fill="#ffffff" d="
  M 92.00 200.71
  L 95.50 201.54
  C 98.99 204.89 95.68 213.16 94.68 217.32
  C 92.97 224.42 83.47 222.70 85.12 215.03
  C 86.40 209.10 87.14 201.15 92.00 200.71
  Z
  M 94.0811 205.8218
  A 1.58 1.58 0.0 0 0 92.9169 203.9145
  L 92.7420 203.8722
  A 1.58 1.58 0.0 0 0 90.8347 205.0364
  L 87.9989 216.7582
  A 1.58 1.58 0.0 0 0 89.1631 218.6655
  L 89.3380 218.7078
  A 1.58 1.58 0.0 0 0 91.2453 217.5436
  L 94.0811 205.8218
  Z"
/>
<path fill="#ffffff" d="
  M 110.21 203.75
  Q 110.43 211.51 109.20 220.45
  A 1.00 1.00 0.0 0 0 110.37 221.57
  Q 113.69 220.96 112.42 223.92
  A 1.00 1.00 0.0 0 1 111.43 224.52
  L 103.53 223.96
  A 1.01 1.01 0.0 0 1 102.61 223.12
  Q 102.14 220.18 105.01 221.12
  A 1.00 1.00 0.0 0 0 106.31 220.24
  L 107.50 203.57
  L 110.21 203.75
  Z"
/>
</svg>
