<?xml version="1.0" encoding="UTF-8" standalone="no"?>
<!DOCTYPE svg PUBLIC "-//W3C//DTD SVG 1.1//EN" "http://www.w3.org/Graphics/SVG/1.1/DTD/svg11.dtd">
<svg xmlns="http://www.w3.org/2000/svg" version="1.1" viewBox="0 0 128 119">
<g stroke-width="2.00" fill="none" stroke-linecap="butt">
<path stroke="#7f7f7f" vector-effect="non-scaling-stroke" d="
  M 118.02 46.81
  Q 116.57 45.28 118.76 43.52
  C 122.63 40.40 132.32 31.14 121.60 28.43
  C 115.70 26.93 105.96 22.40 100.26 23.44
  A 1.00 0.99 -23.9 0 1 99.29 23.07
  L 95.40 18.03
  A 0.99 0.99 0.0 0 0 94.05 17.81
  Q 89.99 20.56 86.62 24.14
  A 1.00 0.99 -46.0 0 0 86.64 25.53
  Q 87.79 26.69 88.38 28.16
  Q 90.05 32.31 86.77 29.26
  Q 83.43 26.16 82.00 21.77
  A 1.00 1.00 0.0 0 0 80.82 21.10
  L 79.25 21.48
  A 1.00 1.00 0.0 0 1 78.15 21.00
  C 75.68 16.67 71.04 13.57 66.26 15.87
  Q 63.68 17.12 63.01 19.79
  Q 62.43 22.11 63.13 24.55
  A 1.00 1.00 0.0 0 1 62.32 25.82
  L 58.77 26.35
  A 1.01 1.00 1.2 0 0 57.94 27.14
  Q 57.76 28.02 57.21 27.81
  A 0.42 0.41 -68.7 0 1 56.98 27.27
  L 58.26 24.05
  A 1.00 1.00 0.0 0 0 57.75 22.78
  L 51.89 20.04
  A 1.00 0.99 -55.5 0 0 50.74 20.26
  L 44.80 26.61
  A 0.99 0.96 -21.1 0 0 44.53 27.20
  L 44.22 30.74
  A 0.54 0.18 -85.0 0 1 44.00 31.25
  L 43.74 31.26
  A 0.79 0.03 82.7 0 1 43.61 30.48
  L 42.95 25.68
  A 1.00 1.00 0.0 0 0 41.84 24.82
  L 33.50 25.86
  A 1.02 0.99 -33.9 0 1 32.90 25.75
  C 27.03 22.61 9.64 12.90 4.59 19.55
  C -0.30 25.99 7.72 33.92 13.10 39.23
  A 1.00 0.98 -57.6 0 1 13.33 40.29
  Q 13.02 41.14 11.79 40.75"
/>
<path stroke="#7f7f7f" vector-effect="non-scaling-stroke" d="
  M 116.99 47.61
  Q 113.56 48.99 111.47 52.73
  Q 109.81 55.68 110.56 58.65
  A 1.00 1.00 0.0 0 1 109.93 59.84
  L 103.72 62.09
  A 0.99 0.97 -2.1 0 0 103.11 62.73
  Q 101.70 67.23 97.24 68.60
  A 0.65 0.65 0.0 0 0 96.79 69.30
  Q 96.85 69.67 97.25 69.96"
/>
<path stroke="#7f7f7f" vector-effect="non-scaling-stroke" d="
  M 95.04 76.00
  L 94.54 75.00"
/>
<path stroke="#7f7f7f" vector-effect="non-scaling-stroke" d="
  M 95.14 70.14
  Q 93.12 68.30 90.56 67.50
  Q 88.75 66.93 89.30 68.75
  Q 89.69 70.00 89.30 71.34
  A 1.00 0.99 -65.3 0 0 89.70 72.44
  C 96.29 76.93 92.86 82.94 88.36 87.29
  A 1.01 1.00 -39.4 0 0 88.23 88.57
  Q 89.77 90.88 87.84 92.87
  A 1.01 0.99 54.4 0 0 87.66 94.01
  Q 91.27 101.28 83.89 104.21
  A 1.10 1.06 38.7 0 1 83.33 104.26
  C 76.04 102.84 72.22 99.29 66.19 96.06
  A 1.00 0.99 -45.3 0 0 65.23 96.07
  L 53.94 102.49
  A 1.04 1.00 33.4 0 1 53.29 102.61
  Q 49.23 101.97 45.36 100.08
  Q 42.68 98.77 44.33 95.66
  L 51.27 82.56
  A 1.01 1.00 32.8 0 0 50.99 81.29
  L 41.24 73.92
  A 1.02 1.00 -68.7 0 1 40.85 73.01
  L 41.79 64.60
  Q 42.13 61.46 40.59 64.22
  Q 40.53 64.33 40.47 64.44
  C 39.52 66.17 39.88 68.73 39.29 70.75"
/>
<path stroke="#7f7f7f" vector-effect="non-scaling-stroke" d="
  M 39.07 65.18
  Q 36.26 62.25 31.46 60.25
  Q 26.16 58.05 16.93 52.04
  C 13.49 49.79 12.54 47.03 13.38 43.17
  A 1.01 0.98 34.6 0 0 13.22 42.37
  Q 12.56 41.47 11.46 42.00"
/>
<path stroke="#7e2a15" vector-effect="non-scaling-stroke" d="
  M 66.79 47.25
  Q 65.83 47.92 65.45 46.10"
/>
<path stroke="#7e4b25" vector-effect="non-scaling-stroke" d="
  M 65.45 46.10
  L 63.50 40.29"
/>
<path stroke="#7e2a15" vector-effect="non-scaling-stroke" d="
  M 63.50 40.29
  L 66.91 37.45"
/>
<path stroke="#7e4b25" vector-effect="non-scaling-stroke" d="
  M 66.91 37.45
  Q 67.07 31.72 62.40 27.98
  A 0.99 0.98 -25.2 0 0 61.78 27.76
  L 60.08 27.74
  A 1.00 1.00 0.0 0 0 59.18 28.31
  L 57.55 31.66
  Q 56.50 33.82 55.70 31.56
  Q 54.51 28.18 56.10 24.81
  A 1.02 1.01 -65.9 0 0 55.59 23.46
  L 52.09 21.95
  A 1.01 1.00 -63.1 0 0 50.82 22.37
  Q 49.27 25.07 46.58 26.73
  A 1.00 1.00 0.0 0 0 46.12 27.47
  L 45.68 31.19
  A 1.01 0.99 15.4 0 0 46.27 32.21
  Q 55.83 36.50 50.27 46.99"
/>
<path stroke="#7e2a15" vector-effect="non-scaling-stroke" d="
  M 50.27 46.99
  Q 48.59 50.24 45.31 52.70
  A 1.01 1.01 0.0 0 0 44.92 53.36
  L 44.18 58.52
  A 1.00 0.99 10.3 0 0 44.95 59.63
  L 49.94 60.75
  A 0.99 0.98 -66.6 0 0 50.99 60.33
  Q 54.08 55.67 59.32 53.70
  A 1.00 0.98 75.4 0 0 59.95 52.61
  Q 59.19 47.62 56.25 45.46"
/>
<path stroke="#7e4b25" vector-effect="non-scaling-stroke" d="
  M 56.25 45.46
  Q 55.63 44.10 55.45 42.65
  Q 55.27 41.16 56.33 42.23
  Q 56.87 42.79 57.74 42.77
  A 0.99 0.99 0.0 0 1 58.75 43.61
  L 59.04 45.50"
/>
<path stroke="#7e2a15" vector-effect="non-scaling-stroke" d="
  M 59.04 45.50
  Q 60.14 51.23 62.66 56.37
  A 1.00 1.00 0.0 0 0 63.83 56.89
  L 71.23 54.74
  A 1.01 0.98 -78.7 0 0 71.74 54.39
  Q 72.52 53.36 73.64 54.47
  A 1.01 1.01 0.0 0 0 74.46 54.76
  C 75.48 54.63 79.26 54.11 79.80 55.01
  A 0.64 0.64 0.0 0 1 79.33 55.97
  L 78.05 56.15
  Q 76.01 56.43 77.71 57.60
  Q 81.19 60.00 84.97 61.92
  Q 85.01 61.94 88.19 64.03
  C 94.17 67.95 101.05 67.25 101.32 58.83
  Q 101.44 54.87 100.21 50.71"
/>
<path stroke="#7e4b25" vector-effect="non-scaling-stroke" d="
  M 100.21 50.71
  Q 97.51 45.25 90.96 44.56
  C 90.20 44.48 89.81 44.86 89.54 45.50"
/>
<path stroke="#7e2a15" vector-effect="non-scaling-stroke" d="
  M 89.54 45.50
  Q 86.64 46.94 87.01 49.83
  A 1.00 0.99 -84.8 0 1 85.72 50.91
  L 84.10 50.40
  A 1.01 0.97 40.1 0 0 83.37 50.45
  C 81.88 51.16 78.89 53.42 77.91 50.48
  Q 76.21 45.37 73.20 42.61"
/>
<path stroke="#7e4b25" vector-effect="non-scaling-stroke" d="
  M 73.20 42.61
  Q 76.48 42.71 76.70 39.57
  A 1.00 0.96 -63.6 0 0 76.48 38.87
  L 74.76 36.75
  A 0.41 0.41 0.0 0 1 74.99 36.09
  Q 75.31 36.01 75.73 36.28
  Q 78.21 37.89 78.72 36.46
  L 80.29 32.06
  A 0.99 0.97 -51.5 0 0 80.20 31.21
  L 78.71 28.75"
/>
<path stroke="#561a41" vector-effect="non-scaling-stroke" d="
  M 78.71 28.75
  L 78.25 27.46"
/>
<path stroke="#7e4b25" vector-effect="non-scaling-stroke" d="
  M 78.25 27.46
  L 76.79 22.75"
/>
<path stroke="#7e2a15" vector-effect="non-scaling-stroke" d="
  M 76.79 22.75
  L 76.46 22.00"
/>
<path stroke="#7e4b25" vector-effect="non-scaling-stroke" d="
  M 76.46 22.00
  Q 74.66 16.57 69.28 16.84
  C 60.08 17.30 66.22 30.12 68.87 34.14
  A 1.00 1.00 0.0 0 1 68.89 35.21
  Q 68.34 36.12 68.73 36.89
  A 0.99 0.99 0.0 0 1 68.07 38.32
  Q 65.85 38.82 65.33 40.78
  Q 64.48 44.04 66.79 47.25"
/>
<path stroke="#fc7539" vector-effect="non-scaling-stroke" d="
  M 76.46 22.00
  Q 74.07 22.38 73.85 20.55
  Q 73.63 18.77 72.45 20.13
  L 71.89 20.77
  A 1.00 1.00 0.0 0 1 70.83 21.07
  Q 67.64 20.05 70.03 22.41
  A 1.01 1.00 41.3 0 1 70.12 23.72
  Q 68.02 26.51 71.17 24.99
  A 1.01 1.00 62.8 0 1 72.49 25.42
  Q 74.04 28.32 74.00 24.69
  A 1.00 0.99 77.3 0 1 74.58 23.77
  L 76.79 22.75"
/>
<path stroke="#d46566" vector-effect="non-scaling-stroke" d="
  M 78.25 27.46
  Q 74.41 25.87 75.06 28.93
  A 1.03 1.00 6.1 0 0 75.65 29.64
  L 76.96 30.20
  A 0.64 0.64 0.0 0 0 77.84 29.68
  Q 77.93 28.98 78.71 28.75"
/>
<path stroke="#fc7539" vector-effect="non-scaling-stroke" d="
  M 73.20 42.61
  L 66.79 47.25"
/>
<path stroke="#fc7539" vector-effect="non-scaling-stroke" d="
  M 89.54 45.50
  Q 92.07 48.98 95.46 51.59
  A 1.00 0.99 50.1 0 0 96.54 51.69
  Q 98.11 50.86 100.21 50.71"
/>
<path stroke="#fc7539" vector-effect="non-scaling-stroke" d="
  M 66.91 37.45
  Q 65.18 37.41 64.98 36.36
  A 0.81 0.80 -31.5 0 1 65.14 35.71
  Q 65.40 35.39 65.46 35.03
  Q 65.64 33.84 64.66 34.53
  L 63.62 35.26
  A 1.02 1.01 45.2 0 1 62.46 35.25
  Q 59.56 33.16 61.25 36.00
  A 1.01 1.00 -35.4 0 1 61.03 37.28
  L 60.74 37.52
  Q 59.56 38.51 61.05 38.90
  Q 62.48 39.28 63.50 40.29"
/>
<path stroke="#fc7539" vector-effect="non-scaling-stroke" d="
  M 65.45 46.10
  L 59.04 45.50"
/>
<path stroke="#fc7539" vector-effect="non-scaling-stroke" d="
  M 56.25 45.46
  Q 53.83 47.58 50.27 46.99"
/>
<path stroke="#561a41" vector-effect="non-scaling-stroke" d="
  M 32.29 40.50
  L 33.50 38.54"
/>
<path stroke="#7e2a15" vector-effect="non-scaling-stroke" d="
  M 33.50 38.54
  Q 36.59 34.72 41.18 32.88
  A 1.01 1.00 -13.5 0 0 41.81 31.87
  L 41.46 27.52
  A 1.00 0.99 -5.1 0 0 40.37 26.61
  L 33.16 27.29
  A 0.96 0.94 55.7 0 1 32.61 27.18
  C 25.39 23.46 4.82 12.17 4.72 24.06
  C 4.68 28.76 10.56 34.43 14.08 37.21
  A 1.00 1.00 0.0 0 0 15.34 37.19
  L 21.54 31.97
  A 1.01 1.01 0.0 0 0 21.66 30.55
  L 18.54 26.90
  Q 16.38 24.36 19.58 25.29
  Q 23.85 26.53 27.71 28.73
  A 1.00 1.00 0.0 0 1 27.80 30.41
  Q 21.10 35.20 15.30 41.05
  A 1.03 0.99 66.9 0 0 15.01 41.81
  L 15.38 48.43
  A 1.01 0.99 13.1 0 0 15.90 49.25
  L 38.65 61.81
  A 1.00 1.00 0.0 0 0 40.06 61.30
  L 43.12 53.75
  A 1.01 1.00 27.2 0 0 42.72 52.53
  C 40.42 51.07 32.53 44.20 30.73 44.04
  Q 28.91 43.89 28.60 45.48
  A 1.00 1.00 0.0 0 1 27.29 46.24
  Q 20.23 43.79 27.65 41.20
  A 1.00 1.00 0.0 0 1 28.95 41.90
  L 29.02 42.20
  A 1.01 1.00 89.5 0 0 29.76 42.93
  Q 32.24 43.51 32.29 40.50"
/>
<path stroke="#d44456" vector-effect="non-scaling-stroke" d="
  M 33.50 38.54
  Q 32.87 38.42 32.89 37.90
  A 0.64 0.64 0.0 0 0 32.15 37.23
  L 31.00 37.42
  A 1.00 0.99 -89.1 0 0 30.18 38.22
  Q 29.77 40.30 32.29 40.50"
/>
<path stroke="#561a41" vector-effect="non-scaling-stroke" d="
  M 92.75 35.29
  L 93.54 39.00"
/>
<path stroke="#7e2a15" vector-effect="non-scaling-stroke" d="
  M 93.54 39.00
  L 92.56 42.30
  A 1.00 0.99 -75.8 0 0 93.30 43.56
  Q 95.18 43.97 96.44 42.70
  C 98.59 40.53 100.54 39.15 102.91 37.36
  A 1.00 0.99 -34.2 0 1 104.36 37.63
  C 105.09 38.82 106.39 41.00 106.27 42.39
  Q 106.20 43.22 105.65 43.56
  A 0.80 0.80 0.0 0 1 104.43 42.97
  L 104.22 40.88
  A 1.00 1.00 0.0 0 0 102.72 40.12
  L 99.21 42.16
  A 1.03 0.99 79.0 0 0 98.72 42.92
  Q 98.44 45.45 100.31 46.37
  A 1.01 0.94 4.7 0 1 100.81 46.92
  C 101.93 49.98 103.52 54.33 103.43 57.58
  Q 103.41 58.31 103.66 58.97
  A 1.01 1.00 -18.7 0 0 104.89 59.57
  L 108.13 58.59
  A 1.01 1.00 82.4 0 0 108.84 57.65
  C 108.95 52.21 111.71 50.20 114.33 46.02
  Q 115.74 43.78 113.71 41.54
  L 108.54 35.85
  A 1.01 0.98 33.1 0 1 108.32 34.88
  C 108.79 33.40 107.95 28.61 105.46 29.68
  A 1.01 1.01 0.0 0 1 104.10 29.04
  L 104.00 28.68
  A 0.41 0.40 85.7 0 1 104.44 28.16
  Q 110.24 28.93 115.10 32.20
  A 1.00 1.00 0.0 0 1 115.11 33.85
  L 112.24 35.84
  A 1.01 1.00 51.8 0 0 112.07 37.33
  L 116.27 42.04
  A 0.99 0.99 0.0 0 0 117.59 42.19
  Q 122.02 39.04 124.44 34.20
  Q 125.88 31.32 122.62 30.26
  C 117.75 28.67 104.64 23.46 100.45 25.73
  A 1.00 1.00 0.0 0 0 99.95 26.83
  L 100.94 31.12
  A 1.00 0.97 60.6 0 1 100.70 32.02
  Q 99.29 33.55 97.54 34.25"
/>
<path stroke="#561a41" vector-effect="non-scaling-stroke" d="
  M 97.54 34.25
  L 97.46 33.75"
/>
<path stroke="#7e2a15" vector-effect="non-scaling-stroke" d="
  M 97.46 33.75
  L 99.04 25.64
  A 1.01 0.99 -59.2 0 0 98.84 24.82
  L 95.40 20.51
  A 1.01 1.00 -38.3 0 0 93.99 20.35
  L 89.14 24.21
  A 1.01 1.00 -40.5 0 0 89.02 25.67
  Q 91.16 27.99 90.06 31.07
  A 0.99 0.98 -54.3 0 0 90.21 32.02
  L 92.75 35.29"
/>
<path stroke="#d44456" vector-effect="non-scaling-stroke" d="
  M 97.46 33.75
  Q 95.42 35.51 92.75 35.29"
/>
<path stroke="#d44456" vector-effect="non-scaling-stroke" d="
  M 93.54 39.00
  Q 95.11 38.84 96.09 39.96
  Q 96.95 40.94 96.99 39.63
  L 97.00 39.05
  A 1.00 1.00 0.0 0 1 97.78 38.10
  C 102.23 37.09 94.76 36.69 97.54 34.25"
/>
<path stroke="#7e2a15" vector-effect="non-scaling-stroke" d="
  M 77.86 43.87
  L 79.32 49.29
  A 1.00 1.00 0.0 0 0 80.90 49.82
  L 84.75 46.79"
/>
<path stroke="#7e4b25" vector-effect="non-scaling-stroke" d="
  M 84.75 46.79
  C 87.61 44.93 91.38 42.14 91.54 38.58
  C 91.75 34.08 88.85 33.41 85.75 31.29
  C 83.25 29.57 82.08 26.30 80.84 23.61
  A 0.66 0.66 0.0 0 0 80.25 23.24
  L 79.92 23.24
  A 1.00 1.00 0.0 0 0 78.95 24.45
  Q 79.72 27.98 82.06 30.78
  A 1.05 1.02 25.8 0 1 82.30 31.44
  Q 82.24 34.69 80.18 37.24
  A 1.01 1.00 58.7 0 0 79.98 38.08
  L 80.22 39.15
  A 1.01 1.00 -14.1 0 1 79.51 40.33
  Q 76.79 41.09 77.86 43.87"
/>
<path stroke="#fc7539" vector-effect="non-scaling-stroke" d="
  M 84.75 46.79
  L 77.86 43.87"
/>
<path stroke="#7f7f7f" vector-effect="non-scaling-stroke" d="
  M 25.39 30.47
  C 26.40 29.16 18.08 25.62 24.25 30.60
  A 0.80 0.80 0.0 0 0 25.39 30.47"
/>
<path stroke="#7f7f7f" vector-effect="non-scaling-stroke" d="
  M 112.31 32.44
  Q 112.18 32.32 112.04 32.22
  Q 110.03 30.82 110.48 33.22
  Q 110.92 35.57 112.81 33.20
  A 0.41 0.41 0.0 0 0 112.73 32.61
  Q 112.52 32.46 112.31 32.44"
/>
<path stroke="#7e2a15" vector-effect="non-scaling-stroke" d="
  M 34.26 44.72
  L 43.41 50.89
  A 1.00 0.99 43.8 0 0 44.55 50.87
  Q 47.16 49.00 48.50 46.04"
/>
<path stroke="#7e4b25" vector-effect="non-scaling-stroke" d="
  M 48.50 46.04
  Q 52.62 39.69 47.39 33.71
  A 1.02 0.99 67.4 0 0 46.60 33.37
  Q 34.30 33.79 34.26 44.72"
/>
<path stroke="#fc7539" vector-effect="non-scaling-stroke" d="
  M 48.50 46.04
  C 46.73 45.67 42.69 46.70 42.00 45.04"
/>
<path stroke="#7e4b25" vector-effect="non-scaling-stroke" d="
  M 42.00 45.04
  Q 43.86 44.11 43.98 42.20
  Q 44.10 40.38 42.51 41.25
  Q 40.60 42.29 41.00 44.46"
/>
<path stroke="#fc7539" vector-effect="non-scaling-stroke" d="
  M 41.00 44.46
  Q 38.17 43.96 34.26 44.72"
/>
<path stroke="#7e2a15" vector-effect="non-scaling-stroke" d="
  M 42.00 45.04
  L 41.00 44.46"
/>
<path stroke="#7f7f7f" vector-effect="non-scaling-stroke" d="
  M 26.98 43.24
  C 24.77 42.96 27.64 45.21 27.54 43.83
  A 0.64 0.63 -89.0 0 0 26.98 43.24"
/>
<path stroke="#7f7f7f" vector-effect="non-scaling-stroke" d="
  M 97.42 44.13
  C 94.63 43.19 97.64 46.59 97.77 44.65
  A 0.52 0.52 0.0 0 0 97.42 44.13"
/>
<path stroke="#7f7f7f" vector-effect="non-scaling-stroke" d="
  M 71.66 59.94
  L 75.55 60.44
  Q 78.39 60.81 76.15 59.02
  L 73.30 56.76
  A 1.00 0.99 55.9 0 0 72.39 56.58
  L 63.32 59.27
  A 1.01 1.00 -29.0 0 1 62.29 58.98
  Q 61.14 57.70 60.44 56.11
  A 1.01 1.00 64.8 0 0 59.08 55.61
  Q 55.89 57.20 53.69 59.95
  Q 52.55 61.38 54.36 61.57
  L 54.67 61.61
  A 0.97 0.97 0.0 0 1 55.45 62.15
  L 57.93 67.11
  A 1.00 1.00 0.0 0 0 59.02 67.64
  L 65.69 66.29
  A 1.00 0.99 -76.0 0 0 66.28 65.93
  Q 67.81 63.99 70.06 63.07
  A 0.99 0.99 0.0 0 0 70.67 62.00
  L 70.54 61.07
  A 1.00 1.00 0.0 0 1 71.66 59.94"
/>
<path stroke="#026667" vector-effect="non-scaling-stroke" d="
  M 70.64 90.33
  L 66.00 86.78
  A 1.00 1.00 0.0 0 0 65.12 86.62
  L 60.58 87.89
  Q 58.73 88.41 59.67 86.73
  L 60.55 85.13
  A 1.00 1.00 0.0 0 0 60.43 83.99
  C 58.58 81.86 55.65 78.18 59.02 76.11
  A 0.99 0.99 0.0 0 0 59.40 74.85
  L 54.44 63.96
  A 1.00 0.99 -6.4 0 0 53.73 63.40
  L 45.25 61.61
  A 1.01 1.01 0.0 0 0 44.04 62.50
  L 43.14 72.14
  A 1.01 1.01 0.0 0 0 43.53 73.03
  L 53.88 80.97
  A 1.01 1.00 -56.5 0 1 54.14 82.26
  L 45.78 96.85
  A 0.99 0.99 0.0 0 0 46.32 98.29
  L 52.64 100.44
  A 1.03 1.02 -49.9 0 0 53.45 100.37
  L 65.26 93.78
  A 1.01 1.00 -42.6 0 1 66.31 93.82
  C 71.46 97.29 79.27 103.93 85.85 101.82
  A 0.98 0.97 87.1 0 0 86.52 101.07
  C 87.65 95.45 82.70 89.30 80.61 84.10
  A 1.02 1.01 -18.8 0 0 79.40 83.51
  L 72.38 85.51
  A 1.00 0.99 -13.7 0 0 71.67 86.67
  L 72.23 89.33
  Q 72.78 91.96 70.64 90.33"
/>
<path stroke="#026667" vector-effect="non-scaling-stroke" d="
  M 73.28 62.85
  C 77.95 66.55 78.26 69.07 76.09 74.77
  Q 76.00 75.00 76.03 75.25
  L 76.83 81.50
  A 1.00 1.00 0.0 0 0 78.13 82.32
  L 80.35 81.60
  A 1.01 0.99 68.2 0 1 81.56 82.13
  L 85.27 90.01
  Q 86.20 91.98 86.49 89.82
  Q 86.65 88.59 85.88 87.42
  A 1.00 0.99 56.0 0 1 86.14 86.06
  C 90.00 83.33 95.25 76.71 88.20 73.17
  A 1.01 1.01 0.0 0 1 87.65 72.21
  C 88.12 64.83 80.37 62.69 74.25 61.74
  Q 73.89 61.69 73.62 61.71
  Q 72.03 61.86 73.28 62.85"
/>
<path stroke="#37787d" vector-effect="non-scaling-stroke" d="
  M 64.75 69.92
  L 64.75 69.33
  A 1.00 1.00 0.0 0 0 63.46 68.37
  L 60.25 69.35
  A 1.01 1.00 69.6 0 0 59.63 70.72
  L 61.23 74.29
  A 0.98 0.97 -6.8 0 0 61.96 74.86
  C 62.62 74.99 69.32 75.53 68.47 76.86
  A 0.80 0.80 0.0 0 1 67.65 77.21
  L 62.34 76.24
  Q 62.08 76.19 61.83 76.28
  Q 57.21 77.89 59.98 81.18
  C 61.85 83.40 62.93 85.12 65.58 84.87
  A 0.96 0.96 0.0 0 1 66.25 85.05
  L 68.67 86.75
  Q 70.06 87.73 69.66 86.08
  L 69.57 85.71
  A 1.00 1.00 0.0 0 1 70.26 84.52
  L 74.27 83.32
  A 1.01 1.00 -15.4 0 0 74.95 82.13
  L 74.79 81.45
  A 1.00 0.99 -15.0 0 0 73.53 80.73
  Q 72.76 80.96 72.40 80.40
  A 0.66 0.63 -55.2 0 1 72.32 79.87
  C 73.79 74.98 77.22 69.09 72.90 64.51
  A 0.99 0.99 0.0 0 0 71.89 64.24
  Q 67.39 65.55 66.08 69.68
  C 66.02 69.86 65.61 70.33 65.47 70.39
  A 0.52 0.51 -11.7 0 1 64.75 69.92"
/>
<path stroke="#fdcaa4" vector-effect="non-scaling-stroke" d="
  M 77.52 34.16
  Q 78.18 34.87 78.89 34.09
  A 0.82 0.81 50.1 0 0 78.97 33.12
  Q 78.42 32.27 77.57 33.02
  A 0.80 0.79 47.7 0 0 77.52 34.16"
/>
<path stroke="#d44456" vector-effect="non-scaling-stroke" d="
  M 25.81 36.40
  L 25.74 36.07
  Q 25.48 34.68 24.61 35.79
  Q 24.25 36.26 23.68 36.27
  A 0.81 0.81 0.0 0 0 22.90 37.13
  L 22.98 38.36
  A 1.01 0.99 2.9 0 0 23.82 39.28
  L 25.19 39.50
  A 1.01 1.00 22.9 0 0 26.14 39.12
  Q 27.08 37.91 26.08 36.93
  A 0.97 0.96 -72.4 0 1 25.81 36.40"
/>
<path stroke="#d44456" vector-effect="non-scaling-stroke" d="
  M 95.12 29.35
  Q 94.76 30.01 95.15 30.64
  Q 97.02 33.65 97.00 30.10
  L 96.99 29.82
  Q 96.97 25.97 95.12 29.35"
/>
<path stroke="#7e4b25" vector-effect="non-scaling-stroke" d="
  M 85.06 34.68
  Q 83.25 33.49 83.85 35.57
  L 84.02 36.15
  Q 84.46 37.68 85.43 36.41
  Q 86.18 35.42 85.06 34.68"
/>
<path stroke="#fc7539" vector-effect="non-scaling-stroke" d="
  M 38.23 39.00
  Q 37.78 39.15 38.16 39.55
  A 0.69 0.66 64.7 0 0 38.68 39.75
  Q 39.35 39.69 39.78 40.09
  A 0.79 0.79 0.0 0 0 40.95 40.02
  L 41.72 39.07
  A 1.01 1.00 -43.7 0 0 41.75 37.85
  L 41.16 37.03
  A 0.99 0.98 -21.3 0 0 40.24 36.63
  Q 38.46 36.83 38.66 38.31
  A 0.65 0.65 0.0 0 1 38.23 39.00"
/>
<path stroke="#561a41" vector-effect="non-scaling-stroke" d="
  M 42.04 42.71
  C 41.94 45.40 43.87 42.07 42.49 42.22
  A 0.51 0.50 -2.6 0 0 42.04 42.71"
/>
<path stroke="#03bfb7" vector-effect="non-scaling-stroke" d="
  M 48.10 65.02
  Q 46.03 63.77 46.75 65.86
  A 0.99 0.99 0.0 0 1 46.45 66.95
  Q 46.27 67.11 46.12 67.27
  Q 44.61 68.91 46.83 68.95
  Q 47.53 68.97 47.82 69.55
  A 0.80 0.80 0.0 0 0 49.17 69.69
  Q 50.04 68.56 51.65 69.19
  Q 52.87 69.67 52.29 68.49
  Q 52.16 68.21 51.73 67.93
  Q 50.57 67.16 50.74 65.55
  Q 50.89 63.98 49.53 64.78
  L 49.12 65.02
  A 1.01 1.01 0.0 0 1 48.10 65.02"
/>
<path stroke="#81e4e6" vector-effect="non-scaling-stroke" d="
  M 48.3686 73.2131
  A 1.08 0.88 63.1 0 0 48.6648 71.8519
  A 1.08 0.88 63.1 0 0 47.3914 71.2869
  A 1.08 0.88 63.1 0 0 47.0952 72.6481
  A 1.08 0.88 63.1 0 0 48.3686 73.2131"
/>
<path stroke="#03bfb7" vector-effect="non-scaling-stroke" d="
  M 78.70 95.09
  L 78.40 95.32
  A 1.00 1.00 0.0 0 0 78.46 96.95
  Q 79.27 97.47 79.79 98.30
  A 0.80 0.79 -43.1 0 0 81.12 98.34
  L 81.30 98.08
  A 0.81 0.81 0.0 0 1 82.28 97.81
  C 84.30 98.72 83.59 97.11 83.19 96.36
  Q 82.81 95.62 82.89 94.77
  A 0.80 0.80 0.0 0 0 81.87 93.93
  Q 80.83 94.23 80.15 93.12
  Q 78.97 91.17 78.97 93.45
  Q 78.97 93.72 79.05 94.01
  A 1.00 0.99 -27.1 0 1 78.70 95.09"
/>
<path stroke="#026667" vector-effect="non-scaling-stroke" d="
  M 80.24 71.53
  Q 77.88 68.34 78.19 71.63
  A 1.07 1.03 20.7 0 0 78.48 72.24
  L 80.82 74.58
  A 0.66 0.65 -29.4 0 0 81.44 74.75
  C 82.90 74.37 81.37 72.23 80.58 71.82
  Q 80.38 71.71 80.24 71.53"
/>
<path stroke="#03bfb7" vector-effect="non-scaling-stroke" d="
  M 84.10 76.42
  Q 86.32 76.12 85.05 74.17
  A 1.00 1.00 0.0 0 0 83.59 73.94
  Q 82.93 74.46 82.96 75.47
  A 1.00 1.00 0.0 0 0 84.10 76.42"
/>
<path stroke="#026667" vector-effect="non-scaling-stroke" d="
  M 84.53 79.98
  A 1.00 1.00 0.0 0 0 84.04 78.50
  C 80.84 77.32 82.35 83.36 84.53 79.98"
/>
<path stroke="#37787d" vector-effect="non-scaling-stroke" d="
  M 67.6419 80.8546
  A 1.03 0.76 45.5 0 0 67.4621 79.5873
  A 1.03 0.76 45.5 0 0 66.1981 79.3854
  A 1.03 0.76 45.5 0 0 66.3779 80.6527
  A 1.03 0.76 45.5 0 0 67.6419 80.8546"
/>
</g>
<path fill="#fdfdfe" d="
  M 118.02 46.81
  Q 116.57 45.28 118.76 43.52
  C 122.63 40.40 132.32 31.14 121.60 28.43
  C 115.70 26.93 105.96 22.40 100.26 23.44
  A 1.00 0.99 -23.9 0 1 99.29 23.07
  L 95.40 18.03
  A 0.99 0.99 0.0 0 0 94.05 17.81
  Q 89.99 20.56 86.62 24.14
  A 1.00 0.99 -46.0 0 0 86.64 25.53
  Q 87.79 26.69 88.38 28.16
  Q 90.05 32.31 86.77 29.26
  Q 83.43 26.16 82.00 21.77
  A 1.00 1.00 0.0 0 0 80.82 21.10
  L 79.25 21.48
  A 1.00 1.00 0.0 0 1 78.15 21.00
  C 75.68 16.67 71.04 13.57 66.26 15.87
  Q 63.68 17.12 63.01 19.79
  Q 62.43 22.11 63.13 24.55
  A 1.00 1.00 0.0 0 1 62.32 25.82
  L 58.77 26.35
  A 1.01 1.00 1.2 0 0 57.94 27.14
  Q 57.76 28.02 57.21 27.81
  A 0.42 0.41 -68.7 0 1 56.98 27.27
  L 58.26 24.05
  A 1.00 1.00 0.0 0 0 57.75 22.78
  L 51.89 20.04
  A 1.00 0.99 -55.5 0 0 50.74 20.26
  L 44.80 26.61
  A 0.99 0.96 -21.1 0 0 44.53 27.20
  L 44.22 30.74
  A 0.54 0.18 -85.0 0 1 44.00 31.25
  L 43.74 31.26
  A 0.79 0.03 82.7 0 1 43.61 30.48
  L 42.95 25.68
  A 1.00 1.00 0.0 0 0 41.84 24.82
  L 33.50 25.86
  A 1.02 0.99 -33.9 0 1 32.90 25.75
  C 27.03 22.61 9.64 12.90 4.59 19.55
  C -0.30 25.99 7.72 33.92 13.10 39.23
  A 1.00 0.98 -57.6 0 1 13.33 40.29
  Q 13.02 41.14 11.79 40.75
  Q 8.14 36.16 4.06 31.94
  C -0.06 27.69 0.59 17.00 7.63 15.60
  C 13.99 14.34 27.72 20.97 33.41 24.12
  A 1.02 1.01 -36.6 0 0 34.11 24.22
  C 37.03 23.58 41.24 22.82 43.98 24.17
  A 1.00 0.99 -53.0 0 0 45.08 24.01
  L 48.08 21.35
  A 1.05 1.00 -15.9 0 0 48.39 20.82
  Q 49.10 17.57 51.97 18.30
  Q 54.32 18.91 59.18 21.95
  A 1.00 1.00 0.0 0 0 60.69 21.33
  Q 61.96 15.68 66.93 14.04
  C 71.63 12.48 76.19 14.97 78.61 19.04
  A 1.01 0.99 -19.4 0 0 79.62 19.51
  Q 83.21 18.97 84.17 21.99
  A 1.00 1.00 0.0 0 0 85.85 22.38
  Q 89.01 19.09 92.95 16.69
  Q 95.04 15.42 96.60 17.17
  L 100.12 21.11
  A 1.00 0.99 -26.0 0 0 101.04 21.42
  Q 103.07 21.07 105.25 21.74
  Q 114.87 24.71 124.46 27.79
  Q 127.01 28.61 127.44 31.25
  C 128.42 37.30 122.81 41.91 118.02 46.81
  Z"
/>
<path fill="#000000" d="
  M 118.02 46.81
  Q 121.75 46.17 124.59 48.09
  A 0.81 0.80 29.1 0 1 124.88 49.08
  Q 124.43 50.08 123.67 49.31
  A 1.03 1.01 67.2 0 0 122.95 49.01
  C 120.66 49.03 125.46 50.52 123.74 51.90
  A 0.81 0.80 -42.6 0 1 122.70 51.86
  L 120.98 50.30
  A 0.64 0.63 -34.2 0 1 121.19 49.23
  Q 121.99 48.94 121.19 48.38
  C 120.42 47.85 118.11 47.89 116.99 47.61
  Q 113.56 48.99 111.47 52.73
  Q 109.81 55.68 110.56 58.65
  A 1.00 1.00 0.0 0 1 109.93 59.84
  L 103.72 62.09
  A 0.99 0.97 -2.1 0 0 103.11 62.73
  Q 101.70 67.23 97.24 68.60
  A 0.65 0.65 0.0 0 0 96.79 69.30
  Q 96.85 69.67 97.25 69.96
  C 95.97 70.56 97.44 74.08 95.04 76.00
  L 94.54 75.00
  Q 96.00 72.96 95.14 70.14
  Q 93.12 68.30 90.56 67.50
  Q 88.75 66.93 89.30 68.75
  Q 89.69 70.00 89.30 71.34
  A 1.00 0.99 -65.3 0 0 89.70 72.44
  C 96.29 76.93 92.86 82.94 88.36 87.29
  A 1.01 1.00 -39.4 0 0 88.23 88.57
  Q 89.77 90.88 87.84 92.87
  A 1.01 0.99 54.4 0 0 87.66 94.01
  Q 91.27 101.28 83.89 104.21
  A 1.10 1.06 38.7 0 1 83.33 104.26
  C 76.04 102.84 72.22 99.29 66.19 96.06
  A 1.00 0.99 -45.3 0 0 65.23 96.07
  L 53.94 102.49
  A 1.04 1.00 33.4 0 1 53.29 102.61
  Q 49.23 101.97 45.36 100.08
  Q 42.68 98.77 44.33 95.66
  L 51.27 82.56
  A 1.01 1.00 32.8 0 0 50.99 81.29
  L 41.24 73.92
  A 1.02 1.00 -68.7 0 1 40.85 73.01
  L 41.79 64.60
  Q 42.13 61.46 40.59 64.22
  Q 40.53 64.33 40.47 64.44
  C 39.52 66.17 39.88 68.73 39.29 70.75
  C 38.15 68.65 39.27 67.20 39.07 65.18
  Q 36.26 62.25 31.46 60.25
  Q 26.16 58.05 16.93 52.04
  C 13.49 49.79 12.54 47.03 13.38 43.17
  A 1.01 0.98 34.6 0 0 13.22 42.37
  Q 12.56 41.47 11.46 42.00
  Q 10.92 41.49 11.79 40.75
  Q 13.02 41.14 13.33 40.29
  A 1.00 0.98 -57.6 0 0 13.10 39.23
  C 7.72 33.92 -0.30 25.99 4.59 19.55
  C 9.64 12.90 27.03 22.61 32.90 25.75
  A 1.02 0.99 -33.9 0 0 33.50 25.86
  L 41.84 24.82
  A 1.00 1.00 0.0 0 1 42.95 25.68
  L 43.61 30.48
  A 0.79 0.03 82.7 0 0 43.74 31.26
  L 44.00 31.25
  A 0.54 0.18 -85.0 0 0 44.22 30.74
  L 44.53 27.20
  A 0.99 0.96 -21.1 0 1 44.80 26.61
  L 50.74 20.26
  A 1.00 0.99 -55.5 0 1 51.89 20.04
  L 57.75 22.78
  A 1.00 1.00 0.0 0 1 58.26 24.05
  L 56.98 27.27
  A 0.42 0.41 -68.7 0 0 57.21 27.81
  Q 57.76 28.02 57.94 27.14
  A 1.01 1.00 1.2 0 1 58.77 26.35
  L 62.32 25.82
  A 1.00 1.00 0.0 0 0 63.13 24.55
  Q 62.43 22.11 63.01 19.79
  Q 63.68 17.12 66.26 15.87
  C 71.04 13.57 75.68 16.67 78.15 21.00
  A 1.00 1.00 0.0 0 0 79.25 21.48
  L 80.82 21.10
  A 1.00 1.00 0.0 0 1 82.00 21.77
  Q 83.43 26.16 86.77 29.26
  Q 90.05 32.31 88.38 28.16
  Q 87.79 26.69 86.64 25.53
  A 1.00 0.99 -46.0 0 1 86.62 24.14
  Q 89.99 20.56 94.05 17.81
  A 0.99 0.99 0.0 0 1 95.40 18.03
  L 99.29 23.07
  A 1.00 0.99 -23.9 0 0 100.26 23.44
  C 105.96 22.40 115.70 26.93 121.60 28.43
  C 132.32 31.14 122.63 40.40 118.76 43.52
  Q 116.57 45.28 118.02 46.81
  Z
  M 66.79 47.25
  Q 65.83 47.92 65.45 46.10
  L 63.50 40.29
  L 66.91 37.45
  Q 67.07 31.72 62.40 27.98
  A 0.99 0.98 -25.2 0 0 61.78 27.76
  L 60.08 27.74
  A 1.00 1.00 0.0 0 0 59.18 28.31
  L 57.55 31.66
  Q 56.50 33.82 55.70 31.56
  Q 54.51 28.18 56.10 24.81
  A 1.02 1.01 -65.9 0 0 55.59 23.46
  L 52.09 21.95
  A 1.01 1.00 -63.1 0 0 50.82 22.37
  Q 49.27 25.07 46.58 26.73
  A 1.00 1.00 0.0 0 0 46.12 27.47
  L 45.68 31.19
  A 1.01 0.99 15.4 0 0 46.27 32.21
  Q 55.83 36.50 50.27 46.99
  Q 48.59 50.24 45.31 52.70
  A 1.01 1.01 0.0 0 0 44.92 53.36
  L 44.18 58.52
  A 1.00 0.99 10.3 0 0 44.95 59.63
  L 49.94 60.75
  A 0.99 0.98 -66.6 0 0 50.99 60.33
  Q 54.08 55.67 59.32 53.70
  A 1.00 0.98 75.4 0 0 59.95 52.61
  Q 59.19 47.62 56.25 45.46
  Q 55.63 44.10 55.45 42.65
  Q 55.27 41.16 56.33 42.23
  Q 56.87 42.79 57.74 42.77
  A 0.99 0.99 0.0 0 1 58.75 43.61
  L 59.04 45.50
  Q 60.14 51.23 62.66 56.37
  A 1.00 1.00 0.0 0 0 63.83 56.89
  L 71.23 54.74
  A 1.01 0.98 -78.7 0 0 71.74 54.39
  Q 72.52 53.36 73.64 54.47
  A 1.01 1.01 0.0 0 0 74.46 54.76
  C 75.48 54.63 79.26 54.11 79.80 55.01
  A 0.64 0.64 0.0 0 1 79.33 55.97
  L 78.05 56.15
  Q 76.01 56.43 77.71 57.60
  Q 81.19 60.00 84.97 61.92
  Q 85.01 61.94 88.19 64.03
  C 94.17 67.95 101.05 67.25 101.32 58.83
  Q 101.44 54.87 100.21 50.71
  Q 97.51 45.25 90.96 44.56
  C 90.20 44.48 89.81 44.86 89.54 45.50
  Q 86.64 46.94 87.01 49.83
  A 1.00 0.99 -84.8 0 1 85.72 50.91
  L 84.10 50.40
  A 1.01 0.97 40.1 0 0 83.37 50.45
  C 81.88 51.16 78.89 53.42 77.91 50.48
  Q 76.21 45.37 73.20 42.61
  Q 76.48 42.71 76.70 39.57
  A 1.00 0.96 -63.6 0 0 76.48 38.87
  L 74.76 36.75
  A 0.41 0.41 0.0 0 1 74.99 36.09
  Q 75.31 36.01 75.73 36.28
  Q 78.21 37.89 78.72 36.46
  L 80.29 32.06
  A 0.99 0.97 -51.5 0 0 80.20 31.21
  L 78.71 28.75
  L 78.25 27.46
  L 76.79 22.75
  L 76.46 22.00
  Q 74.66 16.57 69.28 16.84
  C 60.08 17.30 66.22 30.12 68.87 34.14
  A 1.00 1.00 0.0 0 1 68.89 35.21
  Q 68.34 36.12 68.73 36.89
  A 0.99 0.99 0.0 0 1 68.07 38.32
  Q 65.85 38.82 65.33 40.78
  Q 64.48 44.04 66.79 47.25
  Z
  M 32.29 40.50
  L 33.50 38.54
  Q 36.59 34.72 41.18 32.88
  A 1.01 1.00 -13.5 0 0 41.81 31.87
  L 41.46 27.52
  A 1.00 0.99 -5.1 0 0 40.37 26.61
  L 33.16 27.29
  A 0.96 0.94 55.7 0 1 32.61 27.18
  C 25.39 23.46 4.82 12.17 4.72 24.06
  C 4.68 28.76 10.56 34.43 14.08 37.21
  A 1.00 1.00 0.0 0 0 15.34 37.19
  L 21.54 31.97
  A 1.01 1.01 0.0 0 0 21.66 30.55
  L 18.54 26.90
  Q 16.38 24.36 19.58 25.29
  Q 23.85 26.53 27.71 28.73
  A 1.00 1.00 0.0 0 1 27.80 30.41
  Q 21.10 35.20 15.30 41.05
  A 1.03 0.99 66.9 0 0 15.01 41.81
  L 15.38 48.43
  A 1.01 0.99 13.1 0 0 15.90 49.25
  L 38.65 61.81
  A 1.00 1.00 0.0 0 0 40.06 61.30
  L 43.12 53.75
  A 1.01 1.00 27.2 0 0 42.72 52.53
  C 40.42 51.07 32.53 44.20 30.73 44.04
  Q 28.91 43.89 28.60 45.48
  A 1.00 1.00 0.0 0 1 27.29 46.24
  Q 20.23 43.79 27.65 41.20
  A 1.00 1.00 0.0 0 1 28.95 41.90
  L 29.02 42.20
  A 1.01 1.00 89.5 0 0 29.76 42.93
  Q 32.24 43.51 32.29 40.50
  Z
  M 92.75 35.29
  L 93.54 39.00
  L 92.56 42.30
  A 1.00 0.99 -75.8 0 0 93.30 43.56
  Q 95.18 43.97 96.44 42.70
  C 98.59 40.53 100.54 39.15 102.91 37.36
  A 1.00 0.99 -34.2 0 1 104.36 37.63
  C 105.09 38.82 106.39 41.00 106.27 42.39
  Q 106.20 43.22 105.65 43.56
  A 0.80 0.80 0.0 0 1 104.43 42.97
  L 104.22 40.88
  A 1.00 1.00 0.0 0 0 102.72 40.12
  L 99.21 42.16
  A 1.03 0.99 79.0 0 0 98.72 42.92
  Q 98.44 45.45 100.31 46.37
  A 1.01 0.94 4.7 0 1 100.81 46.92
  C 101.93 49.98 103.52 54.33 103.43 57.58
  Q 103.41 58.31 103.66 58.97
  A 1.01 1.00 -18.7 0 0 104.89 59.57
  L 108.13 58.59
  A 1.01 1.00 82.4 0 0 108.84 57.65
  C 108.95 52.21 111.71 50.20 114.33 46.02
  Q 115.74 43.78 113.71 41.54
  L 108.54 35.85
  A 1.01 0.98 33.1 0 1 108.32 34.88
  C 108.79 33.40 107.95 28.61 105.46 29.68
  A 1.01 1.01 0.0 0 1 104.10 29.04
  L 104.00 28.68
  A 0.41 0.40 85.7 0 1 104.44 28.16
  Q 110.24 28.93 115.10 32.20
  A 1.00 1.00 0.0 0 1 115.11 33.85
  L 112.24 35.84
  A 1.01 1.00 51.8 0 0 112.07 37.33
  L 116.27 42.04
  A 0.99 0.99 0.0 0 0 117.59 42.19
  Q 122.02 39.04 124.44 34.20
  Q 125.88 31.32 122.62 30.26
  C 117.75 28.67 104.64 23.46 100.45 25.73
  A 1.00 1.00 0.0 0 0 99.95 26.83
  L 100.94 31.12
  A 1.00 0.97 60.6 0 1 100.70 32.02
  Q 99.29 33.55 97.54 34.25
  L 97.46 33.75
  L 99.04 25.64
  A 1.01 0.99 -59.2 0 0 98.84 24.82
  L 95.40 20.51
  A 1.01 1.00 -38.3 0 0 93.99 20.35
  L 89.14 24.21
  A 1.01 1.00 -40.5 0 0 89.02 25.67
  Q 91.16 27.99 90.06 31.07
  A 0.99 0.98 -54.3 0 0 90.21 32.02
  L 92.75 35.29
  Z
  M 77.86 43.87
  L 79.32 49.29
  A 1.00 1.00 0.0 0 0 80.90 49.82
  L 84.75 46.79
  C 87.61 44.93 91.38 42.14 91.54 38.58
  C 91.75 34.08 88.85 33.41 85.75 31.29
  C 83.25 29.57 82.08 26.30 80.84 23.61
  A 0.66 0.66 0.0 0 0 80.25 23.24
  L 79.92 23.24
  A 1.00 1.00 0.0 0 0 78.95 24.45
  Q 79.72 27.98 82.06 30.78
  A 1.05 1.02 25.8 0 1 82.30 31.44
  Q 82.24 34.69 80.18 37.24
  A 1.01 1.00 58.7 0 0 79.98 38.08
  L 80.22 39.15
  A 1.01 1.00 -14.1 0 1 79.51 40.33
  Q 76.79 41.09 77.86 43.87
  Z
  M 25.39 30.47
  C 26.40 29.16 18.08 25.62 24.25 30.60
  A 0.80 0.80 0.0 0 0 25.39 30.47
  Z
  M 112.31 32.44
  Q 112.18 32.32 112.04 32.22
  Q 110.03 30.82 110.48 33.22
  Q 110.92 35.57 112.81 33.20
  A 0.41 0.41 0.0 0 0 112.73 32.61
  Q 112.52 32.46 112.31 32.44
  Z
  M 34.26 44.72
  L 43.41 50.89
  A 1.00 0.99 43.8 0 0 44.55 50.87
  Q 47.16 49.00 48.50 46.04
  Q 52.62 39.69 47.39 33.71
  A 1.02 0.99 67.4 0 0 46.60 33.37
  Q 34.30 33.79 34.26 44.72
  Z
  M 26.98 43.24
  C 24.77 42.96 27.64 45.21 27.54 43.83
  A 0.64 0.63 -89.0 0 0 26.98 43.24
  Z
  M 97.42 44.13
  C 94.63 43.19 97.64 46.59 97.77 44.65
  A 0.52 0.52 0.0 0 0 97.42 44.13
  Z
  M 71.66 59.94
  L 75.55 60.44
  Q 78.39 60.81 76.15 59.02
  L 73.30 56.76
  A 1.00 0.99 55.9 0 0 72.39 56.58
  L 63.32 59.27
  A 1.01 1.00 -29.0 0 1 62.29 58.98
  Q 61.14 57.70 60.44 56.11
  A 1.01 1.00 64.8 0 0 59.08 55.61
  Q 55.89 57.20 53.69 59.95
  Q 52.55 61.38 54.36 61.57
  L 54.67 61.61
  A 0.97 0.97 0.0 0 1 55.45 62.15
  L 57.93 67.11
  A 1.00 1.00 0.0 0 0 59.02 67.64
  L 65.69 66.29
  A 1.00 0.99 -76.0 0 0 66.28 65.93
  Q 67.81 63.99 70.06 63.07
  A 0.99 0.99 0.0 0 0 70.67 62.00
  L 70.54 61.07
  A 1.00 1.00 0.0 0 1 71.66 59.94
  Z
  M 70.64 90.33
  L 66.00 86.78
  A 1.00 1.00 0.0 0 0 65.12 86.62
  L 60.58 87.89
  Q 58.73 88.41 59.67 86.73
  L 60.55 85.13
  A 1.00 1.00 0.0 0 0 60.43 83.99
  C 58.58 81.86 55.65 78.18 59.02 76.11
  A 0.99 0.99 0.0 0 0 59.40 74.85
  L 54.44 63.96
  A 1.00 0.99 -6.4 0 0 53.73 63.40
  L 45.25 61.61
  A 1.01 1.01 0.0 0 0 44.04 62.50
  L 43.14 72.14
  A 1.01 1.01 0.0 0 0 43.53 73.03
  L 53.88 80.97
  A 1.01 1.00 -56.5 0 1 54.14 82.26
  L 45.78 96.85
  A 0.99 0.99 0.0 0 0 46.32 98.29
  L 52.64 100.44
  A 1.03 1.02 -49.9 0 0 53.45 100.37
  L 65.26 93.78
  A 1.01 1.00 -42.6 0 1 66.31 93.82
  C 71.46 97.29 79.27 103.93 85.85 101.82
  A 0.98 0.97 87.1 0 0 86.52 101.07
  C 87.65 95.45 82.70 89.30 80.61 84.10
  A 1.02 1.01 -18.8 0 0 79.40 83.51
  L 72.38 85.51
  A 1.00 0.99 -13.7 0 0 71.67 86.67
  L 72.23 89.33
  Q 72.78 91.96 70.64 90.33
  Z
  M 73.28 62.85
  C 77.95 66.55 78.26 69.07 76.09 74.77
  Q 76.00 75.00 76.03 75.25
  L 76.83 81.50
  A 1.00 1.00 0.0 0 0 78.13 82.32
  L 80.35 81.60
  A 1.01 0.99 68.2 0 1 81.56 82.13
  L 85.27 90.01
  Q 86.20 91.98 86.49 89.82
  Q 86.65 88.59 85.88 87.42
  A 1.00 0.99 56.0 0 1 86.14 86.06
  C 90.00 83.33 95.25 76.71 88.20 73.17
  A 1.01 1.01 0.0 0 1 87.65 72.21
  C 88.12 64.83 80.37 62.69 74.25 61.74
  Q 73.89 61.69 73.62 61.71
  Q 72.03 61.86 73.28 62.85
  Z
  M 64.75 69.92
  L 64.75 69.33
  A 1.00 1.00 0.0 0 0 63.46 68.37
  L 60.25 69.35
  A 1.01 1.00 69.6 0 0 59.63 70.72
  L 61.23 74.29
  A 0.98 0.97 -6.8 0 0 61.96 74.86
  C 62.62 74.99 69.32 75.53 68.47 76.86
  A 0.80 0.80 0.0 0 1 67.65 77.21
  L 62.34 76.24
  Q 62.08 76.19 61.83 76.28
  Q 57.21 77.89 59.98 81.18
  C 61.85 83.40 62.93 85.12 65.58 84.87
  A 0.96 0.96 0.0 0 1 66.25 85.05
  L 68.67 86.75
  Q 70.06 87.73 69.66 86.08
  L 69.57 85.71
  A 1.00 1.00 0.0 0 1 70.26 84.52
  L 74.27 83.32
  A 1.01 1.00 -15.4 0 0 74.95 82.13
  L 74.79 81.45
  A 1.00 0.99 -15.0 0 0 73.53 80.73
  Q 72.76 80.96 72.40 80.40
  A 0.66 0.63 -55.2 0 1 72.32 79.87
  C 73.79 74.98 77.22 69.09 72.90 64.51
  A 0.99 0.99 0.0 0 0 71.89 64.24
  Q 67.39 65.55 66.08 69.68
  C 66.02 69.86 65.61 70.33 65.47 70.39
  A 0.52 0.51 -11.7 0 1 64.75 69.92
  Z"
/>
<path fill="#fc9649" d="
  M 76.46 22.00
  Q 74.07 22.38 73.85 20.55
  Q 73.63 18.77 72.45 20.13
  L 71.89 20.77
  A 1.00 1.00 0.0 0 1 70.83 21.07
  Q 67.64 20.05 70.03 22.41
  A 1.01 1.00 41.3 0 1 70.12 23.72
  Q 68.02 26.51 71.17 24.99
  A 1.01 1.00 62.8 0 1 72.49 25.42
  Q 74.04 28.32 74.00 24.69
  A 1.00 0.99 77.3 0 1 74.58 23.77
  L 76.79 22.75
  L 78.25 27.46
  Q 74.41 25.87 75.06 28.93
  A 1.03 1.00 6.1 0 0 75.65 29.64
  L 76.96 30.20
  A 0.64 0.64 0.0 0 0 77.84 29.68
  Q 77.93 28.98 78.71 28.75
  L 80.20 31.21
  A 0.99 0.97 -51.5 0 1 80.29 32.06
  L 78.72 36.46
  Q 78.21 37.89 75.73 36.28
  Q 75.31 36.01 74.99 36.09
  A 0.41 0.41 0.0 0 0 74.76 36.75
  L 76.48 38.87
  A 1.00 0.96 -63.6 0 1 76.70 39.57
  Q 76.48 42.71 73.20 42.61
  L 66.79 47.25
  Q 64.48 44.04 65.33 40.78
  Q 65.85 38.82 68.07 38.32
  A 0.99 0.99 0.0 0 0 68.73 36.89
  Q 68.34 36.12 68.89 35.21
  A 1.00 1.00 0.0 0 0 68.87 34.14
  C 66.22 30.12 60.08 17.30 69.28 16.84
  Q 74.66 16.57 76.46 22.00
  Z
  M 77.52 34.16
  Q 78.18 34.87 78.89 34.09
  A 0.82 0.81 50.1 0 0 78.97 33.12
  Q 78.42 32.27 77.57 33.02
  A 0.80 0.79 47.7 0 0 77.52 34.16
  Z"
/>
<path fill="#fc5329" d="
  M 33.50 38.54
  Q 32.87 38.42 32.89 37.90
  A 0.64 0.64 0.0 0 0 32.15 37.23
  L 31.00 37.42
  A 1.00 0.99 -89.1 0 0 30.18 38.22
  Q 29.77 40.30 32.29 40.50
  Q 32.24 43.51 29.76 42.93
  A 1.01 1.00 89.5 0 1 29.02 42.20
  L 28.95 41.90
  A 1.00 1.00 0.0 0 0 27.65 41.20
  Q 20.23 43.79 27.29 46.24
  A 1.00 1.00 0.0 0 0 28.60 45.48
  Q 28.91 43.89 30.73 44.04
  C 32.53 44.20 40.42 51.07 42.72 52.53
  A 1.01 1.00 27.2 0 1 43.12 53.75
  L 40.06 61.30
  A 1.00 1.00 0.0 0 1 38.65 61.81
  L 15.90 49.25
  A 1.01 0.99 13.1 0 1 15.38 48.43
  L 15.01 41.81
  A 1.03 0.99 66.9 0 1 15.30 41.05
  Q 21.10 35.20 27.80 30.41
  A 1.00 1.00 0.0 0 0 27.71 28.73
  Q 23.85 26.53 19.58 25.29
  Q 16.38 24.36 18.54 26.90
  L 21.66 30.55
  A 1.01 1.01 0.0 0 1 21.54 31.97
  L 15.34 37.19
  A 1.00 1.00 0.0 0 1 14.08 37.21
  C 10.56 34.43 4.68 28.76 4.72 24.06
  C 4.82 12.17 25.39 23.46 32.61 27.18
  A 0.96 0.94 55.7 0 0 33.16 27.29
  L 40.37 26.61
  A 1.00 0.99 -5.1 0 1 41.46 27.52
  L 41.81 31.87
  A 1.01 1.00 -13.5 0 1 41.18 32.88
  Q 36.59 34.72 33.50 38.54
  Z
  M 25.81 36.40
  L 25.74 36.07
  Q 25.48 34.68 24.61 35.79
  Q 24.25 36.26 23.68 36.27
  A 0.81 0.81 0.0 0 0 22.90 37.13
  L 22.98 38.36
  A 1.01 0.99 2.9 0 0 23.82 39.28
  L 25.19 39.50
  A 1.01 1.00 22.9 0 0 26.14 39.12
  Q 27.08 37.91 26.08 36.93
  A 0.97 0.96 -72.4 0 1 25.81 36.40
  Z"
/>
<path fill="#fc5329" d="
  M 76.46 22.00
  L 76.79 22.75
  L 74.58 23.77
  A 1.00 0.99 77.3 0 0 74.00 24.69
  Q 74.04 28.32 72.49 25.42
  A 1.01 1.00 62.8 0 0 71.17 24.99
  Q 68.02 26.51 70.12 23.72
  A 1.01 1.00 41.3 0 0 70.03 22.41
  Q 67.64 20.05 70.83 21.07
  A 1.00 1.00 0.0 0 0 71.89 20.77
  L 72.45 20.13
  Q 73.63 18.77 73.85 20.55
  Q 74.07 22.38 76.46 22.00
  Z"
/>
<path fill="#fc5329" d="
  M 97.46 33.75
  Q 95.42 35.51 92.75 35.29
  L 90.21 32.02
  A 0.99 0.98 -54.3 0 1 90.06 31.07
  Q 91.16 27.99 89.02 25.67
  A 1.01 1.00 -40.5 0 1 89.14 24.21
  L 93.99 20.35
  A 1.01 1.00 -38.3 0 1 95.40 20.51
  L 98.84 24.82
  A 1.01 0.99 -59.2 0 1 99.04 25.64
  L 97.46 33.75
  Z
  M 95.12 29.35
  Q 94.76 30.01 95.15 30.64
  Q 97.02 33.65 97.00 30.10
  L 96.99 29.82
  Q 96.97 25.97 95.12 29.35
  Z"
/>
<path fill="#fc9649" d="
  M 66.91 37.45
  Q 65.18 37.41 64.98 36.36
  A 0.81 0.80 -31.5 0 1 65.14 35.71
  Q 65.40 35.39 65.46 35.03
  Q 65.64 33.84 64.66 34.53
  L 63.62 35.26
  A 1.02 1.01 45.2 0 1 62.46 35.25
  Q 59.56 33.16 61.25 36.00
  A 1.01 1.00 -35.4 0 1 61.03 37.28
  L 60.74 37.52
  Q 59.56 38.51 61.05 38.90
  Q 62.48 39.28 63.50 40.29
  L 65.45 46.10
  L 59.04 45.50
  L 58.75 43.61
  A 0.99 0.99 0.0 0 0 57.74 42.77
  Q 56.87 42.79 56.33 42.23
  Q 55.27 41.16 55.45 42.65
  Q 55.63 44.10 56.25 45.46
  Q 53.83 47.58 50.27 46.99
  Q 55.83 36.50 46.27 32.21
  A 1.01 0.99 15.4 0 1 45.68 31.19
  L 46.12 27.47
  A 1.00 1.00 0.0 0 1 46.58 26.73
  Q 49.27 25.07 50.82 22.37
  A 1.01 1.00 -63.1 0 1 52.09 21.95
  L 55.59 23.46
  A 1.02 1.01 -65.9 0 1 56.10 24.81
  Q 54.51 28.18 55.70 31.56
  Q 56.50 33.82 57.55 31.66
  L 59.18 28.31
  A 1.00 1.00 0.0 0 1 60.08 27.74
  L 61.78 27.76
  A 0.99 0.98 -25.2 0 1 62.40 27.98
  Q 67.07 31.72 66.91 37.45
  Z"
/>
<path fill="#fc9649" d="
  M 84.75 46.79
  L 77.86 43.87
  Q 76.79 41.09 79.51 40.33
  A 1.01 1.00 -14.1 0 0 80.22 39.15
  L 79.98 38.08
  A 1.01 1.00 58.7 0 1 80.18 37.24
  Q 82.24 34.69 82.30 31.44
  A 1.05 1.02 25.8 0 0 82.06 30.78
  Q 79.72 27.98 78.95 24.45
  A 1.00 1.00 0.0 0 1 79.92 23.24
  L 80.25 23.24
  A 0.66 0.66 0.0 0 1 80.84 23.61
  C 82.08 26.30 83.25 29.57 85.75 31.29
  C 88.85 33.41 91.75 34.08 91.54 38.58
  C 91.38 42.14 87.61 44.93 84.75 46.79
  Z
  M 85.06 34.68
  Q 83.25 33.49 83.85 35.57
  L 84.02 36.15
  Q 84.46 37.68 85.43 36.41
  Q 86.18 35.42 85.06 34.68
  Z"
/>
<path fill="#fc5329" d="
  M 93.54 39.00
  Q 95.11 38.84 96.09 39.96
  Q 96.95 40.94 96.99 39.63
  L 97.00 39.05
  A 1.00 1.00 0.0 0 1 97.78 38.10
  C 102.23 37.09 94.76 36.69 97.54 34.25
  Q 99.29 33.55 100.70 32.02
  A 1.00 0.97 60.6 0 0 100.94 31.12
  L 99.95 26.83
  A 1.00 1.00 0.0 0 1 100.45 25.73
  C 104.64 23.46 117.75 28.67 122.62 30.26
  Q 125.88 31.32 124.44 34.20
  Q 122.02 39.04 117.59 42.19
  A 0.99 0.99 0.0 0 1 116.27 42.04
  L 112.07 37.33
  A 1.01 1.00 51.8 0 1 112.24 35.84
  L 115.11 33.85
  A 1.00 1.00 0.0 0 0 115.10 32.20
  Q 110.24 28.93 104.44 28.16
  A 0.41 0.40 85.7 0 0 104.00 28.68
  L 104.10 29.04
  A 1.01 1.01 0.0 0 0 105.46 29.68
  C 107.95 28.61 108.79 33.40 108.32 34.88
  A 1.01 0.98 33.1 0 0 108.54 35.85
  L 113.71 41.54
  Q 115.74 43.78 114.33 46.02
  C 111.71 50.20 108.95 52.21 108.84 57.65
  A 1.01 1.00 82.4 0 1 108.13 58.59
  L 104.89 59.57
  A 1.01 1.00 -18.7 0 1 103.66 58.97
  Q 103.41 58.31 103.43 57.58
  C 103.52 54.33 101.93 49.98 100.81 46.92
  A 1.01 0.94 4.7 0 0 100.31 46.37
  Q 98.44 45.45 98.72 42.92
  A 1.03 0.99 79.0 0 1 99.21 42.16
  L 102.72 40.12
  A 1.00 1.00 0.0 0 1 104.22 40.88
  L 104.43 42.97
  A 0.80 0.80 0.0 0 0 105.65 43.56
  Q 106.20 43.22 106.27 42.39
  C 106.39 41.00 105.09 38.82 104.36 37.63
  A 1.00 0.99 -34.2 0 0 102.91 37.36
  C 100.54 39.15 98.59 40.53 96.44 42.70
  Q 95.18 43.97 93.30 43.56
  A 1.00 0.99 -75.8 0 1 92.56 42.30
  L 93.54 39.00
  Z"
/>
<path fill="#ac3482" d="
  M 78.25 27.46
  L 78.71 28.75
  Q 77.93 28.98 77.84 29.68
  A 0.64 0.64 0.0 0 1 76.96 30.20
  L 75.65 29.64
  A 1.03 1.00 6.1 0 1 75.06 28.93
  Q 74.41 25.87 78.25 27.46
  Z"
/>
<path fill="#fdfdfe" d="
  M 24.25 30.60
  C 18.08 25.62 26.40 29.16 25.39 30.47
  A 0.80 0.80 0.0 0 1 24.25 30.60
  Z"
/>
<path fill="#ac3482" d="
  M 95.12 29.35
  Q 96.97 25.97 96.99 29.82
  L 97.00 30.10
  Q 97.02 33.65 95.15 30.64
  Q 94.76 30.01 95.12 29.35
  Z"
/>
<path fill="#fdfdfe" d="
  M 112.31 32.44
  Q 112.52 32.46 112.73 32.61
  A 0.41 0.41 0.0 0 1 112.81 33.20
  Q 110.92 35.57 110.48 33.22
  Q 110.03 30.82 112.04 32.22
  Q 112.18 32.32 112.31 32.44
  Z"
/>
<path fill="#fdfdfe" d="
  M 77.57 33.02
  Q 78.42 32.27 78.97 33.12
  A 0.82 0.81 50.1 0 1 78.89 34.09
  Q 78.18 34.87 77.52 34.16
  A 0.80 0.79 47.7 0 1 77.57 33.02
  Z"
/>
<path fill="#fc9649" d="
  M 48.50 46.04
  C 46.73 45.67 42.69 46.70 42.00 45.04
  Q 43.86 44.11 43.98 42.20
  Q 44.10 40.38 42.51 41.25
  Q 40.60 42.29 41.00 44.46
  Q 38.17 43.96 34.26 44.72
  Q 34.30 33.79 46.60 33.37
  A 1.02 0.99 67.4 0 1 47.39 33.71
  Q 52.62 39.69 48.50 46.04
  Z
  M 38.23 39.00
  Q 37.78 39.15 38.16 39.55
  A 0.69 0.66 64.7 0 0 38.68 39.75
  Q 39.35 39.69 39.78 40.09
  A 0.79 0.79 0.0 0 0 40.95 40.02
  L 41.72 39.07
  A 1.01 1.00 -43.7 0 0 41.75 37.85
  L 41.16 37.03
  A 0.99 0.98 -21.3 0 0 40.24 36.63
  Q 38.46 36.83 38.66 38.31
  A 0.65 0.65 0.0 0 1 38.23 39.00
  Z"
/>
<path fill="#ac3482" d="
  M 97.46 33.75
  L 97.54 34.25
  C 94.76 36.69 102.23 37.09 97.78 38.10
  A 1.00 1.00 0.0 0 0 97.00 39.05
  L 96.99 39.63
  Q 96.95 40.94 96.09 39.96
  Q 95.11 38.84 93.54 39.00
  L 92.75 35.29
  Q 95.42 35.51 97.46 33.75
  Z"
/>
<path fill="#fc5329" d="
  M 66.91 37.45
  L 63.50 40.29
  Q 62.48 39.28 61.05 38.90
  Q 59.56 38.51 60.74 37.52
  L 61.03 37.28
  A 1.01 1.00 -35.4 0 0 61.25 36.00
  Q 59.56 33.16 62.46 35.25
  A 1.02 1.01 45.2 0 0 63.62 35.26
  L 64.66 34.53
  Q 65.64 33.84 65.46 35.03
  Q 65.40 35.39 65.14 35.71
  A 0.81 0.80 -31.5 0 0 64.98 36.36
  Q 65.18 37.41 66.91 37.45
  Z"
/>
<path fill="#000000" d="
  M 85.06 34.68
  Q 86.18 35.42 85.43 36.41
  Q 84.46 37.68 84.02 36.15
  L 83.85 35.57
  Q 83.25 33.49 85.06 34.68
  Z"
/>
<path fill="#ac3482" d="
  M 26.08 36.93
  Q 27.08 37.91 26.14 39.12
  A 1.01 1.00 22.9 0 1 25.19 39.50
  L 23.82 39.28
  A 1.01 0.99 2.9 0 1 22.98 38.36
  L 22.90 37.13
  A 0.81 0.81 0.0 0 1 23.68 36.27
  Q 24.25 36.26 24.61 35.79
  Q 25.48 34.68 25.74 36.07
  L 25.81 36.40
  A 0.97 0.96 -72.4 0 0 26.08 36.93
  Z"
/>
<path fill="#fc5329" d="
  M 38.66 38.31
  Q 38.46 36.83 40.24 36.63
  A 0.99 0.98 -21.3 0 1 41.16 37.03
  L 41.75 37.85
  A 1.01 1.00 -43.7 0 1 41.72 39.07
  L 40.95 40.02
  A 0.79 0.79 0.0 0 1 39.78 40.09
  Q 39.35 39.69 38.68 39.75
  A 0.69 0.66 64.7 0 1 38.16 39.55
  Q 37.78 39.15 38.23 39.00
  A 0.65 0.65 0.0 0 0 38.66 38.31
  Z"
/>
<path fill="#ac3482" d="
  M 33.50 38.54
  L 32.29 40.50
  Q 29.77 40.30 30.18 38.22
  A 1.00 0.99 -89.1 0 1 31.00 37.42
  L 32.15 37.23
  A 0.64 0.64 0.0 0 1 32.89 37.90
  Q 32.87 38.42 33.50 38.54
  Z"
/>
<path fill="#000000" d="
  M 42.00 45.04
  L 41.00 44.46
  Q 40.60 42.29 42.51 41.25
  Q 44.10 40.38 43.98 42.20
  Q 43.86 44.11 42.00 45.04
  Z
  M 42.04 42.71
  C 41.94 45.40 43.87 42.07 42.49 42.22
  A 0.51 0.50 -2.6 0 0 42.04 42.71
  Z"
/>
<path fill="#000000" d="
  M 8.54 42.09
  Q 8.95 41.75 9.42 41.64
  Q 11.28 41.19 9.77 42.36
  L 7.93 43.79
  A 0.42 0.41 65.6 0 1 7.27 43.54
  Q 7.17 43.01 7.69 42.68
  Q 8.28 42.31 8.54 42.09
  Z"
/>
<path fill="#fdfdfe" d="
  M 39.07 65.18
  Q 28.93 61.15 17.18 53.82
  Q 13.67 51.62 11.93 49.09
  A 1.07 0.99 -66.1 0 1 11.75 48.57
  L 11.46 42.00
  Q 12.56 41.47 13.22 42.37
  A 1.01 0.98 34.6 0 1 13.38 43.17
  C 12.54 47.03 13.49 49.79 16.93 52.04
  Q 26.16 58.05 31.46 60.25
  Q 36.26 62.25 39.07 65.18
  Z"
/>
<path fill="#000000" d="
  M 4.71 44.05
  Q 3.75 45.70 3.76 43.79
  Q 3.76 42.75 4.66 42.26
  Q 6.27 41.38 5.35 42.97
  L 4.71 44.05
  Z"
/>
<path fill="#ac3482" d="
  M 42.49 42.22
  C 43.87 42.07 41.94 45.40 42.04 42.71
  A 0.51 0.50 -2.6 0 1 42.49 42.22
  Z"
/>
<path fill="#fc5329" d="
  M 73.20 42.61
  Q 76.21 45.37 77.91 50.48
  C 78.89 53.42 81.88 51.16 83.37 50.45
  A 1.01 0.97 40.1 0 1 84.10 50.40
  L 85.72 50.91
  A 1.00 0.99 -84.8 0 0 87.01 49.83
  Q 86.64 46.94 89.54 45.50
  Q 92.07 48.98 95.46 51.59
  A 1.00 0.99 50.1 0 0 96.54 51.69
  Q 98.11 50.86 100.21 50.71
  Q 101.44 54.87 101.32 58.83
  C 101.05 67.25 94.17 67.95 88.19 64.03
  Q 85.01 61.94 84.97 61.92
  Q 81.19 60.00 77.71 57.60
  Q 76.01 56.43 78.05 56.15
  L 79.33 55.97
  A 0.64 0.64 0.0 0 0 79.80 55.01
  C 79.26 54.11 75.48 54.63 74.46 54.76
  A 1.01 1.01 0.0 0 1 73.64 54.47
  Q 72.52 53.36 71.74 54.39
  A 1.01 0.98 -78.7 0 1 71.23 54.74
  L 63.83 56.89
  A 1.00 1.00 0.0 0 1 62.66 56.37
  Q 60.14 51.23 59.04 45.50
  L 65.45 46.10
  Q 65.83 47.92 66.79 47.25
  L 73.20 42.61
  Z"
/>
<path fill="#fdfdfe" d="
  M 27.54 43.83
  C 27.64 45.21 24.77 42.96 26.98 43.24
  A 0.64 0.63 -89.0 0 1 27.54 43.83
  Z"
/>
<path fill="#fdfdfe" d="
  M 97.77 44.65
  C 97.64 46.59 94.63 43.19 97.42 44.13
  A 0.52 0.52 0.0 0 1 97.77 44.65
  Z"
/>
<path fill="#fc5329" d="
  M 77.86 43.87
  L 84.75 46.79
  L 80.90 49.82
  A 1.00 1.00 0.0 0 1 79.32 49.29
  L 77.86 43.87
  Z"
/>
<path fill="#fc5329" d="
  M 41.00 44.46
  L 42.00 45.04
  C 42.69 46.70 46.73 45.67 48.50 46.04
  Q 47.16 49.00 44.55 50.87
  A 1.00 0.99 43.8 0 1 43.41 50.89
  L 34.26 44.72
  Q 38.17 43.96 41.00 44.46
  Z"
/>
<path fill="#fc9649" d="
  M 100.21 50.71
  Q 98.11 50.86 96.54 51.69
  A 1.00 0.99 50.1 0 1 95.46 51.59
  Q 92.07 48.98 89.54 45.50
  C 89.81 44.86 90.20 44.48 90.96 44.56
  Q 97.51 45.25 100.21 50.71
  Z"
/>
<path fill="#fc5329" d="
  M 56.25 45.46
  Q 59.19 47.62 59.95 52.61
  A 1.00 0.98 75.4 0 1 59.32 53.70
  Q 54.08 55.67 50.99 60.33
  A 0.99 0.98 -66.6 0 1 49.94 60.75
  L 44.95 59.63
  A 1.00 0.99 10.3 0 1 44.18 58.52
  L 44.92 53.36
  A 1.01 1.01 0.0 0 1 45.31 52.70
  Q 48.59 50.24 50.27 46.99
  Q 53.83 47.58 56.25 45.46
  Z"
/>
<path fill="#fdfdfe" d="
  M 116.99 47.61
  L 111.90 54.76
  A 1.03 1.00 60.0 0 0 111.72 55.48
  L 112.27 59.45
  A 1.03 1.03 0.0 0 1 111.81 60.44
  Q 108.95 62.24 105.55 62.71
  A 1.00 1.00 0.0 0 0 104.73 63.42
  Q 103.01 69.24 97.25 69.96
  Q 96.85 69.67 96.79 69.30
  A 0.65 0.65 0.0 0 1 97.24 68.60
  Q 101.70 67.23 103.11 62.73
  A 0.99 0.97 -2.1 0 1 103.72 62.09
  L 109.93 59.84
  A 1.00 1.00 0.0 0 0 110.56 58.65
  Q 109.81 55.68 111.47 52.73
  Q 113.56 48.99 116.99 47.61
  Z"
/>
<path fill="#fdfdfe" d="
  M 70.54 61.07
  L 70.67 62.00
  A 0.99 0.99 0.0 0 1 70.06 63.07
  Q 67.81 63.99 66.28 65.93
  A 1.00 0.99 -76.0 0 1 65.69 66.29
  L 59.02 67.64
  A 1.00 1.00 0.0 0 1 57.93 67.11
  L 55.45 62.15
  A 0.97 0.97 0.0 0 0 54.67 61.61
  L 54.36 61.57
  Q 52.55 61.38 53.69 59.95
  Q 55.89 57.20 59.08 55.61
  A 1.01 1.00 64.8 0 1 60.44 56.11
  Q 61.14 57.70 62.29 58.98
  A 1.01 1.00 -29.0 0 0 63.32 59.27
  L 72.39 56.58
  A 1.00 0.99 55.9 0 1 73.30 56.76
  L 76.15 59.02
  Q 78.39 60.81 75.55 60.44
  L 71.66 59.94
  A 1.00 1.00 0.0 0 0 70.54 61.07
  Z
  M 61.44 60.98
  L 59.71 58.31
  A 1.00 0.99 -33.5 0 0 58.31 58.03
  L 56.93 58.98
  A 0.99 0.99 0.0 0 0 56.63 60.30
  L 59.22 64.75
  A 1.00 0.99 -14.2 0 0 60.07 65.25
  C 62.21 65.29 68.89 63.78 69.06 61.02
  Q 69.08 60.73 69.04 60.44
  A 1.01 1.00 -13.8 0 0 67.73 59.65
  L 62.60 61.39
  A 1.01 1.01 0.0 0 1 61.44 60.98
  Z"
/>
<ellipse fill="#fdfdfe" cx="0.00" cy="0.00" transform="translate(20.35,57.32) rotate(34.8)" rx="0.92" ry="0.81"/>
<path fill="#04cbce" d="
  M 72.23 89.33
  L 71.67 86.67
  A 1.00 0.99 -13.7 0 1 72.38 85.51
  L 79.40 83.51
  A 1.02 1.01 -18.8 0 1 80.61 84.10
  C 82.70 89.30 87.65 95.45 86.52 101.07
  A 0.98 0.97 87.1 0 1 85.85 101.82
  C 79.27 103.93 71.46 97.29 66.31 93.82
  A 1.01 1.00 -42.6 0 0 65.26 93.78
  L 53.45 100.37
  A 1.03 1.02 -49.9 0 1 52.64 100.44
  L 46.32 98.29
  A 0.99 0.99 0.0 0 1 45.78 96.85
  L 54.14 82.26
  A 1.01 1.00 -56.5 0 0 53.88 80.97
  L 43.53 73.03
  A 1.01 1.01 0.0 0 1 43.14 72.14
  L 44.04 62.50
  A 1.01 1.01 0.0 0 1 45.25 61.61
  L 53.73 63.40
  A 1.00 0.99 -6.4 0 1 54.44 63.96
  L 59.40 74.85
  A 0.99 0.99 0.0 0 1 59.02 76.11
  C 55.65 78.18 58.58 81.86 60.43 83.99
  A 1.00 1.00 0.0 0 1 60.55 85.13
  L 59.67 86.73
  Q 58.73 88.41 60.58 87.89
  L 65.12 86.62
  A 1.00 1.00 0.0 0 1 66.00 86.78
  L 70.64 90.33
  Q 72.78 91.96 72.23 89.33
  Z
  M 48.10 65.02
  Q 46.03 63.77 46.75 65.86
  A 0.99 0.99 0.0 0 1 46.45 66.95
  Q 46.27 67.11 46.12 67.27
  Q 44.61 68.91 46.83 68.95
  Q 47.53 68.97 47.82 69.55
  A 0.80 0.80 0.0 0 0 49.17 69.69
  Q 50.04 68.56 51.65 69.19
  Q 52.87 69.67 52.29 68.49
  Q 52.16 68.21 51.73 67.93
  Q 50.57 67.16 50.74 65.55
  Q 50.89 63.98 49.53 64.78
  L 49.12 65.02
  A 1.01 1.01 0.0 0 1 48.10 65.02
  Z
  M 48.3686 73.2131
  A 1.08 0.88 63.1 0 0 48.6648 71.8519
  A 1.08 0.88 63.1 0 0 47.3914 71.2869
  A 1.08 0.88 63.1 0 0 47.0952 72.6481
  A 1.08 0.88 63.1 0 0 48.3686 73.2131
  Z
  M 78.70 95.09
  L 78.40 95.32
  A 1.00 1.00 0.0 0 0 78.46 96.95
  Q 79.27 97.47 79.79 98.30
  A 0.80 0.79 -43.1 0 0 81.12 98.34
  L 81.30 98.08
  A 0.81 0.81 0.0 0 1 82.28 97.81
  C 84.30 98.72 83.59 97.11 83.19 96.36
  Q 82.81 95.62 82.89 94.77
  A 0.80 0.80 0.0 0 0 81.87 93.93
  Q 80.83 94.23 80.15 93.12
  Q 78.97 91.17 78.97 93.45
  Q 78.97 93.72 79.05 94.01
  A 1.00 0.99 -27.1 0 1 78.70 95.09
  Z"
/>
<path fill="#04cbce" d="
  M 76.09 74.77
  C 78.26 69.07 77.95 66.55 73.28 62.85
  Q 72.03 61.86 73.62 61.71
  Q 73.89 61.69 74.25 61.74
  C 80.37 62.69 88.12 64.83 87.65 72.21
  A 1.01 1.01 0.0 0 0 88.20 73.17
  C 95.25 76.71 90.00 83.33 86.14 86.06
  A 1.00 0.99 56.0 0 0 85.88 87.42
  Q 86.65 88.59 86.49 89.82
  Q 86.20 91.98 85.27 90.01
  L 81.56 82.13
  A 1.01 0.99 68.2 0 0 80.35 81.60
  L 78.13 82.32
  A 1.00 1.00 0.0 0 1 76.83 81.50
  L 76.03 75.25
  Q 76.00 75.00 76.09 74.77
  Z
  M 80.24 71.53
  Q 77.88 68.34 78.19 71.63
  A 1.07 1.03 20.7 0 0 78.48 72.24
  L 80.82 74.58
  A 0.66 0.65 -29.4 0 0 81.44 74.75
  C 82.90 74.37 81.37 72.23 80.58 71.82
  Q 80.38 71.71 80.24 71.53
  Z
  M 84.10 76.42
  Q 86.32 76.12 85.05 74.17
  A 1.00 1.00 0.0 0 0 83.59 73.94
  Q 82.93 74.46 82.96 75.47
  A 1.00 1.00 0.0 0 0 84.10 76.42
  Z
  M 84.53 79.98
  A 1.00 1.00 0.0 0 0 84.04 78.50
  C 80.84 77.32 82.35 83.36 84.53 79.98
  Z"
/>
<path fill="#fdfdfe" d="
  M 95.14 70.14
  L 91.45 69.77
  A 0.41 0.41 0.0 0 0 90.99 70.17
  L 90.99 70.58
  A 1.00 0.98 -66.3 0 0 91.24 71.24
  L 94.54 75.00
  L 95.04 76.00
  C 96.12 81.12 93.76 83.70 90.42 88.10
  A 1.02 1.01 47.7 0 0 90.37 89.24
  Q 91.64 91.25 90.01 92.98
  A 1.01 0.99 -33.1 0 0 89.79 93.98
  Q 92.51 102.08 86.04 104.96
  C 80.19 107.56 71.54 101.43 65.97 97.96
  A 0.99 0.99 0.0 0 0 64.96 97.94
  L 53.66 104.25
  A 1.00 0.96 34.1 0 1 53.01 104.36
  Q 46.82 103.32 41.91 99.26
  A 1.00 1.00 0.0 0 1 41.61 98.15
  Q 44.51 90.22 49.26 83.26
  A 1.01 0.99 -54.2 0 0 49.05 81.90
  L 39.56 74.64
  A 1.02 1.02 0.0 0 1 39.17 73.80
  L 39.29 70.75
  C 39.88 68.73 39.52 66.17 40.47 64.44
  Q 40.53 64.33 40.59 64.22
  Q 42.13 61.46 41.79 64.60
  L 40.85 73.01
  A 1.02 1.00 -68.7 0 0 41.24 73.92
  L 50.99 81.29
  A 1.01 1.00 32.8 0 1 51.27 82.56
  L 44.33 95.66
  Q 42.68 98.77 45.36 100.08
  Q 49.23 101.97 53.29 102.61
  A 1.04 1.00 33.4 0 0 53.94 102.49
  L 65.23 96.07
  A 1.00 0.99 -45.3 0 1 66.19 96.06
  C 72.22 99.29 76.04 102.84 83.33 104.26
  A 1.10 1.06 38.7 0 0 83.89 104.21
  Q 91.27 101.28 87.66 94.01
  A 1.01 0.99 54.4 0 1 87.84 92.87
  Q 89.77 90.88 88.23 88.57
  A 1.01 1.00 -39.4 0 1 88.36 87.29
  C 92.86 82.94 96.29 76.93 89.70 72.44
  A 1.00 0.99 -65.3 0 1 89.30 71.34
  Q 89.69 70.00 89.30 68.75
  Q 88.75 66.93 90.56 67.50
  Q 93.12 68.30 95.14 70.14
  Z"
/>
<path fill="#01b39f" d="
  M 49.12 65.02
  L 49.53 64.78
  Q 50.89 63.98 50.74 65.55
  Q 50.57 67.16 51.73 67.93
  Q 52.16 68.21 52.29 68.49
  Q 52.87 69.67 51.65 69.19
  Q 50.04 68.56 49.17 69.69
  A 0.80 0.80 0.0 0 1 47.82 69.55
  Q 47.53 68.97 46.83 68.95
  Q 44.61 68.91 46.12 67.27
  Q 46.27 67.11 46.45 66.95
  A 0.99 0.99 0.0 0 0 46.75 65.86
  Q 46.03 63.77 48.10 65.02
  A 1.01 1.01 0.0 0 0 49.12 65.02
  Z"
/>
<path fill="#6ef0f9" d="
  M 65.47 70.39
  C 65.61 70.33 66.02 69.86 66.08 69.68
  Q 67.39 65.55 71.89 64.24
  A 0.99 0.99 0.0 0 1 72.90 64.51
  C 77.22 69.09 73.79 74.98 72.32 79.87
  A 0.66 0.63 -55.2 0 0 72.40 80.40
  Q 72.76 80.96 73.53 80.73
  A 1.00 0.99 -15.0 0 1 74.79 81.45
  L 74.95 82.13
  A 1.01 1.00 -15.4 0 1 74.27 83.32
  L 70.26 84.52
  A 1.00 1.00 0.0 0 0 69.57 85.71
  L 69.66 86.08
  Q 70.06 87.73 68.67 86.75
  L 66.25 85.05
  A 0.96 0.96 0.0 0 0 65.58 84.87
  C 62.93 85.12 61.85 83.40 59.98 81.18
  Q 57.21 77.89 61.83 76.28
  Q 62.08 76.19 62.34 76.24
  L 67.65 77.21
  A 0.80 0.80 0.0 0 0 68.47 76.86
  C 69.32 75.53 62.62 74.99 61.96 74.86
  A 0.98 0.97 -6.8 0 1 61.23 74.29
  L 59.63 70.72
  A 1.01 1.00 69.6 0 1 60.25 69.35
  L 63.46 68.37
  A 1.00 1.00 0.0 0 1 64.75 69.33
  L 64.75 69.92
  A 0.52 0.51 -11.7 0 0 65.47 70.39
  Z
  M 67.6419 80.8546
  A 1.03 0.76 45.5 0 0 67.4621 79.5873
  A 1.03 0.76 45.5 0 0 66.1981 79.3854
  A 1.03 0.76 45.5 0 0 66.3779 80.6527
  A 1.03 0.76 45.5 0 0 67.6419 80.8546
  Z"
/>
<path fill="#000000" d="
  M 80.58 71.82
  C 81.37 72.23 82.90 74.37 81.44 74.75
  A 0.66 0.65 -29.4 0 1 80.82 74.58
  L 78.48 72.24
  A 1.07 1.03 20.7 0 1 78.19 71.63
  Q 77.88 68.34 80.24 71.53
  Q 80.38 71.71 80.58 71.82
  Z"
/>
<ellipse fill="#fdfdfe" cx="0.00" cy="0.00" transform="translate(47.88,72.25) rotate(63.1)" rx="1.08" ry="0.88"/>
<path fill="#fdfdfe" d="
  M 100.81 72.73
  L 100.58 73.01
  A 0.63 0.63 0.0 0 1 99.58 73.01
  Q 98.39 71.52 100.65 72.21
  A 0.33 0.33 0.0 0 1 100.81 72.73
  Z"
/>
<path fill="#01b39f" d="
  M 82.96 75.47
  Q 82.93 74.46 83.59 73.94
  A 1.00 1.00 0.0 0 1 85.05 74.17
  Q 86.32 76.12 84.10 76.42
  A 1.00 1.00 0.0 0 1 82.96 75.47
  Z"
/>
<path fill="#000000" d="
  M 84.53 79.98
  C 82.35 83.36 80.84 77.32 84.04 78.50
  A 1.00 1.00 0.0 0 1 84.53 79.98
  Z"
/>
<ellipse fill="#000000" cx="0.00" cy="0.00" transform="translate(66.92,80.12) rotate(45.5)" rx="1.03" ry="0.76"/>
<path fill="#01b39f" d="
  M 79.05 94.01
  Q 78.97 93.72 78.97 93.45
  Q 78.97 91.17 80.15 93.12
  Q 80.83 94.23 81.87 93.93
  A 0.80 0.80 0.0 0 1 82.89 94.77
  Q 82.81 95.62 83.19 96.36
  C 83.59 97.11 84.30 98.72 82.28 97.81
  A 0.81 0.81 0.0 0 0 81.30 98.08
  L 81.12 98.34
  A 0.80 0.79 -43.1 0 1 79.79 98.30
  Q 79.27 97.47 78.46 96.95
  A 1.00 1.00 0.0 0 1 78.40 95.32
  L 78.70 95.09
  A 1.00 0.99 -27.1 0 0 79.05 94.01
  Z"
/>
</svg>
