<?xml version="1.0" encoding="UTF-8" standalone="no"?>
<!DOCTYPE svg PUBLIC "-//W3C//DTD SVG 1.1//EN" "http://www.w3.org/Graphics/SVG/1.1/DTD/svg11.dtd">
<svg xmlns="http://www.w3.org/2000/svg" version="1.1" viewBox="0 0 200 174">
<g stroke-width="2.00" fill="none" stroke-linecap="butt">
<path stroke="#e9bb94" vector-effect="non-scaling-stroke" d="
  M 178.00 71.21
  Q 175.90 71.80 173.79 71.25"
/>
<path stroke="#e9bb94" vector-effect="non-scaling-stroke" d="
  M 137.29 27.75
  L 135.71 23.25"
/>
<path stroke="#e9bb94" vector-effect="non-scaling-stroke" d="
  M 102.72 9.14
  Q 96.86 9.57 93.43 9.36
  Q 88.19 9.05 79.00 7.71"
/>
<path stroke="#e9bb94" vector-effect="non-scaling-stroke" d="
  M 68.54 71.25
  L 73.33 71.40"
/>
<path stroke="#e9bb94" vector-effect="non-scaling-stroke" d="
  M 131.46 79.50
  Q 128.96 85.93 122.75 88.96"
/>
<path stroke="#e9bb94" vector-effect="non-scaling-stroke" d="
  M 126.29 96.50
  Q 129.61 95.17 131.71 92.25"
/>
<path stroke="#e9bb94" vector-effect="non-scaling-stroke" d="
  M 162.29 74.50
  L 159.54 87.00"
/>
<path stroke="#e9bb94" vector-effect="non-scaling-stroke" d="
  M 178.44 74.73
  L 174.79 90.50"
/>
<path stroke="#e9bb94" vector-effect="non-scaling-stroke" d="
  M 174.71 96.25
  Q 177.08 97.63 179.32 95.41"
/>
<path stroke="#e9bb94" vector-effect="non-scaling-stroke" d="
  M 172.80 118.12
  L 169.29 116.00"
/>
<path stroke="#e9bb94" vector-effect="non-scaling-stroke" d="
  M 173.47 103.95
  L 177.50 102.46"
/>
<path stroke="#e9bb94" vector-effect="non-scaling-stroke" d="
  M 177.46 101.75
  L 173.00 103.29"
/>
<path stroke="#e9bb94" vector-effect="non-scaling-stroke" d="
  M 161.29 101.76
  C 158.08 102.85 152.56 103.54 150.54 100.50"
/>
<path stroke="#e9bb94" vector-effect="non-scaling-stroke" d="
  M 147.96 99.50
  Q 144.65 102.74 140.04 103.25"
/>
<path stroke="#e9bb94" vector-effect="non-scaling-stroke" d="
  M 129.15 99.10
  L 122.48 102.60"
/>
<path stroke="#e9bb94" vector-effect="non-scaling-stroke" d="
  M 109.50 99.96
  Q 109.39 99.46 109.17 99.05
  A 1.00 1.00 0.0 0 0 107.54 98.86
  Q 105.11 101.62 101.75 103.21"
/>
<path stroke="#e9bb94" vector-effect="non-scaling-stroke" d="
  M 101.50 103.29
  Q 94.29 104.11 92.03 97.66"
/>
<path stroke="#e9bb94" vector-effect="non-scaling-stroke" d="
  M 86.00 91.96
  L 84.70 97.27"
/>
<path stroke="#e9bb94" vector-effect="non-scaling-stroke" d="
  M 75.25 102.79
  Q 74.31 102.59 74.67 102.11"
/>
<path stroke="#e9bb94" vector-effect="non-scaling-stroke" d="
  M 77.21 89.00
  Q 78.07 87.11 78.00 85.04"
/>
<path stroke="#e9bb94" vector-effect="non-scaling-stroke" d="
  M 71.79 84.75
  L 71.04 89.00"
/>
<path stroke="#e9bb94" vector-effect="non-scaling-stroke" d="
  M 61.71 89.00
  Q 62.61 87.12 62.50 85.04"
/>
<path stroke="#e9bb94" vector-effect="non-scaling-stroke" d="
  M 57.67 84.79
  L 57.29 88.75"
/>
<path stroke="#e9bb94" vector-effect="non-scaling-stroke" d="
  M 54.25 96.46
  L 51.15 99.87"
/>
<path stroke="#e9bb94" vector-effect="non-scaling-stroke" d="
  M 41.00 102.96
  L 35.54 101.25"
/>
<path stroke="#e9bb94" vector-effect="non-scaling-stroke" d="
  M 23.96 102.75
  L 19.67 103.49"
/>
<path stroke="#e9bb94" vector-effect="non-scaling-stroke" d="
  M 99.29 21.00
  Q 98.83 21.85 98.67 22.77
  Q 98.28 25.14 100.24 23.75
  Q 103.05 21.76 106.80 22.43
  Q 110.33 23.05 111.29 26.25"
/>
<path stroke="#e9bb94" vector-effect="non-scaling-stroke" d="
  M 109.96 38.00
  L 109.04 42.00"
/>
<path stroke="#e9bb94" vector-effect="non-scaling-stroke" d="
  M 114.44 44.01
  Q 115.41 41.92 115.21 39.50"
/>
<path stroke="#e9bb94" vector-effect="non-scaling-stroke" d="
  M 119.00 28.54
  L 121.75 25.29"
/>
<path stroke="#e9bb94" vector-effect="non-scaling-stroke" d="
  M 135.75 32.71
  L 133.14 35.80"
/>
<path stroke="#e9bb94" vector-effect="non-scaling-stroke" d="
  M 131.21 49.00
  L 127.25 51.21"
/>
<path stroke="#e9bb94" vector-effect="non-scaling-stroke" d="
  M 101.21 40.75
  L 102.21 36.75"
/>
<path stroke="#e9bb94" vector-effect="non-scaling-stroke" d="
  M 96.25 36.71
  Q 95.56 38.58 95.65 40.47"
/>
<path stroke="#e9bb94" vector-effect="non-scaling-stroke" d="
  M 86.96 42.25
  Q 87.78 40.20 87.71 38.00"
/>
<path stroke="#e9bb94" vector-effect="non-scaling-stroke" d="
  M 90.46 25.75
  L 91.46 21.25"
/>
<path stroke="#e9bb94" vector-effect="non-scaling-stroke" d="
  M 83.54 22.75
  L 82.54 27.00"
/>
<path stroke="#e9bb94" vector-effect="non-scaling-stroke" d="
  M 79.54 40.25
  L 78.75 44.96"
/>
<path stroke="#e9bb94" vector-effect="non-scaling-stroke" d="
  M 69.29 51.25
  L 69.71 46.25"
/>
<path stroke="#e9bb94" vector-effect="non-scaling-stroke" d="
  M 73.09 30.54
  Q 74.26 28.52 74.25 25.79"
/>
<path stroke="#e9bb94" vector-effect="non-scaling-stroke" d="
  M 60.59 19.63
  Q 61.83 16.19 64.25 13.04"
/>
<path stroke="#e9bb94" vector-effect="non-scaling-stroke" d="
  M 66.50 118.21
  L 64.04 121.25"
/>
<path stroke="#e9bb94" vector-effect="non-scaling-stroke" d="
  M 28.25 55.71
  L 24.00 55.46"
/>
<path stroke="#e9bb94" vector-effect="non-scaling-stroke" d="
  M 69.71 139.75
  L 68.96 144.00"
/>
<path stroke="#e9bb94" vector-effect="non-scaling-stroke" d="
  M 82.29 160.75
  C 85.45 163.33 92.13 167.39 95.23 164.25
  Q 97.19 162.26 97.64 158.60
  A 1.00 1.00 0.0 0 0 96.60 157.48
  L 96.04 157.50"
/>
<path stroke="#e9bb94" vector-effect="non-scaling-stroke" d="
  M 95.10 150.32
  Q 95.24 149.60 95.70 149.03
  A 1.00 1.00 0.0 0 1 97.38 149.24
  Q 98.36 151.32 100.33 152.18"
/>
<path stroke="#e9bb94" vector-effect="non-scaling-stroke" d="
  M 145.50 71.21
  L 141.79 72.50"
/>
<path stroke="#e9bb94" vector-effect="non-scaling-stroke" d="
  M 129.71 72.00
  Q 126.84 70.82 123.75 70.71"
/>
<path stroke="#e9bb94" vector-effect="non-scaling-stroke" d="
  M 113.29 76.25
  L 110.96 79.75"
/>
<path stroke="#e9bb94" vector-effect="non-scaling-stroke" d="
  M 102.03 72.82
  Q 97.14 69.66 92.15 72.43
  Q 90.62 73.28 89.14 75.00
  A 1.00 1.00 0.0 0 1 87.50 74.81
  L 86.54 73.00"
/>
<path stroke="#e9bb94" vector-effect="non-scaling-stroke" d="
  M 132.00 141.26
  L 133.04 136.00"
/>
<path stroke="#e9bb94" vector-effect="non-scaling-stroke" d="
  M 100.50 125.79
  Q 100.38 128.35 99.83 126.36
  A 1.00 0.98 89.8 0 0 99.15 125.67
  L 96.04 124.75"
/>
<path stroke="#e9bb94" vector-effect="non-scaling-stroke" d="
  M 83.04 115.75
  Q 83.42 114.39 83.08 113.16
  A 1.00 0.99 81.4 0 0 82.10 112.43
  L 77.79 112.50"
/>
<path stroke="#e9bb94" vector-effect="non-scaling-stroke" d="
  M 38.39 76.22
  Q 34.40 82.36 33.11 89.36"
/>
<path stroke="#e9bb94" vector-effect="non-scaling-stroke" d="
  M 22.75 97.46
  Q 20.68 98.14 18.75 97.21"
/>
<path stroke="#e9bb94" vector-effect="non-scaling-stroke" d="
  M 20.89 63.46
  Q 22.78 59.72 26.71 59.00"
/>
<path stroke="#e9bb94" vector-effect="non-scaling-stroke" d="
  M 157.75 59.46
  Q 155.58 60.34 155.21 62.75"
/>
<path stroke="#e9bb94" vector-effect="non-scaling-stroke" d="
  M 55.46 72.50
  L 51.47 71.01"
/>
<path stroke="#e9bb94" vector-effect="non-scaling-stroke" d="
  M 80.50 127.71
  Q 79.49 129.44 79.50 131.46"
/>
<path stroke="#e9bb94" vector-effect="non-scaling-stroke" d="
  M 77.04 143.00
  L 76.25 146.96"
/>
<path stroke="#e9bb94" vector-effect="non-scaling-stroke" d="
  M 72.25 127.29
  L 73.46 123.25"
/>
<path stroke="#e9bb94" vector-effect="non-scaling-stroke" d="
  M 69.46 120.50
  Q 68.07 122.40 67.79 124.75"
/>
<path stroke="#e9bb94" vector-effect="non-scaling-stroke" d="
  M 122.79 124.00
  Q 122.50 124.38 122.38 124.77
  Q 121.85 126.46 123.47 125.74
  Q 125.89 124.66 128.50 125.46"
/>
<path stroke="#e9bb94" vector-effect="non-scaling-stroke" d="
  M 111.25 149.46
  Q 110.26 146.39 110.00 149.71"
/>
<path stroke="#e9bb94" vector-effect="non-scaling-stroke" d="
  M 82.50 148.71
  L 81.71 144.25"
/>
<path stroke="#e9bb94" vector-effect="non-scaling-stroke" d="
  M 84.46 133.00
  L 86.50 129.79"
/>
<path stroke="#e9bb94" vector-effect="non-scaling-stroke" d="
  M 107.54 130.25
  Q 106.59 132.27 106.54 134.50"
/>
<path stroke="#e9bb94" vector-effect="non-scaling-stroke" d="
  M 105.00 146.54
  Q 107.17 149.11 108.75 146.04"
/>
<path stroke="#e9bb94" vector-effect="non-scaling-stroke" d="
  M 112.96 133.25
  L 113.71 128.75"
/>
<path stroke="#e9bb94" vector-effect="non-scaling-stroke" d="
  M 130.04 33.50
  Q 132.33 31.69 132.21 28.75"
/>
<path stroke="#e9bb94" vector-effect="non-scaling-stroke" d="
  M 118.29 85.00
  L 118.19 85.51
  A 1.00 1.00 0.0 0 0 119.30 86.69
  Q 120.95 86.48 122.00 85.04"
/>
<path stroke="#e9bb94" vector-effect="non-scaling-stroke" d="
  M 49.79 93.25
  C 50.41 92.21 54.01 84.87 51.49 83.52
  A 1.05 1.04 7.6 0 1 50.98 82.86
  C 50.21 79.54 55.86 76.19 50.16 74.45"
/>
<path stroke="#e9bb94" vector-effect="non-scaling-stroke" d="
  M 146.96 76.50
  Q 144.11 78.76 143.42 82.24"
/>
<path stroke="#e9bb94" vector-effect="non-scaling-stroke" d="
  M 141.83 96.10
  Q 144.53 97.94 147.30 95.87"
/>
<path stroke="#e9bb94" vector-effect="non-scaling-stroke" d="
  M 176.71 105.25
  C 172.16 106.41 168.21 114.27 175.23 112.35"
/>
<path stroke="#e9bb94" vector-effect="non-scaling-stroke" d="
  M 98.29 136.00
  L 99.40 130.12
  A 1.02 1.00 27.7 0 0 99.11 129.21
  Q 97.59 127.77 95.50 128.96"
/>
<path stroke="#e9bb94" vector-effect="non-scaling-stroke" d="
  M 118.75 143.21
  Q 117.26 146.15 120.25 147.04"
/>
<path stroke="#e9bb94" vector-effect="non-scaling-stroke" d="
  M 123.04 146.50
  Q 125.71 143.77 126.46 140.00"
/>
</g>
<path fill="#d27728" d="
  M 178.00 71.21
  Q 175.90 71.80 173.79 71.25
  Q 167.45 40.64 142.11 22.87
  A 1.00 1.00 0.0 0 0 140.73 23.09
  L 137.29 27.75
  L 135.71 23.25
  L 137.16 20.95
  A 1.00 1.00 0.0 0 0 136.81 19.55
  Q 121.12 10.52 102.72 9.14
  Q 96.86 9.57 93.43 9.36
  Q 88.19 9.05 79.00 7.71
  C 125.27 -3.73 167.91 25.50 178.00 71.21
  Z"
/>
<path fill="#ffffff" d="
  M 79.00 7.71
  Q 88.19 9.05 93.43 9.36
  Q 96.86 9.57 102.72 9.14
  Q 100.11 14.88 99.29 21.00
  Q 98.83 21.85 98.67 22.77
  Q 98.28 25.14 100.24 23.75
  Q 103.05 21.76 106.80 22.43
  Q 110.33 23.05 111.29 26.25
  Q 111.59 32.22 109.96 38.00
  L 109.04 42.00
  Q 108.78 48.79 114.44 44.01
  Q 115.41 41.92 115.21 39.50
  Q 116.15 33.68 119.00 28.54
  L 121.75 25.29
  Q 128.05 19.85 135.71 23.25
  L 137.29 27.75
  L 135.75 32.71
  L 133.14 35.80
  Q 129.15 38.78 124.64 39.44
  A 1.01 1.01 0.0 0 0 123.80 40.22
  C 122.98 44.08 125.92 46.52 129.46 45.50
  Q 130.61 45.17 131.94 44.50
  Q 134.17 43.39 133.01 45.59
  L 131.21 49.00
  L 127.25 51.21
  Q 120.47 52.82 116.28 47.94
  A 1.01 1.01 0.0 0 0 114.74 47.96
  Q 112.18 51.11 108.29 51.50
  C 100.76 52.25 100.81 46.12 101.21 40.75
  L 102.21 36.75
  Q 103.01 34.26 103.33 31.63
  C 103.74 28.34 101.84 25.26 98.55 29.08
  Q 96.51 31.45 96.25 36.71
  Q 95.56 38.58 95.65 40.47
  L 93.64 50.45
  A 1.00 1.00 0.0 0 1 92.66 51.25
  L 86.24 51.25
  A 1.00 1.00 0.0 0 1 85.26 50.04
  L 86.96 42.25
  Q 87.78 40.20 87.71 38.00
  L 90.46 25.75
  L 91.46 21.25
  L 92.59 15.44
  A 1.00 0.99 9.1 0 0 91.73 14.26
  L 86.42 13.60
  A 1.00 0.99 9.7 0 0 85.31 14.38
  L 83.54 22.75
  L 82.54 27.00
  L 79.54 40.25
  L 78.75 44.96
  L 77.26 50.37
  A 1.00 0.99 6.6 0 1 76.32 51.11
  L 69.29 51.25
  L 69.71 46.25
  Q 72.13 38.79 73.09 30.54
  Q 74.26 28.52 74.25 25.79
  L 76.67 14.23
  A 1.00 0.99 -88.6 0 0 75.54 13.04
  Q 63.81 14.93 66.07 27.20
  A 1.00 1.00 0.0 0 1 64.91 28.36
  Q 58.60 27.28 60.59 19.63
  Q 61.83 16.19 64.25 13.04
  Q 70.88 8.44 79.00 7.71
  Z
  M 130.04 33.50
  Q 132.33 31.69 132.21 28.75
  Q 133.80 24.81 130.19 25.08
  A 1.00 0.99 17.9 0 0 129.50 25.43
  Q 125.83 29.77 124.53 35.28
  A 1.00 1.00 0.0 0 0 125.74 36.48
  Q 128.39 35.83 130.04 33.50
  Z"
/>
<path fill="#d27728" d="
  M 64.25 13.04
  Q 61.83 16.19 60.59 19.63
  Q 55.42 21.96 51.25 25.51
  A 1.01 0.99 26.6 0 1 50.50 25.75
  Q 48.22 25.51 48.51 23.14
  A 1.00 0.98 74.5 0 1 48.87 22.49
  Q 55.88 16.66 64.25 13.04
  Z"
/>
<path fill="#d27728" d="
  M 99.29 21.00
  Q 110.93 21.03 121.75 25.29
  L 119.00 28.54
  L 111.29 26.25
  Q 110.33 23.05 106.80 22.43
  Q 103.05 21.76 100.24 23.75
  Q 98.28 25.14 98.67 22.77
  Q 98.83 21.85 99.29 21.00
  Z"
/>
<path fill="#d27728" d="
  M 91.46 21.25
  L 90.46 25.75
  Q 86.43 25.88 82.54 27.00
  L 83.54 22.75
  L 91.46 21.25
  Z"
/>
<path fill="#d27728" d="
  M 74.25 25.79
  Q 74.26 28.52 73.09 30.54
  Q 44.39 44.57 38.39 76.22
  Q 34.40 82.36 33.11 89.36
  L 23.11 89.03
  A 1.00 1.00 0.0 0 0 22.08 90.12
  L 22.75 97.46
  Q 20.68 98.14 18.75 97.21
  Q 16.48 80.16 20.89 63.46
  Q 22.78 59.72 26.71 59.00
  Q 22.32 71.06 21.92 83.97
  A 0.99 0.99 0.0 0 0 22.92 85.00
  L 32.69 84.99
  A 1.00 1.00 0.0 0 0 33.69 84.03
  Q 34.64 60.04 50.59 42.34
  Q 60.50 31.33 74.25 25.79
  Z"
/>
<path fill="#d27728" d="
  M 132.21 28.75
  Q 132.33 31.69 130.04 33.50
  Q 130.02 30.63 132.21 28.75
  Z"
/>
<path fill="#d27728" d="
  M 135.75 32.71
  Q 150.63 42.89 157.75 59.46
  Q 155.58 60.34 155.21 62.75
  Q 147.96 46.14 133.14 35.80
  L 135.75 32.71
  Z"
/>
<path fill="#d27728" d="
  M 28.25 55.71
  L 24.00 55.46
  C 24.74 53.59 35.98 28.37 39.01 36.78
  A 1.02 1.01 55.1 0 1 38.84 37.76
  Q 32.14 45.95 28.25 55.71
  Z"
/>
<path fill="#d27728" d="
  M 102.21 36.75
  L 101.21 40.75
  C 99.17 39.26 100.07 50.61 100.11 51.50
  A 1.00 1.00 0.0 0 0 101.00 52.45
  Q 117.55 54.23 126.76 67.84
  A 1.01 1.00 57.2 0 0 128.11 68.14
  L 136.39 63.12
  A 0.99 0.99 0.0 0 0 136.71 61.73
  Q 132.83 55.65 127.25 51.21
  L 131.21 49.00
  Q 141.27 58.22 145.50 71.21
  L 141.79 72.50
  L 139.51 67.27
  A 1.00 1.00 0.0 0 0 138.07 66.81
  L 129.71 72.00
  Q 126.84 70.82 123.75 70.71
  Q 115.81 58.24 101.11 56.56
  A 1.00 0.99 -86.7 0 0 100.00 57.55
  L 100.00 67.34
  A 1.00 1.00 0.0 0 0 100.79 68.32
  Q 109.29 70.15 113.29 76.25
  L 110.96 79.75
  Q 108.04 74.27 102.03 72.82
  Q 97.14 69.66 92.15 72.43
  Q 90.62 73.28 89.14 75.00
  A 1.00 1.00 0.0 0 1 87.50 74.81
  L 86.54 73.00
  Q 90.25 69.65 95.22 68.54
  A 0.99 0.99 0.0 0 0 96.00 67.57
  L 96.00 57.63
  A 1.00 1.00 0.0 0 0 94.85 56.64
  Q 90.15 57.38 85.82 59.35
  A 1.05 1.00 37.2 0 1 85.21 59.42
  Q 82.47 58.89 83.46 56.31
  A 0.98 0.97 -2.4 0 1 83.97 55.76
  Q 89.28 53.26 95.09 52.66
  A 1.00 1.00 0.0 0 0 95.98 51.63
  L 95.65 40.47
  Q 95.56 38.58 96.25 36.71
  L 102.21 36.75
  Z"
/>
<path fill="#d27728" d="
  M 87.71 38.00
  Q 87.78 40.20 86.96 42.25
  L 78.75 44.96
  L 79.54 40.25
  L 87.71 38.00
  Z"
/>
<path fill="#d27728" d="
  M 109.96 38.00
  L 115.21 39.50
  Q 115.41 41.92 114.44 44.01
  Q 111.89 42.22 109.04 42.00
  L 109.96 38.00
  Z"
/>
<path fill="#d27728" d="
  M 69.71 46.25
  L 69.29 51.25
  Q 59.25 59.85 55.46 72.50
  L 51.47 71.01
  Q 56.69 55.78 69.71 46.25
  Z"
/>
<path fill="#ffffff" d="
  M 24.00 55.46
  L 28.25 55.71
  Q 35.42 57.11 35.97 63.54
  C 36.37 68.09 34.32 70.68 29.36 69.42
  Q 27.51 68.95 28.94 67.70
  C 31.51 65.45 32.64 58.37 26.71 59.00
  Q 22.78 59.72 20.89 63.46
  C 17.26 69.53 8.47 93.53 18.75 97.21
  Q 20.68 98.14 22.75 97.46
  Q 28.60 97.35 32.48 93.06
  A 1.06 1.02 -21.6 0 0 32.73 92.51
  L 33.11 89.36
  Q 34.40 82.36 38.39 76.22
  Q 43.65 70.55 51.47 71.01
  L 55.46 72.50
  Q 57.94 75.84 58.07 80.05
  A 0.99 0.99 0.0 0 0 59.29 80.99
  L 63.22 80.08
  A 1.00 0.99 -1.4 0 0 63.97 79.30
  L 65.34 72.34
  A 1.00 1.00 0.0 0 1 66.20 71.54
  L 68.54 71.25
  L 73.33 71.40
  Q 73.52 71.40 73.69 71.42
  A 0.80 0.80 0.0 0 1 74.37 72.41
  L 74.20 73.06
  Q 73.83 74.54 75.02 73.58
  Q 76.03 72.77 77.15 72.21
  Q 82.23 69.69 86.54 73.00
  L 87.50 74.81
  A 1.00 1.00 0.0 0 0 89.14 75.00
  Q 90.62 73.28 92.15 72.43
  Q 97.14 69.66 102.03 72.82
  C 105.51 78.26 102.43 86.07 101.13 91.85
  C 100.52 94.52 100.39 98.26 104.58 96.84
  Q 107.52 95.85 107.71 92.76
  Q 108.14 85.95 110.96 79.75
  L 113.29 76.25
  Q 117.51 71.61 123.75 70.71
  Q 126.84 70.82 129.71 72.00
  Q 132.23 75.30 131.46 79.50
  Q 128.96 85.93 122.75 88.96
  L 117.78 90.15
  A 1.00 1.00 0.0 0 0 117.01 91.07
  Q 116.51 101.17 126.29 96.50
  Q 129.61 95.17 131.71 92.25
  Q 132.42 80.02 141.79 72.50
  L 145.50 71.21
  Q 148.64 70.93 151.59 71.86
  A 0.98 0.96 -6.5 0 1 152.14 72.29
  L 152.28 72.51
  Q 153.16 73.91 153.46 72.29
  L 155.21 62.75
  Q 155.58 60.34 157.75 59.46
  L 163.91 59.16
  A 1.01 1.00 3.8 0 1 164.95 60.34
  L 162.29 74.50
  L 159.54 87.00
  Q 158.14 91.30 157.94 95.85
  A 1.01 1.00 -84.6 0 0 158.80 96.89
  C 164.30 97.69 165.00 93.41 166.04 88.76
  Q 167.87 80.57 169.60 72.32
  A 0.99 0.99 0.0 0 1 170.49 71.53
  L 173.79 71.25
  Q 175.90 71.80 178.00 71.21
  Q 178.73 72.80 178.44 74.73
  L 174.79 90.50
  Q 173.74 93.41 174.71 96.25
  Q 177.08 97.63 179.32 95.41
  Q 183.16 84.10 185.08 72.34
  A 1.01 1.00 -85.3 0 1 186.07 71.50
  L 193.09 71.50
  A 1.00 0.99 -84.1 0 1 194.06 72.70
  Q 190.76 88.79 187.32 104.78
  C 185.41 113.69 182.90 119.55 172.80 118.12
  L 169.29 116.00
  Q 165.49 107.85 173.47 103.95
  L 177.50 102.46
  Q 179.06 102.40 179.15 101.29
  Q 179.29 99.64 178.08 100.77
  Q 177.67 101.15 177.46 101.75
  L 173.00 103.29
  Q 167.81 103.63 165.74 99.43
  A 1.00 1.00 0.0 0 0 164.17 99.14
  L 161.29 101.76
  C 158.08 102.85 152.56 103.54 150.54 100.50
  Q 149.67 96.06 147.96 99.50
  Q 144.65 102.74 140.04 103.25
  Q 134.08 102.62 132.29 97.35
  A 1.00 0.99 -30.2 0 0 130.68 96.93
  Q 129.69 97.81 129.15 99.10
  L 122.48 102.60
  Q 114.79 104.73 109.50 99.96
  Q 109.39 99.46 109.17 99.05
  A 1.00 1.00 0.0 0 0 107.54 98.86
  Q 105.11 101.62 101.75 103.21
  L 101.50 103.29
  Q 94.29 104.11 92.03 97.66
  Q 92.75 89.64 94.68 82.88
  Q 95.27 80.82 94.74 78.75
  Q 94.29 76.95 92.73 76.90
  C 87.87 76.75 86.42 88.68 86.00 91.96
  L 84.70 97.27
  L 83.61 101.92
  A 1.01 1.00 -83.7 0 1 82.65 102.70
  L 75.25 102.79
  Q 74.31 102.59 74.67 102.11
  L 77.21 89.00
  Q 78.07 87.11 78.00 85.04
  C 78.96 82.74 80.42 77.50 77.32 76.70
  A 1.00 0.97 34.7 0 0 76.53 76.83
  Q 72.30 79.56 71.79 84.75
  L 71.04 89.00
  L 68.20 101.93
  A 1.01 1.01 0.0 0 1 67.24 102.72
  L 60.15 102.82
  A 1.00 1.00 0.0 0 1 59.15 101.62
  L 61.71 89.00
  Q 62.61 87.12 62.50 85.04
  Q 62.66 84.83 62.77 84.60
  Q 63.90 82.27 61.49 83.24
  L 57.67 84.79
  L 57.29 88.75
  L 54.25 96.46
  L 51.15 99.87
  Q 46.49 103.49 41.00 102.96
  L 35.54 101.25
  L 33.67 97.59
  A 1.00 1.00 0.0 0 0 32.08 97.33
  Q 28.56 100.80 23.96 102.75
  L 19.67 103.49
  C -3.76 106.48 3.23 74.72 10.57 64.24
  Q 15.24 57.57 24.00 55.46
  Z
  M 118.29 85.00
  L 118.19 85.51
  A 1.00 1.00 0.0 0 0 119.30 86.69
  Q 120.95 86.48 122.00 85.04
  Q 127.68 81.61 126.15 75.06
  A 1.00 1.00 0.0 0 0 125.40 74.31
  C 121.85 73.51 118.75 82.32 118.29 85.00
  Z
  M 49.79 93.25
  C 50.41 92.21 54.01 84.87 51.49 83.52
  A 1.05 1.04 7.6 0 1 50.98 82.86
  C 50.21 79.54 55.86 76.19 50.16 74.45
  Q 41.19 82.27 42.49 94.47
  C 43.12 100.39 48.63 96.37 49.79 93.25
  Z
  M 146.96 76.50
  Q 144.11 78.76 143.42 82.24
  Q 140.07 88.82 141.83 96.10
  Q 144.53 97.94 147.30 95.87
  Q 150.56 88.39 151.99 80.33
  C 152.61 76.87 151.62 72.39 146.96 76.50
  Z
  M 176.71 105.25
  C 172.16 106.41 168.21 114.27 175.23 112.35
  Q 177.87 109.30 178.05 105.38
  Q 178.13 103.69 176.95 104.91
  Q 176.82 105.05 176.71 105.25
  Z"
/>
<path fill="#d27728" d="
  M 73.33 71.40
  L 68.54 71.25
  L 72.10 65.51
  A 0.96 0.96 0.0 0 1 72.77 65.06
  Q 74.61 64.73 75.34 66.42
  A 1.00 1.00 0.0 0 1 75.32 67.25
  L 73.33 71.40
  Z"
/>
<path fill="#d27728" d="
  M 162.29 74.50
  C 162.95 77.25 165.95 91.50 159.54 87.00
  L 162.29 74.50
  Z"
/>
<path fill="#d27728" d="
  M 50.16 74.45
  C 55.86 76.19 50.21 79.54 50.98 82.86
  A 1.05 1.04 7.6 0 0 51.49 83.52
  C 54.01 84.87 50.41 92.21 49.79 93.25
  Q 49.10 84.23 50.16 74.45
  Z"
/>
<path fill="#d27728" d="
  M 178.44 74.73
  L 179.32 95.41
  Q 177.08 97.63 174.71 96.25
  Q 175.30 93.38 174.79 90.50
  L 178.44 74.73
  Z"
/>
<path fill="#d27728" d="
  M 146.96 76.50
  Q 148.29 86.01 147.30 95.87
  Q 144.53 97.94 141.83 96.10
  C 144.20 96.04 143.63 84.10 143.42 82.24
  Q 144.11 78.76 146.96 76.50
  Z"
/>
<path fill="#d27728" d="
  M 131.46 79.50
  Q 132.28 85.85 131.71 92.25
  Q 129.61 95.17 126.29 96.50
  L 127.69 90.40
  A 1.00 0.99 8.2 0 0 126.77 89.18
  L 122.75 88.96
  Q 128.96 85.93 131.46 79.50
  Z"
/>
<path fill="#d27728" d="
  M 71.79 84.75
  L 78.00 85.04
  Q 78.07 87.11 77.21 89.00
  L 71.04 89.00
  L 71.79 84.75
  Z"
/>
<path fill="#d27728" d="
  M 57.67 84.79
  L 62.50 85.04
  Q 62.61 87.12 61.71 89.00
  L 57.29 88.75
  L 57.67 84.79
  Z"
/>
<path fill="#d27728" d="
  M 118.29 85.00
  L 122.00 85.04
  Q 120.95 86.48 119.30 86.69
  A 1.00 1.00 0.0 0 1 118.19 85.51
  L 118.29 85.00
  Z"
/>
<path fill="#d27728" d="
  M 86.00 91.96
  Q 88.25 95.83 92.03 97.66
  Q 94.29 104.11 101.50 103.29
  Q 91.50 104.63 84.70 97.27
  L 86.00 91.96
  Z"
/>
<path fill="#d27728" d="
  M 54.25 96.46
  Q 57.69 108.86 66.50 118.21
  L 64.04 121.25
  Q 63.65 120.26 62.81 119.80
  A 0.99 0.99 0.0 0 0 61.62 119.97
  L 54.71 126.93
  A 1.00 1.00 0.0 0 0 54.72 128.34
  L 56.46 130.09
  A 1.05 1.05 0.0 0 1 56.74 130.66
  Q 57.09 133.12 54.69 133.30
  A 1.00 0.99 64.8 0 1 53.93 133.02
  Q 47.70 127.12 43.16 119.84
  A 1.04 1.00 -58.7 0 1 43.01 119.18
  Q 43.32 116.84 45.64 117.19
  A 1.01 1.00 -13.9 0 1 46.31 117.59
  L 50.73 123.78
  A 1.00 1.00 0.0 0 0 52.26 123.89
  L 59.18 116.82
  A 1.00 0.99 -41.0 0 0 59.28 115.53
  Q 54.01 108.31 51.15 99.87
  L 54.25 96.46
  Z"
/>
<path fill="#d27728" d="
  M 109.50 99.96
  Q 106.05 102.63 101.75 103.21
  Q 105.11 101.62 107.54 98.86
  A 1.00 1.00 0.0 0 1 109.17 99.05
  Q 109.39 99.46 109.50 99.96
  Z"
/>
<path fill="#d27728" d="
  M 129.15 99.10
  Q 120.74 117.08 100.99 119.31
  A 0.99 0.99 0.0 0 0 100.13 120.09
  Q 99.51 122.91 100.50 125.79
  Q 100.38 128.35 99.83 126.36
  A 1.00 0.98 89.8 0 0 99.15 125.67
  L 96.04 124.75
  L 95.95 120.17
  A 1.00 0.99 3.7 0 0 95.09 119.20
  Q 88.84 118.31 83.04 115.75
  Q 83.42 114.39 83.08 113.16
  A 1.00 0.99 81.4 0 0 82.10 112.43
  L 77.79 112.50
  Q 73.64 108.55 70.35 103.85
  A 1.02 1.00 30.4 0 1 70.17 103.19
  Q 70.53 98.60 74.67 102.11
  Q 74.31 102.59 75.25 102.79
  L 75.12 103.01
  A 0.65 0.65 0.0 0 0 75.16 103.74
  C 87.47 119.26 111.17 119.55 122.48 102.60
  L 129.15 99.10
  Z"
/>
<path fill="#d27728" d="
  M 147.96 99.50
  Q 148.97 100.84 150.54 100.50
  C 152.56 103.54 158.08 102.85 161.29 101.76
  Q 154.67 127.61 132.00 141.26
  L 133.04 136.00
  Q 148.22 125.32 155.22 108.14
  A 1.01 1.00 21.6 0 0 154.65 106.83
  L 145.69 103.35
  A 1.00 1.00 0.0 0 0 144.41 103.88
  L 143.21 106.66
  A 1.01 0.97 -83.3 0 1 142.50 107.24
  Q 138.47 108.11 140.04 103.25
  Q 144.65 102.74 147.96 99.50
  Z"
/>
<path fill="#d27728" d="
  M 35.54 101.25
  L 41.00 102.96
  Q 40.84 102.94 40.70 102.95
  A 0.64 0.63 77.2 0 0 40.16 103.81
  L 40.91 105.80
  A 0.99 0.98 52.7 0 1 40.79 106.73
  C 37.53 111.30 35.89 103.61 35.54 101.25
  Z"
/>
<path fill="#d27728" d="
  M 177.46 101.75
  L 177.50 102.46
  L 173.47 103.95
  L 173.00 103.29
  L 177.46 101.75
  Z"
/>
<path fill="#d27728" d="
  M 23.96 102.75
  Q 30.17 130.30 53.14 147.63
  A 1.00 1.00 0.0 0 0 54.56 147.40
  L 62.32 136.29
  A 1.01 1.01 0.0 0 1 63.67 136.01
  L 69.71 139.75
  L 68.96 144.00
  L 64.63 141.58
  A 1.00 0.99 -57.7 0 0 63.33 141.88
  L 57.85 149.61
  A 1.00 0.99 -56.2 0 0 58.13 151.03
  Q 69.30 158.13 82.29 160.75
  C 85.45 163.33 92.13 167.39 95.23 164.25
  Q 97.19 162.26 97.64 158.60
  A 1.00 1.00 0.0 0 0 96.60 157.48
  L 96.04 157.50
  Q 96.64 153.82 95.10 150.32
  Q 95.24 149.60 95.70 149.03
  A 1.00 1.00 0.0 0 1 97.38 149.24
  Q 98.36 151.32 100.33 152.18
  Q 99.62 156.97 100.15 161.75
  A 1.00 1.00 0.0 0 0 101.19 162.64
  Q 125.61 161.51 144.99 147.07
  C 146.80 145.73 149.39 145.51 148.88 148.68
  A 0.99 0.97 76.2 0 1 148.50 149.32
  C 100.96 186.02 34.06 161.48 19.67 103.49
  L 23.96 102.75
  Z"
/>
<path fill="#d27728" d="
  M 176.71 105.25
  L 175.23 112.35
  C 168.21 114.27 172.16 106.41 176.71 105.25
  Z"
/>
<path fill="#ffffff" d="
  M 83.04 115.75
  Q 81.19 121.60 80.50 127.71
  Q 79.49 129.44 79.50 131.46
  L 77.04 143.00
  L 76.25 146.96
  L 75.45 150.10
  A 1.01 1.00 19.5 0 0 76.01 151.26
  C 82.14 154.01 89.10 159.25 96.04 157.50
  L 96.60 157.48
  A 1.00 1.00 0.0 0 1 97.64 158.60
  Q 97.19 162.26 95.23 164.25
  C 92.13 167.39 85.45 163.33 82.29 160.75
  Q 78.18 156.98 73.72 154.78
  Q 71.37 153.63 68.23 153.37
  A 1.00 1.00 0.0 0 1 67.33 152.18
  L 68.96 144.00
  L 69.71 139.75
  Q 71.65 133.66 72.25 127.29
  L 73.46 123.25
  L 74.52 118.21
  Q 75.06 115.68 72.96 117.19
  Q 71.08 118.55 69.46 120.50
  Q 68.07 122.40 67.79 124.75
  Q 67.29 127.52 67.65 130.37
  A 1.00 1.00 0.0 0 1 66.55 131.49
  Q 63.13 131.11 62.54 127.75
  Q 61.98 124.59 64.04 121.25
  L 66.50 118.21
  Q 71.51 114.12 77.79 112.50
  L 82.10 112.43
  A 1.00 0.99 81.4 0 1 83.08 113.16
  Q 83.42 114.39 83.04 115.75
  Z"
/>
<path fill="#ffffff" d="
  M 122.79 124.00
  Q 122.50 124.38 122.38 124.77
  Q 121.85 126.46 123.47 125.74
  Q 125.89 124.66 128.50 125.46
  C 133.18 127.20 132.64 132.08 133.04 136.00
  L 132.00 141.26
  C 129.50 149.08 118.40 157.68 111.25 149.46
  Q 110.26 146.39 110.00 149.71
  C 106.78 151.21 104.35 153.15 100.33 152.18
  Q 98.36 151.32 97.38 149.24
  A 1.00 1.00 0.0 0 0 95.70 149.03
  Q 95.24 149.60 95.10 150.32
  Q 87.54 155.46 82.50 148.71
  L 81.71 144.25
  Q 82.09 138.37 84.46 133.00
  L 86.50 129.79
  Q 90.21 125.33 96.04 124.75
  L 99.15 125.67
  A 1.00 0.98 89.8 0 1 99.83 126.36
  Q 100.38 128.35 100.50 125.79
  Q 103.83 124.80 107.24 125.32
  A 1.00 0.99 -81.9 0 1 108.08 126.45
  L 107.54 130.25
  Q 106.59 132.27 106.54 134.50
  C 105.86 137.08 103.39 146.21 105.00 146.54
  Q 107.17 149.11 108.75 146.04
  C 111.32 144.27 112.28 136.30 112.96 133.25
  L 113.71 128.75
  L 116.50 116.27
  A 1.01 1.00 2.0 0 1 117.34 115.50
  L 123.17 114.67
  A 1.00 1.00 0.0 0 1 124.30 115.84
  L 122.79 124.00
  Z
  M 95.50 128.96
  Q 88.79 135.80 90.11 145.48
  A 0.99 0.98 -84.2 0 0 90.76 146.28
  C 97.15 148.63 97.74 140.02 98.29 136.00
  L 99.40 130.12
  A 1.02 1.00 27.7 0 0 99.11 129.21
  Q 97.59 127.77 95.50 128.96
  Z
  M 118.75 143.21
  Q 117.26 146.15 120.25 147.04
  Q 121.78 147.89 123.04 146.50
  Q 125.71 143.77 126.46 140.00
  C 127.50 136.82 128.90 125.96 121.85 129.72
  A 0.99 0.98 81.8 0 0 121.34 130.41
  L 118.75 143.21
  Z"
/>
<path fill="#d27728" d="
  M 128.50 125.46
  Q 125.89 124.66 123.47 125.74
  Q 121.85 126.46 122.38 124.77
  Q 122.50 124.38 122.79 124.00
  Q 127.60 121.12 132.22 116.05
  A 1.00 1.00 0.0 0 1 133.11 115.73
  C 135.79 116.13 135.70 118.31 134.06 119.83
  Q 131.14 122.53 128.50 125.46
  Z"
/>
<path fill="#d27728" d="
  M 169.29 116.00
  L 172.80 118.12
  Q 168.07 128.04 161.25 136.70
  A 0.97 0.94 13.7 0 1 160.64 137.06
  Q 158.17 137.50 157.96 135.02
  A 1.02 1.01 -28.4 0 1 158.17 134.32
  Q 164.80 125.81 169.29 116.00
  Z"
/>
<path fill="#d27728" d="
  M 69.46 120.50
  Q 71.01 122.54 73.46 123.25
  L 72.25 127.29
  L 67.79 124.75
  Q 68.07 122.40 69.46 120.50
  Z"
/>
<path fill="#d27728" d="
  M 80.50 127.71
  L 86.50 129.79
  L 84.46 133.00
  L 79.50 131.46
  Q 79.49 129.44 80.50 127.71
  Z"
/>
<path fill="#d27728" d="
  M 98.29 136.00
  L 96.47 134.47
  A 1.00 0.99 -74.0 0 1 96.12 133.83
  L 95.50 128.96
  Q 97.59 127.77 99.11 129.21
  A 1.02 1.00 27.7 0 1 99.40 130.12
  L 98.29 136.00
  Z"
/>
<path fill="#d27728" d="
  M 113.71 128.75
  L 112.96 133.25
  L 106.54 134.50
  Q 106.59 132.27 107.54 130.25
  L 113.71 128.75
  Z"
/>
<path fill="#d27728" d="
  M 126.46 140.00
  Q 125.71 143.77 123.04 146.50
  Q 121.52 145.96 120.25 147.04
  Q 117.26 146.15 118.75 143.21
  L 126.46 140.00
  Z"
/>
<path fill="#d27728" d="
  M 77.04 143.00
  L 81.71 144.25
  L 82.50 148.71
  L 76.25 146.96
  L 77.04 143.00
  Z"
/>
<path fill="#d27728" d="
  M 108.75 146.04
  Q 107.17 149.11 105.00 146.54
  L 108.75 146.04
  Z"
/>
<path fill="#d27728" d="
  M 111.25 149.46
  L 110.00 149.71
  Q 110.26 146.39 111.25 149.46
  Z"
/>
</svg>
