<?xml version="1.0" encoding="UTF-8" standalone="no"?>
<!DOCTYPE svg PUBLIC "-//W3C//DTD SVG 1.1//EN" "http://www.w3.org/Graphics/SVG/1.1/DTD/svg11.dtd">
<svg xmlns="http://www.w3.org/2000/svg" version="1.1" viewBox="0 0 890 1820">
<path fill="#000000" d="
  M 331.09 269.35
  A 1.10 1.08 -7.6 0 1 330.16 268.65
  C 328.79 265.02 337.55 265.17 339.62 264.82
  C 342.62 264.31 347.24 264.37 351.06 262.57
  C 367.41 254.86 378.65 247.03 381.01 228.49
  Q 381.75 222.70 382.75 216.95
  C 383.15 214.67 382.53 213.55 381.31 211.78
  Q 381.02 211.36 381.08 210.85
  C 381.28 209.08 382.65 208.10 384.21 209.35
  C 386.42 211.14 386.01 213.07 386.50 215.43
  C 388.62 225.53 390.12 236.66 394.03 246.22
  A 0.66 0.65 65.4 0 0 394.93 246.56
  C 401.21 243.41 403.57 238.27 406.07 231.19
  Q 412.89 211.88 418.44 192.18
  Q 418.56 191.75 418.91 191.47
  Q 420.28 190.38 421.49 191.58
  Q 421.91 191.98 421.86 192.55
  C 421.53 196.69 419.59 200.80 418.93 204.22
  Q 415.91 219.98 410.54 241.51
  C 407.60 253.28 408.56 268.39 424.90 267.96
  C 427.74 267.89 447.99 267.36 447.97 270.69
  A 1.89 1.88 -1.8 0 1 446.21 272.56
  Q 430.22 273.74 415.42 278.35
  C 403.31 282.13 395.42 285.44 391.62 297.32
  C 387.93 308.87 387.32 322.81 385.91 335.15
  A 1.77 1.76 -88.8 0 1 384.29 336.71
  Q 382.28 336.86 382.35 334.49
  Q 382.95 313.69 380.58 297.44
  C 377.73 277.99 366.29 263.00 344.07 268.42
  Q 338.02 269.89 331.09 269.35
  Z
  M 384.59 226.30
  C 383.13 245.08 373.38 255.50 356.97 263.31
  A 0.69 0.69 0.0 0 0 357.27 264.63
  C 377.62 264.56 384.05 291.72 385.05 307.39
  A 0.43 0.43 0.0 0 0 385.91 307.43
  C 387.63 295.89 390.96 285.36 402.51 279.50
  Q 411.57 274.91 425.67 272.46
  Q 425.85 272.43 425.91 272.26
  Q 425.96 272.12 426.01 271.99
  Q 426.11 271.68 425.79 271.68
  C 403.34 271.39 403.40 250.41 408.96 234.84
  Q 409.04 234.60 408.81 234.50
  C 408.47 234.35 404.84 242.20 404.29 242.95
  C 402.51 245.38 397.19 250.47 393.93 250.27
  C 389.28 249.98 386.14 230.24 385.56 226.27
  A 0.49 0.49 0.0 0 0 384.59 226.30
  Z"
/>
<path fill="#000000" d="
  M 421.44 413.31
  C 415.90 408.54 409.99 401.06 410.55 393.48
  C 411.49 381.00 416.60 367.20 430.01 363.71
  C 448.16 358.99 469.03 362.83 486.23 369.88
  A 0.45 0.44 36.0 0 1 486.35 370.63
  C 482.98 373.49 479.31 376.19 476.62 379.53
  C 464.25 394.91 458.65 415.82 465.00 434.88
  Q 465.20 435.49 464.57 435.34
  Q 440.56 429.78 421.44 413.31
  Z
  M 458.84 409.66
  C 459.28 406.94 457.79 406.18 457.08 404.32
  Q 451.82 390.43 448.19 376.01
  C 447.93 374.98 447.52 365.83 445.78 366.52
  Q 445.30 366.71 445.34 367.23
  Q 446.28 377.42 449.70 388.06
  C 452.26 396.01 454.44 403.99 457.74 409.86
  A 0.59 0.59 0.0 0 0 458.84 409.66
  Z
  M 434.71 369.11
  Q 437.62 383.29 441.61 397.22
  C 443.76 404.69 446.86 414.79 451.30 422.48
  Q 451.60 423.01 452.12 422.69
  Q 452.95 422.18 452.43 421.06
  Q 443.54 401.79 439.25 381.81
  C 438.32 377.50 437.84 371.16 435.88 367.30
  A 0.52 0.52 0.0 0 0 434.93 367.35
  Q 434.56 368.35 434.71 369.11
  Z
  M 454.89 367.87
  C 453.59 369.93 459.91 388.49 461.18 391.98
  A 2.19 0.84 16.6 0 0 462.47 392.97
  C 462.92 393.16 463.05 392.35 462.91 391.95
  Q 458.89 380.23 455.98 368.05
  A 0.60 0.60 0.0 0 0 454.89 367.87
  Z
  M 466.8534 369.9807
  A 0.79 0.79 0.0 0 0 465.8928 369.4103
  L 465.7184 369.4548
  A 0.79 0.79 0.0 0 0 465.1480 370.4154
  L 468.1466 382.1793
  A 0.79 0.79 0.0 0 0 469.1072 382.7497
  L 469.2816 382.7052
  A 0.79 0.79 0.0 0 0 469.8520 381.7446
  L 466.8534 369.9807
  Z
  M 475.0414 375.1734
  A 3.03 0.96 71.5 0 0 474.9904 371.9954
  A 3.03 0.96 71.5 0 0 473.1186 369.4266
  A 3.03 0.96 71.5 0 0 473.1696 372.6046
  A 3.03 0.96 71.5 0 0 475.0414 375.1734
  Z
  M 424.62 372.15
  C 424.52 378.14 426.20 385.67 427.84 391.44
  Q 431.30 403.59 436.91 415.79
  A 0.71 0.69 -9.8 0 0 437.50 416.19
  C 438.59 416.25 438.36 414.69 438.06 414.02
  Q 431.57 399.93 428.01 384.82
  C 427.64 383.24 427.56 381.38 427.08 379.64
  C 426.41 377.21 426.72 374.38 425.37 371.96
  Q 424.65 370.67 424.62 372.15
  Z
  M 427.71 414.04
  A 0.33 0.32 25.8 0 0 428.15 413.89
  Q 428.47 413.22 428.10 412.42
  C 424.19 403.88 419.39 392.46 419.22 382.99
  A 0.56 0.56 0.0 0 0 418.54 382.45
  C 414.29 383.40 424.94 409.80 426.32 413.02
  C 426.64 413.77 427.08 413.74 427.71 414.04
  Z
  M 415.7488 391.2308
  A 0.56 0.56 0.0 0 0 415.0608 390.8384
  L 414.4049 391.0178
  A 0.56 0.56 0.0 0 0 414.0126 391.7057
  L 417.4112 404.1292
  A 0.56 0.56 0.0 0 0 418.0992 404.5216
  L 418.7551 404.3422
  A 0.56 0.56 0.0 0 0 419.1474 403.6543
  L 415.7488 391.2308
  Z"
/>
<path fill="#000000" d="
  M 467.27 435.52
  Q 465.79 432.92 465.42 429.98
  Q 465.36 429.48 465.09 429.05
  Q 464.11 427.47 464.57 425.49
  Q 464.69 424.98 464.54 424.48
  C 463.07 419.32 464.13 414.69 464.75 410.54
  Q 466.97 395.75 475.58 383.58
  C 477.07 381.47 486.76 369.74 490.89 371.78
  Q 498.34 375.46 504.87 380.60
  Q 505.28 380.92 504.90 381.29
  C 490.40 395.57 482.04 416.44 486.29 437.02
  Q 486.43 437.70 485.74 437.73
  Q 476.81 438.08 468.10 436.13
  Q 467.55 436.01 467.27 435.52
  Z"
/>
<path fill="#000000" d="
  M 493.89 437.43
  A 1.59 1.58 -6.2 0 1 492.39 436.23
  C 487.96 418.53 496.03 398.88 508.48 386.42
  A 2.80 2.80 0.0 0 1 512.23 386.23
  Q 526.74 398.10 544.82 403.14
  A 1.04 1.04 0.0 0 1 545.43 404.69
  C 538.46 416.27 534.79 427.85 530.65 442.09
  Q 530.49 442.67 529.90 442.57
  C 525.48 441.88 520.96 439.92 514.22 438.68
  C 507.63 437.47 500.71 437.65 493.89 437.43
  Z"
/>
<path fill="#000000" d="
  M 552.17 457.52
  Q 550.86 457.18 551.24 458.48
  L 570.31 523.19
  Q 570.47 523.73 571.03 523.74
  C 575.39 523.78 580.45 523.31 581.16 529.06
  C 581.65 533.03 582.41 542.79 577.45 543.51
  Q 576.90 543.59 576.67 544.09
  C 575.97 545.56 576.84 547.02 576.83 548.29
  Q 575.96 738.36 575.90 928.50
  A 0.22 0.21 54.0 0 0 576.32 928.57
  C 589.17 886.70 603.99 845.19 621.21 804.85
  Q 645.52 747.86 651.72 732.49
  C 662.48 705.82 671.47 680.52 677.13 653.28
  Q 688.60 598.07 674.84 543.43
  C 667.75 515.24 657.27 488.29 642.15 463.43
  C 641.24 461.93 639.86 460.66 638.63 459.45
  A 1.84 1.83 50.5 0 1 638.90 456.61
  C 642.18 454.45 643.96 457.36 645.74 460.23
  C 663.78 489.29 675.65 522.04 682.42 555.42
  C 699.95 641.88 664.00 717.57 629.75 796.96
  Q 598.62 869.15 576.64 944.62
  C 575.99 946.88 575.90 948.99 575.89 951.25
  Q 575.12 1110.37 575.01 1269.50
  Q 575.01 1269.78 574.90 1270.06
  Q 574.74 1270.50 574.74 1270.98
  L 574.23 1525.52
  A 0.76 0.75 0.4 0 0 574.98 1526.27
  C 592.07 1526.46 609.78 1528.20 626.12 1531.33
  C 642.01 1534.38 677.74 1543.54 681.84 1562.64
  C 686.65 1585.07 646.33 1596.79 631.47 1599.94
  C 588.88 1608.98 541.39 1609.09 499.03 1598.61
  C 486.73 1595.57 474.14 1591.09 464.10 1583.40
  C 450.12 1572.71 452.23 1556.16 467.05 1547.80
  Q 472.83 1544.55 472.91 1544.50
  C 482.81 1538.54 495.13 1535.17 506.35 1532.75
  Q 534.11 1526.76 562.61 1526.29
  A 0.60 0.60 0.0 0 0 563.20 1525.69
  Q 563.28 1420.93 563.57 1316.18
  C 563.58 1309.80 560.49 1302.36 559.27 1296.50
  Q 550.40 1253.78 543.79 1206.74
  Q 542.89 1200.33 541.86 1182.44
  Q 540.95 1166.46 541.85 1133.26
  Q 543.71 1065.34 558.38 999.03
  Q 560.93 987.51 563.41 975.98
  Q 564.44 971.20 564.46 966.30
  C 565.04 826.08 565.41 685.94 565.53 545.62
  Q 565.53 544.44 564.35 544.36
  L 556.85 543.85
  Q 556.23 543.81 555.91 543.27
  C 553.91 539.90 554.41 531.82 554.88 528.01
  Q 555.32 524.49 559.27 524.50
  A 0.86 0.86 0.0 0 0 560.10 523.40
  L 540.01 454.62
  Q 539.86 454.12 539.38 453.95
  C 536.46 452.90 529.65 451.68 531.43 446.63
  Q 531.60 446.16 532.07 446.29
  L 571.44 456.86
  A 0.74 0.74 0.0 0 0 572.32 456.41
  C 572.94 454.88 571.54 454.00 570.18 453.63
  Q 551.49 448.52 532.73 443.65
  Q 532.20 443.51 532.25 442.97
  C 532.47 440.45 533.79 437.63 534.28 435.72
  C 537.60 422.76 542.77 413.40 548.41 402.78
  C 550.98 397.94 553.19 395.45 558.78 397.70
  Q 572.20 403.11 585.65 408.49
  C 594.93 412.21 591.81 418.34 588.04 425.32
  C 582.53 435.50 579.14 447.86 575.33 458.82
  C 573.97 462.75 570.62 462.63 567.02 461.58
  Q 559.33 459.33 552.17 457.52
  Z
  M 553.01 401.24
  C 563.83 406.03 574.98 410.65 587.27 414.13
  A 0.68 0.68 0.0 0 0 587.93 413.00
  C 586.42 411.49 584.47 411.64 583.00 411.09
  Q 570.45 406.38 557.92 401.61
  Q 555.45 400.66 553.18 399.20
  A 0.76 0.76 0.0 0 0 552.04 399.66
  Q 551.78 400.69 553.01 401.24
  Z
  M 563.2061 410.4588
  A 1.32 1.32 0.0 0 0 562.3731 408.7882
  L 549.8363 404.5934
  A 1.32 1.32 0.0 0 0 548.1657 405.4264
  L 548.1339 405.5212
  A 1.32 1.32 0.0 0 0 548.9669 407.1918
  L 561.5037 411.3866
  A 1.32 1.32 0.0 0 0 563.1743 410.5536
  L 563.2061 410.4588
  Z
  M 585.4953 425.2287
  A 1.29 1.29 0.0 0 0 584.7359 423.5699
  L 548.3131 410.0244
  A 1.29 1.29 0.0 0 0 546.6544 410.7839
  L 546.5847 410.9713
  A 1.29 1.29 0.0 0 0 547.3441 412.6301
  L 583.7669 426.1756
  A 1.29 1.29 0.0 0 0 585.4256 425.4161
  L 585.4953 425.2287
  Z
  M 574.8724 414.6071
  A 1.26 1.26 0.0 0 0 574.0745 413.0138
  L 566.8251 410.6022
  A 1.26 1.26 0.0 0 0 565.2318 411.4001
  L 565.1876 411.5329
  A 1.26 1.26 0.0 0 0 565.9855 413.1262
  L 573.2349 415.5378
  A 1.26 1.26 0.0 0 0 574.8282 414.7399
  L 574.8724 414.6071
  Z
  M 577.46 416.59
  Q 580.45 419.15 584.43 419.48
  Q 584.93 419.52 585.26 419.15
  C 587.27 416.82 577.79 414.03 577.24 415.83
  A 0.72 0.72 0.0 0 0 577.46 416.59
  Z
  M 583.4740 430.7883
  A 1.33 1.33 0.0 0 0 582.6348 429.1050
  L 547.0537 417.1997
  A 1.33 1.33 0.0 0 0 545.3704 418.0390
  L 545.3260 418.1717
  A 1.33 1.33 0.0 0 0 546.1652 419.8550
  L 581.7463 431.7603
  A 1.33 1.33 0.0 0 0 583.4296 430.9210
  L 583.4740 430.7883
  Z
  M 580.6132 437.0674
  A 1.23 1.23 0.0 0 0 579.8371 435.5107
  L 541.7714 422.7740
  A 1.23 1.23 0.0 0 0 540.2146 423.5502
  L 540.1068 423.8726
  A 1.23 1.23 0.0 0 0 540.8829 425.4293
  L 578.9486 438.1660
  A 1.23 1.23 0.0 0 0 580.5054 437.3898
  L 580.6132 437.0674
  Z
  M 574.2055 442.5466
  A 1.33 1.33 0.0 0 0 573.3370 440.8782
  L 538.4310 429.8723
  A 1.33 1.33 0.0 0 0 536.7626 430.7408
  L 536.7145 430.8934
  A 1.33 1.33 0.0 0 0 537.5830 432.5618
  L 572.4890 443.5677
  A 1.33 1.33 0.0 0 0 574.1574 442.6992
  L 574.2055 442.5466
  Z
  M 576.0064 449.7601
  A 1.19 1.19 0.0 0 0 575.1930 448.2867
  L 536.7234 437.1831
  A 1.19 1.19 0.0 0 0 535.2501 437.9964
  L 535.1336 438.3999
  A 1.19 1.19 0.0 0 0 535.9470 439.8733
  L 574.4166 450.9769
  A 1.19 1.19 0.0 0 0 575.8899 450.1636
  L 576.0064 449.7601
  Z
  M 563.61 996.87
  Q 544.54 1082.49 546.16 1170.26
  C 546.85 1207.96 554.62 1247.68 561.48 1283.50
  Q 562.43 1288.46 563.24 1291.27
  Q 563.63 1292.64 563.64 1291.21
  C 563.96 1218.09 563.13 1144.84 564.18 1071.75
  Q 564.71 1034.36 564.03 996.91
  Q 564.00 995.12 563.61 996.87
  Z
  M 470.44 1576.56
  Q 478.50 1581.66 485.84 1583.89
  C 514.14 1592.50 544.85 1594.43 574.25 1593.80
  C 596.71 1593.32 618.50 1591.35 640.39 1586.12
  C 650.40 1583.73 664.41 1579.45 671.09 1571.34
  C 674.49 1567.22 671.08 1561.22 666.57 1566.47
  C 657.97 1576.49 639.68 1580.25 627.72 1582.29
  Q 572.78 1591.70 517.72 1584.34
  C 501.32 1582.15 486.25 1578.68 472.17 1570.31
  C 468.66 1568.22 466.00 1573.76 470.44 1576.56
  Z"
/>
<path fill="#000000" d="
  M 579.22 456.31
  Q 578.17 456.04 578.49 455.00
  C 581.36 445.66 585.52 432.38 591.53 422.29
  A 1.07 1.06 -63.4 0 1 592.84 421.85
  C 602.17 425.62 611.62 429.13 620.85 433.16
  C 625.34 435.12 624.88 437.47 624.67 441.66
  C 624.33 448.28 620.75 461.50 614.09 465.07
  Q 613.62 465.32 613.11 465.18
  L 579.22 456.31
  Z"
/>
<path fill="#000000" d="
  M 631.28 466.70
  C 629.14 469.89 625.39 467.19 625.46 464.12
  Q 625.68 454.02 631.48 445.86
  C 633.65 442.81 639.12 443.23 637.58 447.14
  Q 637.40 447.59 636.95 447.78
  C 631.87 449.99 630.21 458.08 629.73 463.00
  Q 629.69 463.43 629.94 463.78
  L 631.25 465.55
  Q 631.66 466.12 631.28 466.70
  Z"
/>
<path fill="#000000" d="
  M 771.15 615.36
  C 767.60 612.44 756.75 606.54 755.24 602.95
  Q 755.02 602.43 755.38 602.01
  C 756.28 600.94 757.53 601.00 758.64 601.84
  C 763.24 605.33 772.94 610.67 778.67 608.51
  C 792.04 603.47 798.03 582.12 801.92 569.91
  C 802.62 567.69 803.05 565.32 804.39 563.00
  A 1.69 1.69 0.0 0 1 806.67 562.37
  Q 807.84 563.01 807.56 564.72
  C 806.13 573.26 803.61 582.44 804.53 590.49
  C 805.62 600.09 810.44 608.98 819.94 612.31
  C 825.16 614.14 831.58 614.55 837.53 615.14
  C 842.11 615.59 847.75 613.06 851.72 614.25
  Q 852.19 614.39 852.36 614.85
  C 852.80 616.03 852.60 616.74 851.34 617.02
  C 838.68 619.82 824.34 623.64 815.87 634.71
  C 810.98 641.09 802.00 654.90 802.34 663.08
  C 802.61 669.57 803.19 675.97 803.00 682.49
  Q 802.94 684.34 800.50 683.88
  Q 800.04 683.79 799.77 683.40
  C 797.24 679.75 797.79 669.27 798.18 665.31
  C 798.87 658.18 798.48 641.66 789.96 638.72
  C 785.81 637.29 781.52 639.20 779.95 643.37
  C 776.26 653.19 768.02 667.75 758.82 673.37
  Q 758.37 673.65 757.88 673.45
  C 756.67 672.96 756.81 671.56 757.37 670.54
  Q 765.68 655.21 776.05 641.21
  Q 777.61 639.11 778.13 636.91
  C 779.74 630.07 776.21 619.54 771.15 615.36
  Z
  M 774.10 613.94
  C 779.94 617.90 782.13 628.67 781.99 635.75
  Q 781.98 636.29 782.45 636.04
  C 791.33 631.43 798.23 639.29 800.20 647.32
  Q 800.69 649.32 801.23 651.40
  Q 801.47 652.31 801.88 651.46
  C 808.96 636.63 816.88 624.13 832.43 619.15
  A 0.55 0.54 39.3 0 0 832.32 618.09
  Q 826.79 617.45 821.73 616.35
  C 806.04 612.93 801.10 598.85 800.96 584.44
  Q 800.95 582.77 800.40 584.35
  C 796.94 594.43 787.92 614.42 774.08 612.29
  A 0.50 0.50 0.0 0 0 773.51 612.86
  Q 773.62 613.61 774.10 613.94
  Z"
/>
<path fill="#000000" d="
  M 419.96 878.73
  A 1.44 1.44 0.0 0 1 419.76 876.11
  Q 421.51 875.17 422.60 873.55
  A 1.31 1.31 0.0 0 1 424.60 873.34
  C 429.00 877.62 437.73 882.61 444.02 880.14
  C 452.49 876.80 446.99 849.49 444.94 842.30
  C 444.66 841.31 437.17 824.02 443.89 826.65
  Q 444.33 826.83 444.49 827.28
  C 446.59 833.21 448.03 839.53 450.91 844.70
  C 455.06 852.14 463.51 868.38 475.01 859.42
  C 476.29 858.42 486.83 849.19 487.27 854.58
  C 487.49 857.29 481.44 860.54 478.88 862.15
  C 467.76 869.11 468.53 883.95 471.75 894.87
  C 473.26 900.00 477.10 905.94 479.01 911.97
  C 479.54 913.62 480.57 915.42 478.81 916.73
  A 2.18 2.18 0.0 0 1 475.60 916.04
  Q 472.26 910.00 470.17 903.52
  Q 468.33 897.82 467.30 896.14
  C 462.84 888.81 456.82 887.75 453.83 897.17
  Q 450.70 907.00 450.93 917.31
  C 451.06 922.68 450.82 926.16 450.13 930.84
  A 1.51 1.50 -11.2 0 1 449.39 931.94
  Q 447.97 932.77 447.16 931.96
  C 446.03 930.81 446.86 914.01 446.97 911.40
  C 447.28 903.25 446.36 894.54 439.33 889.18
  Q 430.64 882.57 419.96 878.73
  Z
  M 441.10 885.94
  Q 447.24 889.83 448.92 897.03
  A 0.51 0.51 0.0 0 0 449.92 897.00
  C 450.74 892.13 455.45 884.95 461.34 886.66
  Q 463.82 887.38 466.09 888.86
  Q 466.66 889.23 466.60 888.55
  C 465.88 880.37 465.48 873.02 469.55 866.31
  A 0.53 0.53 0.0 0 0 469.06 865.51
  C 461.55 866.04 455.75 860.52 452.49 854.36
  A 0.56 0.56 0.0 0 0 451.44 854.65
  C 451.91 863.38 456.17 884.53 440.57 884.57
  A 0.34 0.34 0.0 0 0 440.28 885.09
  Q 440.64 885.65 441.10 885.94
  Z"
/>
</svg>
