<svg width="25" height="25" viewBox="0 0 25 25" fill="none" xmlns="http://www.w3.org/2000/svg">
<g clip-path="url(#clip0_79_211)">
<path d="M10.9374 6.04167C13.7499 5.41667 16.4582 6.5625 18.0207 8.64583L5.83321 11.4583C6.24988 8.85417 8.22905 6.66667 10.9374 6.04167ZM18.1249 16.25C17.1874 17.6042 15.729 18.6458 14.0624 18.9583C11.2499 19.5833 8.54154 18.4375 6.97905 16.25L19.1665 13.5417L21.1457 13.125L24.9999 12.2917C24.9999 11.4583 24.8957 10.625 24.6874 9.89583C23.1249 3.125 16.4582 -0.9375 9.68738 0.625C2.91655 2.1875 -1.25012 8.75 0.312379 15.3125C1.87488 21.875 8.54154 26.0417 15.3124 24.4792C19.2707 23.5417 22.3957 20.9375 23.854 17.6042C23.9582 17.5 18.1249 16.25 18.1249 16.25Z" fill="white"/>
</g>
<defs>
<clipPath id="clip0_79_211">
<rect width="25" height="25" fill="white"/>
</clipPath>
</defs>
</svg>
