<svg width="25" height="25" viewBox="0 0 25 25" fill="none" xmlns="http://www.w3.org/2000/svg">
<path d="M12.5012 0C9.10634 0 8.6803 0.0148441 7.34695 0.0755219C6.01621 0.13646 5.10787 0.347139 4.31307 0.656257C3.49092 0.975531 2.79352 1.40262 2.09872 2.09768C1.4034 2.79248 0.976312 3.48988 0.655996 4.31176C0.346097 5.10682 0.135158 6.01543 0.0752611 7.34565C0.015625 8.679 0 9.1053 0 12.5001C0 15.895 0.0151046 16.3197 0.0755219 17.653C0.13672 18.9838 0.3474 19.8921 0.656257 20.6869C0.975792 21.5091 1.40288 22.2065 2.09794 22.9013C2.79248 23.5966 3.48988 24.0247 4.3115 24.344C5.10682 24.6531 6.01543 24.8638 7.34591 24.9247C8.67926 24.9854 9.10504 25.0003 12.4996 25.0003C15.8947 25.0003 16.3194 24.9854 17.6528 24.9247C18.9835 24.8638 19.8929 24.6531 20.6882 24.344C21.5101 24.0247 22.2065 23.5966 22.901 22.9013C23.5963 22.2065 24.0234 21.5091 24.3437 20.6872C24.651 19.8921 24.862 18.9835 24.9245 17.6533C24.9844 16.32 25 15.895 25 12.5001C25 9.1053 24.9844 8.67926 24.9245 7.34591C24.862 6.01517 24.651 5.10682 24.3437 4.31202C24.0234 3.48988 23.5963 2.79248 22.901 2.09768C22.2057 1.40236 21.5104 0.975271 20.6875 0.656257C19.8906 0.347139 18.9817 0.13646 17.651 0.0755219C16.3176 0.0148441 15.8931 0 12.4973 0H12.5012ZM11.3798 2.25263C11.7126 2.25211 12.084 2.25263 12.5012 2.25263C15.8387 2.25263 16.2343 2.26461 17.5523 2.3245C18.771 2.38023 19.4325 2.58388 19.8731 2.75498C20.4565 2.98154 20.8724 3.25238 21.3096 3.68988C21.7471 4.12739 22.0179 4.54406 22.245 5.1274C22.4161 5.56751 22.62 6.22897 22.6755 7.44773C22.7354 8.76546 22.7484 9.16129 22.7484 12.4973C22.7484 15.8332 22.7354 16.2291 22.6755 17.5468C22.6198 18.7656 22.4161 19.427 22.245 19.8671C22.0185 20.4505 21.7471 20.8658 21.3096 21.3031C20.8721 21.7406 20.4567 22.0114 19.8731 22.238C19.433 22.4099 18.771 22.613 17.5523 22.6687C16.2345 22.7286 15.8387 22.7416 12.5012 22.7416C9.16338 22.7416 8.7678 22.7286 7.45008 22.6687C6.23132 22.6125 5.56985 22.4088 5.12896 22.2377C4.54562 22.0112 4.12895 21.7403 3.69144 21.3028C3.25394 20.8653 2.9831 20.4497 2.75602 19.8661C2.58492 19.426 2.38101 18.7645 2.32555 17.5458C2.26565 16.228 2.25367 15.8322 2.25367 12.4941C2.25367 9.15608 2.26565 8.76233 2.32555 7.44461C2.38127 6.22585 2.58492 5.56438 2.75602 5.12375C2.98258 4.54041 3.25394 4.12374 3.69144 3.68624C4.12895 3.24873 4.54562 2.9779 5.12896 2.75081C5.56959 2.57893 6.23132 2.37581 7.45008 2.31982C8.60321 2.26773 9.05009 2.25211 11.3798 2.2495V2.25263ZM19.1736 4.32817C18.3455 4.32817 17.6736 4.99927 17.6736 5.82766C17.6736 6.6558 18.3455 7.32768 19.1736 7.32768C20.0018 7.32768 20.6737 6.6558 20.6737 5.82766C20.6737 4.99953 20.0018 4.32765 19.1736 4.32765V4.32817ZM12.5012 6.08079C8.95608 6.08079 6.08183 8.95504 6.08183 12.5001C6.08183 16.0452 8.95608 18.9182 12.5012 18.9182C16.0463 18.9182 18.9195 16.0452 18.9195 12.5001C18.9195 8.95504 16.046 6.08079 12.5009 6.08079H12.5012ZM12.5012 8.33342C14.8022 8.33342 16.6679 10.1988 16.6679 12.5001C16.6679 14.8012 14.8022 16.6668 12.5012 16.6668C10.1998 16.6668 8.33446 14.8012 8.33446 12.5001C8.33446 10.1988 10.1998 8.33342 12.5012 8.33342Z" fill="white"/>
</svg>
