<svg width="40" height="40" viewBox="0 0 40 40" fill="none" xmlns="http://www.w3.org/2000/svg">
<path fill-rule="evenodd" clip-rule="evenodd" d="M6.25 28.75C6.25 28.0596 6.80964 27.5 7.5 27.5H32.5C33.1904 27.5 33.75 28.0596 33.75 28.75C33.75 29.4404 33.1904 30 32.5 30H7.5C6.80964 30 6.25 29.4404 6.25 28.75Z" fill="white"/>
<path fill-rule="evenodd" clip-rule="evenodd" d="M6.25 18.75C6.25 18.0596 6.80964 17.5 7.5 17.5H32.5C33.1904 17.5 33.75 18.0596 33.75 18.75C33.75 19.4404 33.1904 20 32.5 20H7.5C6.80964 20 6.25 19.4404 6.25 18.75Z" fill="white"/>
<path fill-rule="evenodd" clip-rule="evenodd" d="M6.25 8.75C6.25 8.05964 6.80964 7.5 7.5 7.5H32.5C33.1904 7.5 33.75 8.05964 33.75 8.75C33.75 9.44036 33.1904 10 32.5 10H7.5C6.80964 10 6.25 9.44036 6.25 8.75Z" fill="white"/>
</svg>
