<?xml version="1.0" encoding="UTF-8" standalone="no"?>
<!DOCTYPE svg PUBLIC "-//W3C//DTD SVG 1.1//EN" "http://www.w3.org/Graphics/SVG/1.1/DTD/svg11.dtd">
<svg xmlns="http://www.w3.org/2000/svg" version="1.1" viewBox="0 0 70 70">
<path fill="#FF920A" d="
  M 70.00 56.06
  L 70.00 58.81
  C 67.00 72.24 49.36 71.28 47.83 57.05
  A 0.52 0.52 0.0 0 0 47.44 56.60
  L 21.48 49.83
  Q 20.82 49.66 20.51 50.26
  L 20.15 50.91
  Q 19.95 51.29 19.66 51.61
  C 13.01 59.11 1.80 56.11 0.00 46.19
  L 0.00 43.44
  C 2.07 34.87 9.76 31.55 17.39 35.82
  Q 17.85 36.08 18.25 35.73
  L 38.73 17.95
  Q 39.18 17.55 38.93 17.02
  C 32.42 3.40 52.96 -5.33 58.65 7.28
  C 63.29 17.55 52.28 27.22 42.79 21.40
  A 1.29 1.27 -49.6 0 0 41.29 21.53
  L 21.06 39.10
  Q 20.61 39.48 20.89 40.01
  Q 22.06 42.25 21.99 44.83
  Q 21.98 45.46 22.59 45.61
  L 48.30 52.32
  A 1.12 1.11 -67.3 0 0 49.55 51.80
  C 55.09 42.29 67.81 45.86 70.00 56.06
  Z
  M 55.34 12.17
  A 6.60 6.60 0.0 0 0 48.74 5.57
  A 6.60 6.60 0.0 0 0 42.14 12.17
  A 6.60 6.60 0.0 0 0 48.74 18.77
  A 6.60 6.60 0.0 0 0 55.34 12.17
  Z
  M 17.60 44.87
  A 6.59 6.59 0.0 0 0 11.01 38.28
  A 6.59 6.59 0.0 0 0 4.42 44.87
  A 6.59 6.59 0.0 0 0 11.01 51.46
  A 6.59 6.59 0.0 0 0 17.60 44.87
  Z
  M 65.59 57.33
  A 6.60 6.60 0.0 0 0 58.99 50.73
  A 6.60 6.60 0.0 0 0 52.39 57.33
  A 6.60 6.60 0.0 0 0 58.99 63.93
  A 6.60 6.60 0.0 0 0 65.59 57.33
  Z"
/>
</svg>
