<svg width="148" height="51" viewBox="0 0 148 51" fill="none" xmlns="http://www.w3.org/2000/svg">
<path d="M13.6798 50.1519C10.9918 50.1519 8.62378 49.6826 6.57578 48.7439C4.52778 47.8053 2.94911 46.5039 1.83978 44.8399C0.730448 43.1333 0.175781 41.1706 0.175781 38.9519C0.175781 37.0746 0.559781 35.3679 1.32778 33.8319C2.13845 32.2959 3.20511 31.0799 4.52778 30.1839C5.89311 29.2879 7.38645 28.8399 9.00778 28.8399C10.5011 28.8399 11.7598 29.2239 12.7838 29.9919C13.8078 30.7173 14.4478 31.7413 14.7038 33.0639C12.4851 33.0639 10.7144 33.6613 9.39178 34.8559C8.06911 36.0079 7.40778 37.5866 7.40778 39.5919C7.40778 41.4266 7.96245 42.8986 9.07178 44.0079C10.1811 45.1173 11.6531 45.6719 13.4878 45.6719C15.7491 45.6719 17.6051 44.9253 19.0558 43.4319C20.5491 41.8959 21.2958 39.9759 21.2958 37.6719C21.2958 35.6666 20.7411 33.7679 19.6318 31.9759C18.5224 30.1839 16.8584 28.0079 14.6398 25.4479C12.3358 22.8026 10.5864 20.5413 9.39178 18.6639C8.23978 16.7439 7.66378 14.6533 7.66378 12.3919C7.66378 10.1733 8.28245 8.18927 9.51978 6.43993C10.7571 4.64793 12.4638 3.23993 14.6398 2.21593C16.8158 1.19193 19.2691 0.679932 21.9998 0.679932C25.4558 0.679932 28.2078 1.4906 30.2558 3.11193C32.3464 4.73327 33.3918 6.90927 33.3918 9.63993C33.3918 11.4319 32.9438 12.8826 32.0478 13.9919C31.1518 15.1013 29.9784 15.6559 28.5278 15.6559C26.9064 15.6559 25.6051 14.9946 24.6238 13.6719C25.4344 13.0746 26.0744 12.2853 26.5438 11.3039C27.0131 10.3226 27.2478 9.2986 27.2478 8.23193C27.2478 6.8666 26.8424 5.7786 26.0318 4.96793C25.2211 4.15727 24.1118 3.75193 22.7038 3.75193C20.9971 3.75193 19.5891 4.3706 18.4798 5.60793C17.4131 6.8026 16.8798 8.3386 16.8798 10.2159C16.8798 11.9226 17.3704 13.5226 18.3518 15.0159C19.3331 16.4666 20.8691 18.3439 22.9598 20.6479C24.6664 22.4826 26.0318 24.0613 27.0558 25.3839C28.1224 26.7066 29.0184 28.2426 29.7438 29.9919C30.5118 31.6986 30.8958 33.5546 30.8958 35.5599C30.8958 38.2906 30.1278 40.7653 28.5918 42.9839C27.0984 45.2026 25.0291 46.9519 22.3838 48.2319C19.7811 49.5119 16.8798 50.1519 13.6798 50.1519Z" fill="#27003E"/>
<path d="M57.6038 49.3839C55.0011 49.3839 53.0811 48.7013 51.8438 47.3359C50.6491 45.9279 50.0518 44.1999 50.0518 42.1519C50.0518 41.2559 50.1584 40.2533 50.3718 39.1439C50.5851 37.9919 50.7985 36.8826 51.0118 35.8159C51.2678 34.7493 51.4384 34.0666 51.5238 33.7679C51.8651 32.2746 52.1851 30.8026 52.4838 29.3519C52.7825 27.9013 52.9318 26.7279 52.9318 25.8319C52.9318 23.6559 52.1638 22.5679 50.6278 22.5679C49.5184 22.5679 48.5371 23.1226 47.6838 24.2319C46.8304 25.2986 46.1478 26.7066 45.6358 28.4559L41.2838 48.9999H32.0678L41.3478 5.47993L50.8198 4.19993L47.3638 20.3279C49.4971 17.9386 51.9931 16.7439 54.8518 16.7439C57.0278 16.7439 58.7558 17.3413 60.0358 18.5359C61.3158 19.7306 61.9558 21.5439 61.9558 23.9759C61.9558 25.2133 61.8064 26.5999 61.5078 28.1359C61.2091 29.6293 60.7825 31.4639 60.2278 33.6399C59.8865 34.9626 59.5665 36.2639 59.2678 37.5439C59.0118 38.7813 58.8838 39.7626 58.8838 40.4879C58.8838 41.3413 59.0758 42.0026 59.4598 42.4719C59.8438 42.9413 60.5051 43.1759 61.4438 43.1759C62.7238 43.1759 63.7478 42.7279 64.5158 41.8319C65.2838 40.8933 66.0518 39.4639 66.8198 37.5439H69.5078C67.9291 42.2373 66.0945 45.3946 64.0038 47.0159C61.9558 48.5946 59.8224 49.3839 57.6038 49.3839Z" fill="#27003E"/>
<path d="M74.4923 49.3839C72.0603 49.3839 70.0336 48.5519 68.4123 46.8879C66.791 45.2239 65.9803 42.6213 65.9803 39.0799C65.9803 35.9226 66.5989 32.6159 67.8363 29.1599C69.1163 25.6613 70.9936 22.7173 73.4683 20.3279C75.9856 17.8959 78.9723 16.6799 82.4283 16.6799C84.1776 16.6799 85.479 16.9786 86.3323 17.5759C87.1856 18.1733 87.6123 18.9626 87.6123 19.9439V20.3919L88.3163 16.9999H97.5323L92.9243 38.7599C92.7536 39.3999 92.6683 40.0826 92.6683 40.8079C92.6683 42.6426 93.5429 43.5599 95.2923 43.5599C96.4869 43.5599 97.5109 43.0053 98.3643 41.8959C99.2603 40.7866 99.9643 39.3359 100.476 37.5439H103.164C101.586 42.1519 99.623 45.2879 97.2763 46.9519C94.9723 48.5733 92.647 49.3839 90.3003 49.3839C88.5083 49.3839 87.0576 48.8933 85.9483 47.9119C84.8816 46.8879 84.2416 45.4159 84.0283 43.4959C82.7909 45.2453 81.4043 46.6746 79.8683 47.7839C78.3749 48.8506 76.5829 49.3839 74.4923 49.3839ZM78.6523 43.1759C79.7189 43.1759 80.7643 42.6853 81.7883 41.7039C82.855 40.6799 83.5803 39.2933 83.9643 37.5439L87.0363 23.0799C87.0363 22.5253 86.823 21.9919 86.3963 21.4799C85.9696 20.9253 85.3083 20.6479 84.4123 20.6479C82.7056 20.6479 81.1696 21.6506 79.8043 23.6559C78.4389 25.6186 77.3723 28.0079 76.6043 30.8239C75.8363 33.5973 75.4523 36.0506 75.4523 38.1839C75.4523 40.3173 75.7509 41.6826 76.3483 42.2799C76.9883 42.8773 77.7563 43.1759 78.6523 43.1759Z" fill="#27003E"/>
<path d="M104.852 16.9999H114.068L113.236 20.9679C114.686 19.6879 115.988 18.7066 117.14 18.0239C118.334 17.3413 119.614 16.9999 120.98 16.9999C122.345 16.9999 123.412 17.4693 124.18 18.4079C124.99 19.3466 125.396 20.4773 125.396 21.7999C125.396 23.0373 124.99 24.1253 124.18 25.0639C123.369 26.0026 122.238 26.4719 120.788 26.4719C119.849 26.4719 119.209 26.2586 118.868 25.8319C118.569 25.3626 118.334 24.7013 118.164 23.8479C118.036 23.2933 117.908 22.8879 117.78 22.6319C117.652 22.3759 117.417 22.2479 117.076 22.2479C116.18 22.2479 115.412 22.4399 114.772 22.8239C114.174 23.1653 113.385 23.7839 112.404 24.6799L107.284 48.9999H98.0678L104.852 16.9999Z" fill="#27003E"/>
<path d="M133.586 49.3839C130.472 49.3839 128.04 48.5733 126.29 46.9519C124.541 45.2879 123.666 42.7066 123.666 39.2079C123.666 36.2639 124.242 33.0213 125.394 29.4799C126.546 25.9386 128.424 22.8879 131.026 20.3279C133.629 17.7253 136.936 16.4239 140.946 16.4239C145.64 16.4239 147.986 18.4719 147.986 22.5679C147.986 24.9573 147.304 27.1546 145.938 29.1599C144.573 31.1653 142.76 32.7866 140.498 34.0239C138.237 35.2186 135.826 35.9013 133.266 36.0719C133.181 37.0106 133.138 37.6506 133.138 37.9919C133.138 41.5333 134.461 43.3039 137.106 43.3039C138.301 43.3039 139.581 42.9839 140.946 42.3439C142.312 41.7039 143.549 40.8933 144.658 39.9119C143.506 46.2266 139.816 49.3839 133.586 49.3839ZM133.714 32.9999C135.336 32.9573 136.85 32.4239 138.258 31.3999C139.709 30.3759 140.861 29.0746 141.714 27.4959C142.61 25.8746 143.058 24.1893 143.058 22.4399C143.058 20.6906 142.525 19.8159 141.458 19.8159C139.965 19.8159 138.472 21.1813 136.978 23.9119C135.528 26.5999 134.44 29.6293 133.714 32.9999Z" fill="#27003E"/>
</svg>
