<?xml version="1.0" encoding="UTF-8" standalone="no"?>
<!DOCTYPE svg PUBLIC "-//W3C//DTD SVG 1.1//EN" "http://www.w3.org/Graphics/SVG/1.1/DTD/svg11.dtd">
<svg xmlns="http://www.w3.org/2000/svg" version="1.1" viewBox="0.00 0.00 600.00 600.00">
<path fill="#ff7d00" d="
  M 34.00 503.80
  L 283.01 74.07
  A 20.11 20.11 0.0 0 1 317.81 74.07
  L 566.82 503.80
  A 20.11 20.11 0.0 0 1 549.42 534.00
  L 51.40 534.00
  A 20.11 20.11 0.0 0 1 34.00 503.80
  Z
  M 300.26 150.15
  A 0.30 0.30 0.0 0 0 299.74 150.15
  L 105.39 485.55
  A 0.30 0.30 0.0 0 0 105.65 486.00
  L 494.36 486.00
  A 0.30 0.30 0.0 0 0 494.62 485.55
  L 300.26 150.15
  Z
  M 205.87 499.75
  L 207.07 498.55
  A 0.91 0.91 0.0 0 0 206.42 496.99
  L 195.21 497.04
  A 1.10 1.10 0.0 0 0 194.80 499.15
  C 196.42 499.81 201.62 521.14 202.49 524.31
  Q 202.61 524.75 203.06 524.75
  L 206.48 524.75
  Q 206.97 524.75 207.10 524.28
  C 208.21 520.47 209.79 516.12 208.72 512.14
  Q 207.18 506.35 205.64 500.60
  Q 205.51 500.11 205.87 499.75
  Z
  M 211.34 497.16
  C 210.56 500.62 208.67 505.19 209.49 508.54
  Q 211.44 516.44 213.65 524.29
  Q 213.78 524.75 214.26 524.75
  L 217.73 524.75
  Q 218.21 524.75 218.32 524.29
  C 219.13 520.92 220.78 516.91 219.91 513.47
  Q 217.90 505.51 215.73 497.57
  A 0.81 0.81 0.0 0 0 214.94 496.98
  L 211.48 497.05
  A 0.14 0.13 4.8 0 0 211.34 497.16
  Z
  M 220.83 499.16
  A 1.38 1.38 0.0 0 1 221.97 500.93
  C 221.28 503.25 219.43 508.62 221.14 510.72
  Q 221.49 511.14 221.63 510.61
  C 222.55 507.20 223.28 500.42 226.80 498.70
  A 0.90 0.90 0.0 0 0 226.40 496.99
  L 220.24 497.03
  A 0.74 0.74 0.0 0 0 219.51 497.89
  Q 219.68 499.01 220.83 499.16
  Z
  M 230.74 499.28
  Q 231.50 499.73 231.50 500.62
  L 231.50 521.36
  Q 231.50 521.85 231.09 522.13
  L 229.90 522.93
  A 0.99 0.99 0.0 0 0 230.46 524.74
  L 240.12 524.75
  A 0.63 0.62 0.0 0 0 240.75 524.13
  L 240.75 497.62
  Q 240.75 497.00 240.12 497.00
  L 230.45 497.01
  A 0.97 0.97 0.0 0 0 229.95 498.81
  L 230.74 499.28
  Z
  M 243.46 499.45
  Q 247.62 500.71 248.73 504.90
  A 0.99 0.99 0.0 0 0 250.67 504.66
  L 250.78 497.65
  A 0.63 0.63 0.0 0 0 250.15 497.00
  L 243.13 497.00
  Q 242.50 497.00 242.50 497.63
  L 242.50 498.16
  Q 242.50 499.16 243.46 499.45
  Z
  M 267.00 522.73
  Q 265.17 522.21 265.16 520.49
  Q 265.08 509.04 264.93 497.48
  Q 264.93 497.00 264.44 497.00
  L 254.94 497.01
  A 1.06 1.06 0.0 0 0 254.60 499.07
  L 255.47 499.37
  Q 255.99 499.54 255.99 500.08
  Q 256.03 510.64 255.99 521.19
  Q 255.99 521.23 255.55 522.05
  Q 255.31 522.49 254.77 522.52
  A 1.19 1.05 39.9 0 0 255.11 524.73
  C 256.62 524.75 268.33 525.72 267.45 523.15
  A 0.70 0.69 -1.7 0 0 267.00 522.73
  Z
  M 272.11 510.96
  C 282.82 507.47 277.44 494.88 267.36 497.26
  A 1.05 1.05 0.0 0 0 266.94 499.10
  L 268.61 500.45
  Q 268.99 500.76 268.99 501.25
  C 269.01 503.52 269.88 509.19 267.35 510.17
  Q 266.89 510.35 266.79 510.83
  Q 266.41 512.60 268.02 512.97
  A 0.94 0.94 0.0 0 1 268.73 513.72
  C 269.63 518.79 267.34 525.73 275.49 525.10
  Q 279.39 524.80 280.96 520.88
  A 0.84 0.84 0.0 0 0 279.70 519.88
  L 278.39 520.79
  A 0.40 0.40 0.0 0 1 277.77 520.47
  C 277.66 515.87 278.33 511.79 272.17 511.40
  A 0.23 0.22 37.6 0 1 272.11 510.96
  Z
  M 283.39 498.70
  Q 285.23 499.57 285.23 500.75
  Q 285.27 510.96 285.24 521.19
  Q 285.24 521.80 284.73 522.14
  L 283.67 522.86
  A 1.03 1.03 0.0 0 0 284.25 524.74
  L 293.62 524.75
  Q 294.25 524.75 294.25 524.13
  L 294.25 497.51
  Q 294.25 497.03 293.76 497.02
  C 292.16 497.00 283.21 496.28 283.11 498.23
  A 0.49 0.49 0.0 0 0 283.39 498.70
  Z
  M 297.04 499.63
  A 2.15 2.14 13.1 0 1 298.25 501.56
  L 298.25 520.71
  Q 298.25 521.27 297.78 521.57
  L 296.42 522.45
  A 1.26 1.26 0.0 0 0 297.28 524.76
  C 311.09 522.82 311.33 497.70 296.58 497.05
  A 0.53 0.52 7.9 0 0 296.04 497.45
  Q 295.66 498.96 297.04 499.63
  Z
  M 320.87 498.80
  L 322.02 499.39
  A 0.89 0.89 0.0 0 1 322.50 500.18
  L 322.50 521.36
  Q 322.50 521.85 322.09 522.13
  L 320.90 522.93
  A 0.99 0.99 0.0 0 0 321.46 524.74
  L 331.12 524.75
  A 0.63 0.62 0.0 0 0 331.75 524.13
  L 331.75 497.71
  Q 331.75 497.04 331.08 497.02
  C 329.58 496.97 320.78 496.34 320.52 498.13
  A 0.65 0.64 17.7 0 0 320.87 498.80
  Z
  M 333.71 499.36
  C 336.92 500.87 338.77 500.96 339.79 504.91
  A 0.88 0.87 -51.3 0 0 341.51 504.72
  L 341.77 497.65
  Q 341.80 497.00 341.15 497.00
  L 334.24 497.00
  A 1.24 1.24 0.0 0 0 333.71 499.36
  Z
  M 345.32 498.79
  C 346.38 499.26 347.13 499.54 347.73 500.56
  Q 354.66 512.41 361.55 524.31
  Q 361.81 524.75 362.32 524.75
  L 366.80 524.75
  A 0.53 0.53 0.0 0 0 367.33 524.21
  L 367.21 516.07
  A 2.10 2.08 -60.4 0 0 366.94 515.08
  L 356.81 497.46
  A 0.88 0.87 -14.4 0 0 356.04 497.01
  C 354.37 497.00 345.06 496.21 345.02 498.32
  A 0.50 0.49 -77.9 0 0 345.32 498.79
  Z
  M 362.24 497.87
  C 362.24 499.32 365.80 500.40 365.40 503.29
  Q 364.69 508.45 366.67 511.61
  Q 367.22 512.48 367.30 511.46
  C 367.66 506.91 365.67 501.28 370.03 498.82
  A 0.96 0.96 0.0 0 0 369.56 497.03
  L 363.13 496.99
  A 0.89 0.89 0.0 0 0 362.24 497.87
  Z
  M 374.42 506.00
  L 375.48 501.61
  A 1.63 1.62 80.0 0 1 376.15 500.65
  Q 377.79 499.60 377.48 497.66
  Q 377.38 497.00 376.71 497.00
  L 372.57 497.00
  Q 371.89 497.00 371.92 497.68
  L 372.23 505.74
  Q 372.27 506.55 373.06 506.49
  L 373.91 506.42
  A 0.57 0.56 4.9 0 0 374.42 506.00
  Z
  M 377.37 524.65
  C 379.71 524.78 389.37 525.38 390.72 523.89
  Q 391.25 523.31 390.55 522.97
  L 388.74 522.10
  A 0.88 0.87 -77.1 0 1 388.25 521.31
  L 388.25 497.50
  Q 388.25 497.00 387.75 497.00
  L 379.77 497.00
  A 0.85 0.85 0.0 0 0 378.92 497.94
  C 379.83 505.73 378.84 513.37 379.19 520.94
  Q 379.25 522.27 377.43 522.45
  Q 376.81 522.52 376.78 523.14
  L 376.74 523.95
  A 0.67 0.67 0.0 0 0 377.37 524.65
  Z
  M 390.03 497.07
  Q 389.44 499.35 391.22 500.62
  A 1.53 1.50 -79.9 0 1 391.78 501.44
  L 392.87 505.57
  A 1.19 1.18 37.9 0 0 395.20 505.28
  L 395.27 497.64
  Q 395.28 496.99 394.63 496.99
  L 390.10 497.01
  A 0.07 0.07 0.0 0 0 390.03 497.07
  Z
  M 345.92 524.72
  L 352.03 524.77
  A 1.12 1.12 0.0 0 0 352.63 522.70
  Q 351.61 522.06 350.79 521.17
  Q 350.43 520.78 350.37 520.26
  C 349.93 516.23 351.00 507.94 348.55 504.95
  A 0.32 0.32 0.0 0 0 347.99 505.15
  C 348.01 509.07 349.42 520.92 345.49 522.88
  A 0.97 0.97 0.0 0 0 345.92 524.72
  Z
  M 242.41 511.45
  Q 244.55 512.93 245.20 515.49
  A 0.91 0.91 0.0 0 0 247.00 515.26
  L 246.99 505.58
  A 0.87 0.87 0.0 0 0 245.27 505.44
  C 244.83 508.08 242.34 508.66 242.23 511.09
  A 0.41 0.41 0.0 0 0 242.41 511.45
  Z
  M 334.69 508.51
  Q 333.07 509.40 333.27 511.16
  Q 333.34 511.74 333.85 512.01
  Q 335.83 513.06 336.11 515.35
  A 1.07 1.07 0.0 0 0 338.25 515.21
  L 338.17 505.77
  A 0.91 0.91 0.0 0 0 336.43 505.41
  L 335.36 507.79
  Q 335.14 508.26 334.69 508.51
  Z
  M 248.91 516.77
  Q 247.50 521.33 242.95 522.44
  A 1.17 1.17 0.0 0 0 243.22 524.75
  L 250.27 524.75
  A 0.67 0.67 0.0 0 0 250.94 524.13
  C 251.02 523.04 251.72 515.29 249.55 516.09
  A 1.04 1.04 0.0 0 0 248.91 516.77
  Z
  M 341.82 516.77
  A 0.94 0.94 0.0 0 0 339.98 516.60
  Q 338.61 521.33 333.95 522.44
  A 1.17 1.17 0.0 0 0 334.22 524.75
  L 341.42 524.75
  Q 341.92 524.75 341.95 524.25
  Q 342.17 520.52 341.82 516.77
  Z
  M 406.68 521.34
  A 3.90 3.90 0.0 0 0 402.78 517.44
  A 3.90 3.90 0.0 0 0 398.88 521.34
  A 3.90 3.90 0.0 0 0 402.78 525.24
  A 3.90 3.90 0.0 0 0 406.68 521.34
  Z"
/>
<path fill="#ff7d00" d="
  M 302.44 368.06
  C 293.93 366.57 289.69 372.42 286.52 379.29
  Q 278.57 396.49 270.67 413.86
  A 0.33 0.33 0.0 0 1 270.08 413.89
  Q 254.66 387.62 239.19 361.34
  C 234.22 352.90 228.24 348.62 218.29 352.83
  A 0.20 0.20 0.0 0 1 218.04 352.55
  Q 250.51 297.01 282.98 241.49
  C 289.05 231.13 303.33 229.22 312.46 236.39
  Q 315.22 238.56 318.09 243.44
  Q 349.92 297.66 381.81 352.38
  A 0.20 0.19 -4.9 0 1 381.57 352.66
  C 371.33 348.60 365.71 353.24 360.64 361.86
  Q 345.46 387.72 330.17 413.75
  A 0.45 0.45 0.0 0 1 329.37 413.71
  Q 321.01 394.82 311.97 376.14
  C 309.90 371.86 306.88 368.84 302.44 368.06
  Z"
/>
<path fill="#ff7d00" d="
  M 177.63 447.36
  Q 168.81 436.57 176.92 422.90
  Q 183.15 412.41 206.23 372.70
  Q 206.45 372.33 206.66 372.70
  L 254.86 454.72
  Q 255.02 455.00 254.70 455.00
  Q 224.04 455.01 193.24 454.96
  C 186.75 454.95 181.75 452.41 177.63 447.36
  Z"
/>
<path fill="#ff7d00" d="
  M 393.58 372.55
  A 0.01 0.01 0.0 0 1 393.60 372.55
  Q 408.70 398.18 423.61 423.99
  C 429.99 435.03 426.44 449.25 413.93 453.74
  Q 410.54 454.96 402.81 454.98
  Q 374.17 455.05 345.54 454.98
  Q 345.16 454.98 345.35 454.65
  L 393.58 372.55
  Z"
/>
<path fill="#ff7d00" d="
  M 320.82 454.59
  A 0.24 0.23 -23.9 0 1 320.66 455.00
  L 279.95 455.00
  Q 279.06 455.00 279.66 454.34
  C 280.82 453.08 281.75 452.14 282.45 450.62
  Q 291.14 431.85 299.71 413.19
  A 0.40 0.40 0.0 0 1 300.44 413.19
  Q 309.10 432.01 317.86 450.92
  Q 318.67 452.66 320.82 454.59
  Z"
/>
</svg>
