<svg width="26" height="25" viewBox="0 0 26 25" fill="none" xmlns="http://www.w3.org/2000/svg">
<path d="M13.5795 3.12297C13.5884 3.12299 13.598 3.12301 13.6082 3.12303L13.7189 3.12338C15.0029 3.1281 21.5109 3.17527 23.2656 3.647C24.3413 3.93551 25.1883 4.78575 25.4758 5.86502C25.634 6.45799 25.7444 7.24611 25.8212 8.05666L25.8362 8.21902C25.8482 8.35448 25.8594 8.49025 25.8698 8.62552L25.8818 8.78755C25.9845 10.2158 25.9965 11.5524 25.9979 11.8448L25.998 11.8843C25.998 11.8875 25.998 11.8928 25.998 11.8928V11.9149C25.998 11.9149 25.998 11.9202 25.998 11.9235L25.9979 11.9629C25.9964 12.2664 25.9836 13.6943 25.8698 15.1823L25.857 15.3448L25.8433 15.5075C25.7659 16.4021 25.6499 17.2905 25.4758 17.9427C25.1883 19.022 24.3413 19.8724 23.2656 20.1607C21.4524 20.6484 14.5638 20.6825 13.6082 20.6849L13.5347 20.6851C13.5286 20.6851 13.5233 20.6851 13.5188 20.6851L13.4887 20.6851C13.4887 20.6851 13.4818 20.6851 13.4773 20.6851L13.3878 20.6849C12.9049 20.6837 10.9067 20.6744 8.8141 20.6025L8.54655 20.593C8.50191 20.5914 8.45726 20.5897 8.4126 20.588L8.14475 20.5774L7.87751 20.5661C6.14391 20.49 4.49101 20.3652 3.73065 20.1607C2.65499 19.8724 1.80797 19.022 1.52048 17.9427C1.34631 17.2905 1.2302 16.4021 1.15279 15.5075L1.13914 15.3448L1.12632 15.1823C1.01661 13.7484 1.00068 12.3703 0.998372 12.0004L0.998096 11.9475C0.998076 11.9427 0.99806 11.9383 0.998047 11.9343V11.8734C0.99806 11.8694 0.998076 11.865 0.998096 11.8603L0.998372 11.8073C1.00047 11.4723 1.01373 10.3104 1.0977 9.02904L1.10857 8.86829C1.11045 8.84142 1.11236 8.8145 1.11429 8.78755L1.12632 8.62552C1.13667 8.49025 1.14785 8.35448 1.15994 8.21902L1.17488 8.05666C1.25179 7.24611 1.36215 6.45799 1.52048 5.86502C1.80797 4.78575 2.65499 3.93551 3.73065 3.647C4.49101 3.44258 6.14391 3.31789 7.87751 3.24183L8.14475 3.2305L8.4126 3.21992C8.45726 3.21822 8.50191 3.21655 8.54655 3.2149L8.8141 3.20539C10.7731 3.13814 12.6494 3.12568 13.2772 3.12338L13.3878 3.12303C13.3981 3.12301 13.4077 3.12299 13.4165 3.12297H13.5795ZM10.9981 8.14046V15.6673L17.493 11.9041L10.9981 8.14046Z" fill="white"/>
</svg>
